<?xml version="1.0" encoding="UTF-8" standalone="no"?>
<!-- Created with Inkscape (http://www.inkscape.org/) -->

<svg
   xmlns:dc="http://purl.org/dc/elements/1.1/"
   xmlns:cc="http://creativecommons.org/ns#"
   xmlns:rdf="http://www.w3.org/1999/02/22-rdf-syntax-ns#"
   xmlns:svg="http://www.w3.org/2000/svg"
   xmlns="http://www.w3.org/2000/svg"
   xmlns:sodipodi="http://sodipodi.sourceforge.net/DTD/sodipodi-0.dtd"
   xmlns:inkscape="http://www.inkscape.org/namespaces/inkscape"
   width="277.24091"
   height="396.08798"
   viewBox="0 0 277.24091 396.08799"
   id="svg2"
   version="1.1"
   inkscape:version="0.91 r13725"
   sodipodi:docname="01-dwarf-house.svg">
  <defs
     id="defs4" />
  <sodipodi:namedview
     id="base"
     pagecolor="#ffffff"
     bordercolor="#666666"
     borderopacity="1.0"
     inkscape:pageopacity="0.0"
     inkscape:pageshadow="2"
     inkscape:zoom="0.35"
     inkscape:cx="338.34564"
     inkscape:cy="-120.6306"
     inkscape:document-units="px"
     inkscape:current-layer="layer1"
     showgrid="false"
     inkscape:window-width="1311"
     inkscape:window-height="744"
     inkscape:window-x="55"
     inkscape:window-y="24"
     inkscape:window-maximized="1"
     units="px"
     fit-margin-top="0"
     fit-margin-left="0"
     fit-margin-right="0"
     fit-margin-bottom="0" />
  <metadata
     id="metadata7">
    <rdf:RDF>
      <cc:Work
         rdf:about="">
        <dc:format>image/svg+xml</dc:format>
        <dc:type
           rdf:resource="http://purl.org/dc/dcmitype/StillImage" />
        <dc:title></dc:title>
      </cc:Work>
    </rdf:RDF>
  </metadata>
  <g
     inkscape:label="Layer 1"
     inkscape:groupmode="layer"
     id="layer1"
     transform="translate(-134.18765,-248.49999)">
    <path
       style="fill:#ffff00;fill-rule:evenodd;stroke:#000000;stroke-width:1px;stroke-linecap:butt;stroke-linejoin:miter;stroke-opacity:1"
       d="m 177.14286,478.07649 c 0,40 0,80 0,120 0,7.61905 0,15.2381 0,22.85714 0,0.95238 0,1.90477 0,2.85715 0,0.95238 -0.67344,2.1837 0,2.85714 0.67343,0.67343 2.1837,0.67343 2.85714,0 0.67344,-0.67344 -0.67344,-2.18371 0,-2.85714 0.0919,-0.0919 7.8785,0 8.57143,0 7.61905,0 -0.95238,0.95238 2.85714,-2.85715 0.67344,-0.67343 1.90476,0 2.85714,0 5.71429,0 11.42858,0 17.14286,0 1.90476,0 3.8664,-0.46197 5.71429,0 2.066,0.5165 3.69398,2.18371 5.71428,2.85715 0.90351,0.30117 2.00531,-0.42592 2.85715,0 3.07133,1.53566 5.38317,4.43898 8.57142,5.71428 1.76853,0.70741 3.8664,-0.46197 5.71429,0 2.066,0.5165 3.69398,2.18371 5.71429,2.85714 1.80701,0.60234 4.36741,-1.34687 5.71428,0 0.67344,0.67344 -0.67343,2.18371 0,2.85715 0.68752,0.68751 10.74106,-0.68752 11.42857,0 0.67344,0.67343 -0.67343,2.18371 0,2.85714 0.78178,0.78178 9.87861,-0.77498 11.42857,0 1.20468,0.60234 1.65247,2.2548 2.85715,2.85714 1.51497,0.75749 12.34199,-0.6479 14.28571,0 1.27775,0.42592 1.65247,2.25481 2.85714,2.85715 1.03324,0.51662 12.29846,0 14.28572,0 10.47619,0 20.95238,0 31.42857,0 4.7619,0 9.52381,0 14.28571,0 0.95239,0 2.18371,0.67343 2.85715,0 0.67343,-0.67344 -0.67344,-2.18371 0,-2.85715 0.67343,-0.67343 2.1837,0.67344 2.85714,0 0.67344,-0.67343 -0.95238,-2.85714 0,-2.85714 0.95238,0 0,3.80952 0,2.85714 0,-1.90476 0,-3.80952 0,-5.71428 0,-0.95238 -0.67344,-2.18371 0,-2.85715 1.34687,-1.34687 4.36742,1.34687 5.71429,0 0.67343,-0.67343 -0.67344,-2.1837 0,-2.85714 1.34687,-1.34687 4.36741,1.34687 5.71428,0 1.34687,-1.34687 -1.34687,-4.36741 0,-5.71428 3.80953,-3.80953 2.7416,6.06091 5.71429,-2.85715 0.90351,-2.71052 0,-5.71428 0,-8.57143 0,-6.66666 0,-13.33333 0,-20 0,-12.38095 0,-24.7619 0,-37.14285 0,-0.95238 0,-1.90476 0,-2.85715 0,-0.95238 0.67343,-2.1837 0,-2.85714 -0.67344,-0.67343 -2.18371,0.67344 -2.85715,0 -1.34687,-1.34687 1.34687,-4.36741 0,-5.71428 -0.67343,-0.67344 -2.1837,0.67343 -2.85714,0 -0.67343,-0.67344 0.67344,-2.18371 0,-2.85715 -0.67343,-0.67343 -2.43122,0.85184 -2.85714,0 -0.85184,-1.70367 0,-3.80952 0,-5.71428 0,-0.95238 0.67343,-2.18371 0,-2.85715 -0.67344,-0.67343 -2.18371,0.67344 -2.85714,0 -1.42858,-1.42857 1.42857,-7.14285 0,-8.57142 -0.67344,-0.67344 -2.18371,0.67343 -2.85715,0 -0.67343,-0.67344 0.67344,-2.18371 0,-2.85715 -0.67343,-0.67343 -2.1837,0.67344 -2.85714,0 -0.67344,-0.67343 0,-1.90476 0,-2.85714 -0.95238,0 -2.18371,0.67344 -2.85714,0 -0.11498,-0.11497 0,-10.37932 0,-11.42857 0,-6.66667 0,-13.33333 0,-20 0,-0.95238 0.67343,-2.18371 0,-2.85714 -0.67344,-0.67344 -2.18371,0.67343 -2.85715,0 -0.68751,-0.68752 0.68752,-10.74106 0,-11.42858 -0.67343,-0.67343 -1.90476,0 -2.85714,0 0,-0.95238 0.67344,-2.1837 0,-2.85714 -1.50585,-1.50584 -3.69398,-2.18371 -5.71428,-2.85714 -0.90351,-0.30117 -2.18371,0.67343 -2.85715,0 -0.67343,-0.67344 0.67344,-2.18371 0,-2.85714 -0.67343,-0.67344 -2.1837,0.67343 -2.85714,0 -0.67344,-0.67344 0.85184,-2.43123 0,-2.85715 -1.70367,-0.85183 -3.90727,0.60234 -5.71429,0 -2.5555,-0.85183 -3.30493,-4.50961 -5.71428,-5.71428 -1.70367,-0.85184 -4.01062,0.85183 -5.71429,0 -1.20467,-0.60234 -1.65246,-2.25481 -2.85714,-2.85715 -1.03324,-0.51661 -12.29846,0 -14.28571,0 -7.61905,0 -15.2381,0 -22.85715,0 -2.85714,0 -5.76977,-0.56033 -8.57143,0 -2.08823,0.41765 -3.64828,2.34065 -5.71428,2.85715 -1.84789,0.46197 -3.80953,0 -5.71429,0 -4.7619,0 -9.52381,0 -14.28571,0 -15.2381,0 -30.47619,0 -45.71429,0 -1.90476,0 -3.80952,0 -5.71428,0 -0.95238,0 -2.18371,-0.67344 -2.85715,0 -0.67343,0.67343 0.67344,2.18371 0,2.85714 -0.5841,0.5841 -7.43859,-0.56642 -8.57142,0 -1.20468,0.60234 -1.65247,2.2548 -2.85715,2.85714 -1.13283,0.56642 -7.98732,-0.5841 -8.57143,0 -0.67343,0.67344 0.67344,2.18371 0,2.85715 -0.67343,0.67343 -2.1837,-0.67344 -2.85714,0 -1.34687,1.34687 1.34687,4.36741 0,5.71428 -0.67343,0.67344 -3.38543,-0.79243 -2.85714,0 2.24133,3.36199 11.42857,5.71429 8.57143,8.57143 -2.85715,2.85714 -5.71429,-5.71429 0,0 z"
       id="path3336"
       inkscape:connector-curvature="0" />
    <path
       style="fill:none;fill-rule:evenodd;stroke:#000000;stroke-width:1px;stroke-linecap:butt;stroke-linejoin:miter;stroke-opacity:1"
       d="m 134.28571,438.07649 c 4.76191,-0.95238 9.49558,-2.05879 14.28572,-2.85714 1.87884,-0.31314 3.80952,0 5.71428,0 5.71429,0 11.42858,0 17.14286,0 13.33333,0 26.66667,0 40,0 4.76191,0 9.52381,0 14.28572,0 0.95238,0 2.1837,-0.67344 2.85714,0 1.34687,1.34687 -1.34687,4.36741 0,5.71428 0.67343,0.67344 2.18371,-0.67343 2.85714,0 0.67344,0.67344 -0.67343,2.18371 0,2.85715 1.42857,1.42857 7.14286,-1.42858 8.57143,0 0.67344,0.67343 -0.67344,2.1837 0,2.85714 0.67344,0.67343 2.18371,-0.67344 2.85714,0 0.67344,0.67343 0,1.90476 0,2.85714 0.95238,0 2.18371,-0.67343 2.85715,0 0.67343,0.67344 -0.85184,2.43123 0,2.85714 16.19047,0 0.95238,-1.90476 5.71428,2.85715 0.58411,0.5841 7.4386,-0.56642 8.57143,0 9.47595,9.47595 -2.69374,-1.34687 5.71429,2.85714 3.42857,1.71429 5.14285,6.85714 8.57142,8.57143 0.85184,0.42592 2.18371,-0.67344 2.85715,0 0.67343,0.67343 -0.67344,2.18371 0,2.85714 0.67343,0.67344 1.90476,0 2.85714,0 5.71429,0 11.42857,0 17.14286,0 0.95238,0 1.90476,0 2.85714,0 0.95238,0 2.18371,0.67344 2.85714,0 0.67344,-0.67343 -0.85183,-2.43122 0,-2.85714 1.70367,-0.85184 3.80953,0 5.71429,0 0.95238,0 2.18371,0.67343 2.85714,0 0.67344,-0.67344 -0.67343,-2.18371 0,-2.85714 0.67344,-0.67344 1.90476,0 2.85714,0 0.95239,0 1.90477,0 2.85715,0 6.35039,0 13.91901,-0.86872 20,0 2.98142,0.42591 5.60071,2.36202 8.57143,2.85714 3.87021,0.64503 15.2689,0 20,0 0.95238,0 2.1837,-0.67344 2.85714,0 0.67343,0.67343 -0.67344,2.18371 0,2.85714 0.0919,0.0919 7.87849,0 8.57143,0 6.66666,0 13.33333,0 20,0 0.95238,0 1.90476,0 2.85714,0 0.95238,0 2.00531,0.42592 2.85714,0 8.40803,-4.20401 -4.4351,-2.85714 8.57143,-2.85714"
       id="path3338"
       inkscape:connector-curvature="0" />
    <path
       style="fill:#ff0000;fill-rule:evenodd;stroke:#000000;stroke-width:1px;stroke-linecap:butt;stroke-linejoin:miter;stroke-opacity:1"
       d="m 400,460.93363 c 0.95238,-3.80952 2.08704,-7.57806 2.85714,-11.42857 1.26984,-6.3492 -0.31746,-0.31746 -2.85714,-2.85714 -0.11498,-0.11498 0,-10.37933 0,-11.42857 0,-1.34714 0.12949,-14.15623 0,-14.28572 -0.67344,-0.67343 -2.18371,0.67344 -2.85714,0 -1.42857,-1.42857 1.42857,-7.14285 0,-8.57143 -7.61905,0 0.95238,0.95239 -2.85715,-2.85714 -0.67343,-0.67343 -2.1837,0.67344 -2.85714,0 -1.34687,-1.34687 1.34687,-4.36741 0,-5.71428 -0.67343,-0.67344 -2.18371,0.67343 -2.85714,0 -0.67344,-0.67344 0.67343,-2.18371 0,-2.85715 -0.67344,-0.67343 -2.18371,0.67344 -2.85714,0 -0.67344,-0.67343 0.67343,-2.1837 0,-2.85714 -0.67344,-0.67343 -2.18371,0.67344 -2.85715,0 -1.34687,-1.34687 1.34687,-4.36742 0,-5.71429 -0.67343,-0.67343 -2.1837,0.67344 -2.85714,0 -0.67344,-0.67343 0.67344,-2.1837 0,-2.85714 -0.67344,-0.67343 -2.18371,0.67344 -2.85714,0 -0.67344,-0.67343 0.67343,-2.18371 0,-2.85714 -0.67344,-0.67344 -2.18371,0.67343 -2.85715,0 -0.67343,-0.67344 0.67344,-2.18371 0,-2.85714 -0.67343,-0.67344 -2.1837,0.67343 -2.85714,0 -1.34687,-1.34687 1.34687,-4.36742 0,-5.71429 -1.42857,-1.42857 -7.14286,1.42857 -8.57143,0 -0.67343,-0.67343 0,-1.90476 0,-2.85714 -0.95238,0 -2.1837,0.67343 -2.85714,0 -1.34687,-1.34687 1.34687,-4.36742 0,-5.71429 -1.34687,-1.34687 -4.36742,1.34687 -5.71429,0 -0.67343,-0.67343 0.67344,-2.18371 0,-2.85714 -1.34687,-1.34687 -4.36741,1.34687 -5.71428,0 -0.67344,-0.67344 0.67343,-2.18371 0,-2.85714 -0.67344,-0.67344 -1.90476,0 -2.85714,0 0,-0.95238 0.42591,-2.00531 0,-2.85715 -5.94538,-11.89074 0.19724,3.05439 -5.71429,-2.85714 -0.67344,-0.67343 0.67344,-2.18371 0,-2.85714 -0.67344,-0.67344 -2.18371,0.67343 -2.85714,0 0,-7.61905 0.95238,0.95238 -2.85715,-2.85715 -0.67343,-0.67343 0.67344,-2.1837 0,-2.85714 -0.67343,-0.67343 -2.1837,0.67344 -2.85714,0 -0.67343,-0.67343 0.67344,-2.18371 0,-2.85714 -0.67343,-0.67344 -2.18371,0.67343 -2.85714,0 -0.67344,-0.67344 0.67343,-2.18371 0,-2.85714 -0.67344,-0.67344 -2.18371,0.67343 -2.85714,0 -0.67344,-0.67344 0.67343,-2.18371 0,-2.85715 -0.67344,-0.67343 -2.18371,0.67344 -2.85715,0 -1.34687,-1.34687 1.34687,-4.36741 0,-5.71428 -0.67343,-0.67344 -2.1837,0.67343 -2.85714,0 -0.67344,-0.67344 0.67344,-2.18371 0,-2.85715 -0.67344,-0.67343 -2.18371,0.67344 -2.85714,0 -0.67344,-0.67343 0.67343,-2.1837 0,-2.85714 -0.67344,-0.67343 -2.18371,0.67344 -2.85715,0 -1.42857,-1.42857 1.42858,-7.14286 0,-8.57143 -0.67343,-0.67343 -2.1837,0.67344 -2.85714,0 -1.42857,-1.42857 1.42857,-7.14285 0,-8.57143 -7.61905,0 0.95238,0.95239 -2.85714,-2.85714 -0.67344,-0.67343 -2.18371,0.67344 -2.85714,0 -1.42858,-1.42857 1.42857,-7.14286 0,-8.57143 -0.67344,-0.67343 -2.18371,0.67344 -2.85715,0 -0.67343,-0.67343 0.67344,-2.1837 0,-2.85714 -0.67343,-0.67343 -2.1837,0.67344 -2.85714,0 -0.67344,-0.67343 0.67344,-2.18371 0,-2.85714 -5.91153,-5.91153 0.23109,9.0336 -5.71429,-2.85715 -0.42591,-0.85183 0.67344,-2.1837 0,-2.85714 -0.67343,-0.67343 -2.1837,0.67344 -2.85714,0 -0.67343,-0.67343 0.67344,-2.18371 0,-2.85714 -1.34687,-1.34687 -4.36741,1.34687 -5.71428,0 -0.67344,-0.67344 0.67343,-2.18371 0,-2.85714 -1.88236,-1.88236 -3.83194,1.88235 -5.71429,0 -5.91153,-5.91153 9.0336,0.23108 -2.85714,-5.71429 -7.03701,-3.5185 2.57924,8.29353 -8.57143,-2.85714 -0.67344,-0.67344 0.67343,-2.18371 0,-2.85715 -0.67344,-0.67343 -2.18371,0.67344 -2.85714,0 -1.34687,-1.34687 1.34687,-4.36741 0,-5.71428 -0.67344,-0.67344 -2.18371,0.67343 -2.85715,0 -0.11497,-0.11498 0,-10.37933 0,-11.42857 0,-0.95238 0,-1.90476 0,-2.85715 0,-0.95238 0.67344,-2.1837 0,-2.85714 -0.67343,-0.67343 -2.1837,-0.67343 -2.85714,0 -1.90099,1.90099 1.90099,3.8133 0,5.71429 -0.67344,0.67343 -2.18371,-0.67344 -2.85714,0 -0.44339,0.44339 0.37059,7.45965 0,8.57143 -6.89849,20.69547 0.82372,-4.5046 -5.71429,8.57142 -0.42592,0.85184 0.30117,1.95364 0,2.85715 -6.89849,20.69547 0.82373,-4.50459 -5.71428,8.57143 -0.42592,0.85183 0.67343,2.1837 0,2.85714 -0.67344,0.67343 -2.43123,-0.85184 -2.85715,0 -0.85183,1.70367 0.60234,3.90727 0,5.71428 -2.97268,8.91806 -1.90476,-0.95238 -5.71428,2.85715 -0.67344,0.67343 0.42591,2.00531 0,2.85714 -0.60234,1.20468 -2.25481,1.65247 -2.85715,2.85714 -0.85183,1.70367 1.34687,4.36742 0,5.71429 -0.67343,0.67343 -2.1837,-0.67344 -2.85714,0 -0.67343,0.67343 0.42592,2.00531 0,2.85714 -0.60234,1.20468 -2.2548,1.65247 -2.85714,2.85714 -0.42592,0.85184 0.67343,2.18371 0,2.85715 -0.67344,0.67343 -2.18371,-0.67344 -2.85714,0 -1.34687,1.34687 0.85183,4.01061 0,5.71428 -0.60234,1.20468 -2.43123,1.57939 -2.85715,2.85715 -0.60234,1.80701 0,3.80952 0,5.71428 0,0.95238 0.42592,2.00531 0,2.85714 -0.60234,1.20468 -2.43122,1.57939 -2.85714,2.85715 0,13.00653 1.34687,0.1634 -2.85714,8.57143 -0.42592,0.85183 0,1.90476 0,2.85714 -0.95238,0.95238 -2.25481,1.65246 -2.85715,2.85714 -0.42591,0.85184 0.67344,2.18371 0,2.85714 -0.67343,0.67344 -2.1837,-0.67343 -2.85714,0 -0.67343,0.67344 0.30117,1.95364 0,2.85715 -0.67343,2.0203 -2.18371,3.69398 -2.85714,5.71428 -0.30117,0.90351 0.30117,1.95364 0,2.85715 -3.45266,10.35797 -1.35561,2.03341 -5.71429,8.57142 -3.28306,4.9246 -2.85714,4.31882 -2.85714,8.57143 0,0.95238 0.42592,2.00531 0,2.85715 -0.60234,1.20467 -2.2548,1.65246 -2.85714,2.85714 -0.42592,0.85183 0,1.90476 0,2.85714 0,0.95238 0,1.90476 0,2.85714 0,0.95239 0.67343,2.18371 0,2.85715 -0.67344,0.67343 -1.90476,0 -2.85715,0 -0.95238,0 -1.90476,0 -2.85714,0 -6.66667,0 -13.33333,0 -20,0 -0.95238,0 -1.90476,0 -2.85714,0 -0.95238,0 -2.18371,-0.67344 -2.85714,0 -0.67344,0.67343 0.67343,2.18371 0,2.85714 -0.67344,0.67344 -2.18371,-0.67343 -2.85715,0 -0.68751,0.68752 0.68752,10.74105 0,11.42857 -0.67343,0.67344 -2.1837,-0.67343 -2.85714,0 -1.42857,1.42857 1.42857,7.14286 0,8.57143 -0.67344,0.67344 -2.18371,-0.67343 -2.85714,0 -0.67344,0.67344 0.67343,2.18371 0,2.85714 -0.67344,0.67344 -2.18371,-0.67343 -2.85715,0 -0.67343,0.67344 0.67344,2.18371 0,2.85715 -0.67343,0.67343 -2.1837,-0.67344 -2.85714,0 -0.67343,0.67343 0.67344,2.1837 0,2.85714 -0.67343,0.67343 -2.18371,-0.67344 -2.85714,0 -0.67344,0.67343 0.67343,2.18371 0,2.85714 -0.67344,0.67344 -2.18371,-0.67343 -2.85714,0 -0.67344,0.67344 0,1.90476 0,2.85714 0,0.95239 -0.67344,2.18371 0,2.85715 0.67343,0.67343 2.1837,-0.67344 2.85714,0 2.8185,2.8185 -5.85451,5.71428 2.85714,5.71428"
       id="path3340"
       inkscape:connector-curvature="0" />
    <path
       style="fill:#00ffff;fill-rule:evenodd;stroke:#000000;stroke-width:1px;stroke-linecap:butt;stroke-linejoin:miter;stroke-opacity:1"
       d="m 245.71429,515.21935 c 0,9.52381 0,19.04762 0,28.57143 0,0.95238 0,1.90476 0,2.85714 0,0.95238 0.95238,2.85714 0,2.85714 -0.95239,0 -0.67344,-2.18371 0,-2.85714 0.11497,-0.11498 10.37932,0 11.42857,0 7.61904,0 15.23809,0 22.85714,0 6.66667,0 13.33333,0 20,0 0.95238,0 2.18371,0.67343 2.85714,0 0.67344,-0.67344 0,-1.90476 0,-2.85714 0,-0.95238 0,-1.90477 0,-2.85715 0,-7.61904 0,-15.23809 0,-22.85714 0,-1.90476 0,-3.80952 0,-5.71429 0,-0.95238 -0.95238,-2.85714 0,-2.85714 0.95238,0 0.67344,2.18371 0,2.85714 -0.68751,0.68752 -10.74105,-0.68751 -11.42857,0 -6.70051,6.70051 8.80252,0 2.85714,0 -2.12958,0 -3.69398,2.18371 -5.71428,2.85715 -1.79829,0.59943 -11.71039,0 -14.28572,0 -0.95238,0 -2.1837,0.67343 -2.85714,0 -0.67343,-0.67344 0.67344,-2.18371 0,-2.85715 -0.11497,-0.11497 -10.37932,0 -11.42857,0 -0.95238,0 -2.18371,0.67344 -2.85714,0 -0.67344,-0.67343 0.92394,-3.08812 0,-2.85714 -4.13201,1.033 -7.61905,3.80953 -11.42857,5.71429 z"
       id="path3342"
       inkscape:connector-curvature="0" />
    <path
       style="fill:#c8b7b7;fill-rule:evenodd;stroke:#000000;stroke-width:1px;stroke-linecap:butt;stroke-linejoin:miter;stroke-opacity:1"
       d="m -97.142857,149.50506 c 3.809524,-4.7619 7.116483,-9.97362 11.428571,-14.28571 0.906822,-0.90682 15.51008,-8.02717 17.142857,-8.57143 0.903508,-0.30117 2.183708,-0.67344 2.857143,0 0.673435,0.67343 -0.425917,2.00531 0,2.85714 0.602339,1.20468 2.110034,1.73648 2.857143,2.85714 1.181283,1.77193 1.904762,3.80953 2.857143,5.71429 1.904762,3.80952 4.5442,7.33327 5.714286,11.42857 0.784917,2.74721 0,5.71429 0,8.57143 0.952381,2.85714 1.904762,5.71429 2.857143,8.57143"
       id="path3344"
       inkscape:connector-curvature="0" />
  </g>
</svg>
