<?xml version="1.0" encoding="UTF-8" standalone="no"?>
<!-- Created with Inkscape (http://www.inkscape.org/) -->

<svg
   xmlns:dc="http://purl.org/dc/elements/1.1/"
   xmlns:cc="http://creativecommons.org/ns#"
   xmlns:rdf="http://www.w3.org/1999/02/22-rdf-syntax-ns#"
   xmlns:svg="http://www.w3.org/2000/svg"
   xmlns="http://www.w3.org/2000/svg"
   xmlns:sodipodi="http://sodipodi.sourceforge.net/DTD/sodipodi-0.dtd"
   xmlns:inkscape="http://www.inkscape.org/namespaces/inkscape"
   width="200.80299mm"
   height="137.28096mm"
   viewBox="0 0 711.50667 486.4286"
   id="svg2"
   version="1.1"
   inkscape:version="0.91 r13725"
   sodipodi:docname="04-three-houses.svg">
  <defs
     id="defs4" />
  <sodipodi:namedview
     id="base"
     pagecolor="#ffffff"
     bordercolor="#666666"
     borderopacity="1.0"
     inkscape:pageopacity="0.0"
     inkscape:pageshadow="2"
     inkscape:zoom="0.35"
     inkscape:cx="340.87358"
     inkscape:cy="400.00002"
     inkscape:document-units="px"
     inkscape:current-layer="layer1"
     showgrid="false"
     fit-margin-top="0"
     fit-margin-left="0"
     fit-margin-right="0"
     fit-margin-bottom="0"
     inkscape:window-width="1311"
     inkscape:window-height="744"
     inkscape:window-x="55"
     inkscape:window-y="24"
     inkscape:window-maximized="1" />
  <metadata
     id="metadata7">
    <rdf:RDF>
      <cc:Work
         rdf:about="">
        <dc:format>image/svg+xml</dc:format>
        <dc:type
           rdf:resource="http://purl.org/dc/dcmitype/StillImage" />
        <dc:title></dc:title>
      </cc:Work>
    </rdf:RDF>
  </metadata>
  <g
     inkscape:label="Layer 1"
     inkscape:groupmode="layer"
     id="layer1"
     transform="translate(-34.126418,-445.93363)">
    <rect
       style="fill:#aa4400"
       id="rect3336"
       width="171.42857"
       height="242.85715"
       x="77.14286"
       y="669.50507" />
    <rect
       style="fill:#808000"
       id="rect3338"
       width="102.85714"
       height="317.14285"
       x="340"
       y="615.21936" />
    <rect
       style="fill:#008000"
       id="rect3340"
       width="191.42857"
       height="225.71428"
       x="525.71429"
       y="706.64795" />
    <path
       style="fill:none;fill-rule:evenodd;stroke:#000000;stroke-width:1px;stroke-linecap:butt;stroke-linejoin:miter;stroke-opacity:1"
       d="m 34.285714,666.64792 c 7.256724,-2.43902 11.299315,4.2534 17.142857,5.71428 1.847891,0.46198 3.866396,-0.46197 5.714286,0 2.066005,0.51651 3.626052,2.4395 5.714286,2.85715 2.801659,0.56033 5.714286,0 8.571428,0 8.571429,0 17.142858,0 25.714286,0 2.857143,0 5.753163,-0.46971 8.571433,0 2.97071,0.49512 5.60071,2.36202 8.57142,2.85714 3.83608,0.63935 18.52384,0 22.85715,0 12.38095,0 24.7619,0 37.14285,0 9.52381,0 19.04762,0 28.57143,0 1.96592,0 15.4792,0.55455 17.14286,0 11.12693,-3.70898 0.26729,-2.85714 11.42857,-2.85714 16.19048,0 32.38095,0 48.57143,0 1.90476,0 3.80952,0 5.71429,0 0.95238,0 2.0053,0.42592 2.85714,0 1.20468,-0.60234 1.65246,-2.25481 2.85714,-2.85715 0.85184,-0.42591 2.85714,-0.95238 2.85714,0 0,0.95239 -3.80952,0 -2.85714,0 1.90476,0 4.01062,0.85184 5.71429,0 0.85183,-0.42591 -0.67344,-2.1837 0,-2.85714 0.67343,-0.67343 2.1837,0.67344 2.85714,0 0.40293,-0.40293 0.29304,-7.98535 0,-8.57143 -0.60234,-1.20467 -2.2548,-1.65246 -2.85714,-2.85714 -0.42592,-0.85183 0.42591,-2.00531 0,-2.85714 -0.60234,-1.20468 -2.25481,-1.65247 -2.85715,-2.85715 -4.20401,-8.40802 6.61881,3.76167 -2.85714,-5.71428 -2.85714,-2.85714 -5.71428,-5.71429 -8.57143,-8.57143 -0.95238,-0.95238 -2.11003,-1.73648 -2.85714,-2.85714 -1.18128,-1.77193 -1.3513,-4.20844 -2.85714,-5.71429 -1.50585,-1.50584 -4.20844,-1.35129 -5.71429,-2.85714 -6.93943,-6.93943 0.84962,-4.19549 -5.71428,-8.57143 -22.85715,-15.23809 10.47619,10.47619 -8.57143,-8.57143 -6.93944,-6.93943 -4.1955,0.84962 -8.57143,-5.71428 -1.18128,-1.77193 -1.67586,-3.94236 -2.85714,-5.71429 -1.64362,-2.46543 -6.33976,-6.33975 -8.57143,-8.57143 -0.95238,-0.95238 -2.25481,-1.65246 -2.85715,-2.85714 -0.42591,-0.85184 0.67344,-2.18371 0,-2.85714 -0.67343,-0.67344 -2.0053,0.42591 -2.85714,0 C 230.88166,583.51732 220.27346,572.90912 220,572.3622 c -0.42592,-0.85183 0.42592,-2.0053 0,-2.85714 -1.20468,-2.40935 -4.50961,-3.30493 -5.71429,-5.71428 -0.56641,-1.13284 0.58411,-7.98733 0,-8.57143 -0.67343,-0.67344 -2.1837,0.67343 -2.85714,0 -0.12949,-0.12949 0,-12.93858 0,-14.28572 0,-0.95238 0.67344,-2.1837 0,-2.85714 -0.67343,-0.67343 -2.18371,0.67344 -2.85714,0 -1.34687,-1.34687 0.85183,-4.01061 0,-5.71429 -0.60234,-1.20467 -2.25481,-1.65246 -2.85714,-2.85714 -0.98677,-1.97352 1.00291,-13.2828 0,-14.28571 -0.67344,-0.67344 -2.18371,0.67343 -2.85715,0 -0.67343,-0.67344 0.67344,-2.18371 0,-2.85715 -0.67343,-0.67343 -2.1837,0.67344 -2.85714,0 -1.90099,-1.90099 1.90099,-3.81329 0,-5.71428 -0.67344,-0.67344 -2.18371,0.67343 -2.85714,0 -0.67344,-0.67344 0.67343,-2.18371 0,-2.85714 -0.67344,-0.67344 -2.18371,0.67343 -2.85715,0 -0.67343,-0.67344 0.67344,-2.18371 0,-2.85715 -0.67343,-0.67343 -2.1837,0.67344 -2.85714,0 -1.34687,-1.34687 1.34687,-4.36741 0,-5.71428 -0.67343,-0.67344 -2.18371,0.67343 -2.85714,0 -1.42857,-1.42857 1.42857,-7.14286 0,-8.57143 -0.67344,-0.67344 -2.18371,0.67343 -2.85714,0 -1.42858,-1.42857 1.42857,-7.14286 0,-8.57143 -0.67344,-0.67343 -2.18371,0.67344 -2.85715,0 -1.34687,-1.34687 1.34687,-4.36742 0,-5.71429 -0.67343,-0.67343 -2.1837,0.67344 -2.85714,0 -5.91153,-5.91153 9.0336,0.23109 -2.85714,-5.71428 -0.58608,-0.29304 -8.1685,-0.40293 -8.57143,0 -0.67344,0.67343 0.67343,2.18371 0,2.85714 -0.67344,0.67344 -2.18371,-0.67343 -2.85714,0 -1.34687,1.34687 0.85183,4.01062 0,5.71429 -0.60234,1.20467 -2.25481,1.65246 -2.85715,2.85714 -0.42591,0.85184 0.42592,2.00531 0,2.85714 -1.20467,2.40936 -4.50961,3.30493 -5.71428,5.71429 -0.42592,0.85183 0.30117,1.95363 0,2.85714 -0.67344,2.02031 -2.18371,3.69398 -2.85715,5.71429 -0.30117,0.90351 0.42592,2.00531 0,2.85714 -0.60233,1.20468 -2.2548,1.65247 -2.85714,2.85714 -0.42592,0.85184 0.52829,2.06472 0,2.85715 -1.90476,1.90476 -3.80952,3.80952 -5.71428,5.71428 0,0.95238 0.42591,2.00531 0,2.85714 -0.60234,1.20468 -2.25481,1.65247 -2.85715,2.85715 -1.52079,3.04158 1.52079,2.6727 0,5.71428 -0.60234,1.20468 -2.2548,1.65247 -2.85714,2.85715 -0.42592,0.85183 0.42592,2.0053 0,2.85714 -0.60234,1.20468 -2.2548,1.65246 -2.85714,2.85714 -0.42592,0.85184 0.42591,2.00531 0,2.85714 -0.60234,1.20468 -2.25481,1.65247 -2.85715,2.85715 -0.42591,0.85183 0,1.90476 0,2.85714 -0.95238,1.90476 -1.67586,3.94236 -2.85714,5.71429 -0.95238,0.95238 -1.90476,1.90476 -2.85714,2.85714 -0.95238,0 -2.18371,-0.67344 -2.85714,0 -1.50585,1.50585 -1.67586,3.94236 -2.85715,5.71428 -0.74711,1.12067 -2.11003,1.73648 -2.85714,2.85715 -1.18128,1.77192 -1.3513,4.20844 -2.85714,5.71428 -1.50585,1.50585 -4.20844,1.3513 -5.71429,2.85715 -0.67343,0.67343 0.42592,2.0053 0,2.85714 -0.60234,1.20468 -2.2548,1.65246 -2.85714,2.85714 -0.85184,1.70367 0.85183,4.01062 0,5.71429 -0.60234,1.20467 -2.25481,1.65246 -2.85714,2.85714 -0.85184,1.70367 1.34687,4.36742 0,5.71429 -0.67344,0.67343 -2.18371,-0.67344 -2.85715,0 -0.11497,0.11497 0,10.37932 0,11.42857 0,0.95238 0,1.90476 0,2.85714 0,0.95238 0.67344,2.18371 0,2.85714 -0.67343,0.67344 -2.1837,-0.67343 -2.85714,0 -0.673435,0.67344 0,1.90477 0,2.85715 0,1.34713 0.12949,14.15622 0,14.28571 -0.673435,0.67344 -2.183708,-0.67343 -2.857143,0 -1.428571,1.42857 1.428572,7.14286 0,8.57143 -0.673435,0.67343 -2.183708,-0.67344 -2.857143,0 -1.34687,1.34687 1.34687,4.36741 0,5.71428 -0.673435,0.67344 -2.183708,-0.67343 -2.857143,0 -5.91153,5.91153 9.033599,-0.23108 -2.857142,5.71429 -0.851836,0.42592 -2.183708,-0.67343 -2.857143,0 -1.34687,1.34687 0.851835,4.01062 0,5.71429 -5.945372,11.89074 0.197244,-3.05439 -5.714286,2.85714 -0.673435,0.67343 0.673435,2.18371 0,2.85714 -0.673435,0.67344 -2.183708,-0.67343 -2.857143,0 -0.673435,0.67344 0,1.90476 0,2.85714 0,1.34714 0.129491,14.15623 0,14.28572 -3.809524,3.80952 -2.857143,-4.76191 -2.857143,2.85714"
       id="path3342"
       inkscape:connector-curvature="0" />
    <path
       style="fill:none;fill-rule:evenodd;stroke:#000000;stroke-width:1px;stroke-linecap:butt;stroke-linejoin:miter;stroke-opacity:1"
       d="m 494.28571,706.64792 c 4.42043,1.98168 17.45409,-1.35076 22.85715,0 2.066,0.5165 3.64828,2.34064 5.71428,2.85714 1.84789,0.46197 3.80953,0 5.71429,0 4.7619,0 9.52381,0 14.28571,0 2.42471,0 15.56778,-0.52503 17.14286,0 1.27775,0.42592 1.57939,2.43123 2.85714,2.85714 2.64689,0.8823 11.54797,-0.91258 14.28572,0 2.0203,0.67344 3.69398,2.18371 5.71428,2.85715 1.7933,0.59776 9.12847,0 11.42857,0 7.61905,0 15.2381,0 22.85715,0 18.09524,0 36.19047,0 54.28571,0 20.95238,0 41.90476,0 62.85714,0 0.69294,0 8.47955,0.0919 8.57143,0 0.67344,-0.67344 -0.67343,-2.18371 0,-2.85715 0.67344,-0.67343 2.18371,0.67344 2.85715,0 0.67343,-0.67343 -0.67344,-2.1837 0,-2.85714 0.67343,-0.67343 2.1837,0.67344 2.85714,0 0.67343,-0.67343 0,-1.90476 0,-2.85714 0,-1.90476 0.60234,-3.90727 0,-5.71429 -2.35516,-7.06546 -7.12887,-8.55277 -11.42857,-14.28571 -1.27776,-1.70367 -1.67586,-3.94236 -2.85715,-5.71429 -0.7471,-1.12066 -1.73647,-2.11003 -2.85714,-2.85714 -1.77192,-1.18128 -4.533,-1.08522 -5.71428,-2.85714 -1.05658,-1.58486 0.60233,-3.90727 0,-5.71429 -1.09399,-3.28195 -6.82122,-3.96407 -8.57143,-5.71428 -3.47996,-3.47996 -1.33835,-6.38346 -5.71429,-8.57143 -0.85183,-0.42592 -2.00531,0.42592 -2.85714,0 -1.20468,-0.60234 -1.90476,-1.90476 -2.85714,-2.85715 -3.26901,-3.269 -3.38221,-3.98454 -8.57143,-5.71428 -0.90351,-0.30117 -2.00531,0.42592 -2.85715,0 -2.40935,-1.20468 -3.15878,-4.86245 -5.71428,-5.71429 -1.80702,-0.60234 -3.90727,0.60234 -5.71429,0 -1.93471,-0.6449 -6.38889,-7.48016 -8.57143,-8.57143 -0.85183,-0.42591 -2.0053,0.42592 -2.85714,0 -2.81151,-1.40575 -8.61706,-10.02281 -11.42857,-11.42857 -0.85184,-0.42591 -2.18371,0.67344 -2.85714,0 -1.34687,-1.34687 1.34687,-4.36741 0,-5.71428 -0.67344,-0.67344 -2.18371,0.67343 -2.85715,0 -1.34687,-1.34687 1.34687,-4.36742 0,-5.71429 -0.67343,-0.67343 -2.1837,0.67344 -2.85714,0 -0.67343,-0.67343 0.67344,-2.18371 0,-2.85714 -0.67343,-0.67344 -2.18371,0.67343 -2.85714,0 -1.42857,-1.42857 1.42857,-7.14286 0,-8.57143 -0.67344,-0.67343 -2.18371,0.67344 -2.85714,0 -0.67344,-0.67343 0.30117,-1.95363 0,-2.85714 -0.67344,-2.02031 -2.18371,-3.69398 -2.85715,-5.71429 -0.60234,-1.80701 1.34687,-4.36741 0,-5.71428 -0.67343,-0.67344 -2.1837,0.67343 -2.85714,0 -1.34687,-1.34687 0.85184,-4.01062 0,-5.71429 -0.60234,-1.20468 -2.2548,-1.65247 -2.85714,-2.85714 -1.14286,-2.28572 1.14285,-6.28572 0,-8.57143 -0.60234,-1.20468 -2.25481,-1.65247 -2.85715,-2.85714 -0.56641,-1.13284 0.58411,-7.98733 0,-8.57143 -0.67343,-0.67344 -2.1837,0.67343 -2.85714,0 -1.34687,-1.34687 1.34687,-4.36742 0,-5.71429 -0.67343,-0.67343 -2.18371,0.67344 -2.85714,0 -1.34687,-1.34687 1.34687,-4.36741 0,-5.71428 -1.90099,-1.90099 -3.8133,1.90099 -5.71429,0 -0.67343,-0.67344 0.67344,-2.18371 0,-2.85715 -1.34687,-1.34687 -4.36741,1.34687 -5.71428,0 -0.67344,-0.67343 0.67343,-2.1837 0,-2.85714 -1.50585,-1.50585 -3.94236,-1.67586 -5.71429,-2.85714 -9.47595,-9.47595 2.69374,1.34687 -5.71428,-2.85715 -1.20468,-0.60233 -1.65247,-2.2548 -2.85715,-2.85714 -0.86952,-0.43476 -7.28469,0 -8.57143,0 -0.95238,0 -2.1837,-0.67343 -2.85714,0 -0.67343,0.67344 0.67344,2.18371 0,2.85714 -0.67343,0.67344 -2.18371,-0.67343 -2.85714,0 -0.67344,0.67344 0.67343,2.18371 0,2.85715 -0.67344,0.67343 -2.18371,-0.67344 -2.85714,0 -0.67344,0.67343 0.67343,2.18371 0,2.85714 -0.67344,0.67344 -1.90477,0 -2.85715,0 0,0.95238 0.67344,2.18371 0,2.85714 -5.91153,5.91153 0.23109,-9.0336 -5.71428,2.85715 -0.42592,0.85183 0.42591,2.0053 0,2.85714 -9.47595,9.47595 1.34687,-2.69374 -2.85715,5.71428 -1.20467,2.40936 -4.5096,3.30494 -5.71428,5.71429 -0.91124,1.82248 0.76385,13.52186 0,14.28571 -0.67344,0.67344 -2.18371,-0.67343 -2.85714,0 -1.42858,1.42858 1.42857,7.14286 0,8.57143 -0.67344,0.67344 -2.18371,-0.67343 -2.85715,0 -0.67343,0.67344 0.42592,2.00531 0,2.85715 -6.53801,13.07602 1.18421,-12.12405 -5.71428,8.57142 -0.85715,2.57143 0.85714,6 0,8.57143 -0.67344,2.02031 -2.18371,3.69398 -2.85715,5.71429 -0.66967,2.00903 0.78318,13.50254 0,14.28571 -0.67343,0.67344 -2.43122,-0.85183 -2.85714,0 -0.92421,1.84844 1.02633,10.40225 0,11.42857 -0.67343,0.67344 -2.43122,-0.85183 -2.85714,0 -0.53592,1.07184 0,15.44179 0,17.14286 0,0.95238 0.67343,2.18371 0,2.85714 -0.67344,0.67344 -2.18371,-0.67343 -2.85714,0 -1.34687,1.34687 0.85183,4.01062 0,5.71429 -0.60234,1.20468 -2.25481,1.65247 -2.85715,2.85714 -0.85183,1.70367 1.34687,4.36742 0,5.71429 -0.67343,0.67343 -2.1837,-0.67344 -2.85714,0 -1.42857,1.42857 1.42857,7.14286 0,8.57143 -1.34687,1.34687 -4.36742,-1.34687 -5.71429,0 -0.67343,0.67343 0.67344,2.18371 0,2.85714 -0.67343,0.67344 -2.1837,-0.67343 -2.85714,0 -1.34687,1.34687 1.34687,4.36742 0,5.71429 -0.67343,0.67343 -2.18371,-0.67344 -2.85714,0 -0.67344,0.67343 0.67343,2.1837 0,2.85714 -1.34687,1.34687 -4.36742,-1.34687 -5.71429,0 0,7.61905 0.95238,-0.95238 -2.85714,2.85714 -0.67344,0.67344 0,1.90476 0,2.85714 0,0.69294 0.0919,8.47955 0,8.57143 -0.67344,0.67344 -1.90476,0 -2.85714,0"
       id="path3344"
       inkscape:connector-curvature="0" />
    <path
       style="fill:#ff0000;fill-rule:evenodd;stroke:#000000;stroke-width:1px;stroke-linecap:butt;stroke-linejoin:miter;stroke-opacity:1"
       d="m 308.57143,615.21935 c -0.81702,13.4687 10.91854,-3.36718 14.28571,0 0.67344,0.67343 -0.67343,2.18371 0,2.85714 0.84538,0.84538 9.65882,-0.88488 11.42857,0 1.20468,0.60234 1.57939,2.43123 2.85715,2.85714 4.28571,1.42857 10,-1.42857 14.28571,0 1.27775,0.42592 1.65247,2.25481 2.85714,2.85715 1.27137,0.63568 10.12176,-0.43561 11.42858,0 1.27775,0.42591 1.65246,2.2548 2.85714,2.85714 0.85183,0.42592 1.90476,0 2.85714,0 0.95238,0 1.90476,0 2.85714,0 5.71429,0 11.42858,0 17.14286,0 18.09524,0 36.19048,0 54.28572,0 1.04924,0 11.31359,0.11497 11.42857,0 0.67343,-0.67344 -0.67344,-2.18371 0,-2.85714 0.67343,-0.67344 1.90476,0 2.85714,0 6.66667,0 13.33333,0 20,0 2.85714,0 5.71429,0 8.57143,0 0.95238,0 2.85714,-0.95238 2.85714,0 0,0.95238 -2.18371,0.67343 -2.85714,0 -0.67344,-0.67344 0.67343,-2.18371 0,-2.85715 -0.67344,-0.67343 -2.18371,0.67344 -2.85714,0 -0.67344,-0.67343 0.42591,-2.0053 0,-2.85714 -0.60234,-1.20468 -1.90477,-1.90476 -2.85715,-2.85714 -1.90476,-1.90476 -3.80952,-3.80953 -5.71428,-5.71429 -0.95238,-0.95238 -2.11004,-1.73648 -2.85715,-2.85714 -15.23809,-22.85714 10.47619,10.47619 -8.57142,-8.57143 -0.18309,-0.18308 -5.35949,-10.89637 -5.71429,-11.42857 -0.74711,-1.12066 -1.90476,-1.90476 -2.85714,-2.85714 -0.95238,-1.90477 -1.67586,-3.94236 -2.85715,-5.71429 -0.7471,-1.12066 -2.2548,-1.65247 -2.85714,-2.85714 -0.42592,-0.85184 0,-1.90476 0,-2.85715 -0.95238,-1.90476 -1.67586,-3.94236 -2.85714,-5.71428 -1.73756,-2.60634 -3.97673,-3.10795 -5.71429,-5.71429 -0.95238,-1.90476 -1.90476,-3.80952 -2.85714,-5.71428 0,-0.95238 0.42592,-2.00531 0,-2.85715 -0.60234,-1.20467 -2.2548,-1.65246 -2.85714,-2.85714 -0.42592,-0.85183 0.42591,-2.00531 0,-2.85714 -1.20468,-2.40936 -4.50961,-3.30493 -5.71429,-5.71429 -0.42592,-0.85183 0.42592,-2.0053 0,-2.85714 -6.53801,-13.07602 1.18421,12.12405 -5.71428,-8.57143 -0.30117,-0.90351 0,-1.90476 0,-2.85714 -0.95239,-0.95238 -2.25481,-1.65247 -2.85715,-2.85714 -0.42591,-0.85184 0.42592,-2.00531 0,-2.85715 -0.60234,-1.20467 -2.2548,-1.65246 -2.85714,-2.85714 -0.85184,-1.70367 0.85184,-4.01061 0,-5.71429 -0.60234,-1.20467 -2.2548,-1.65246 -2.85714,-2.85714 -0.85184,-1.70367 1.34687,-4.36741 0,-5.71428 -0.67344,-0.67344 -2.18371,0.67343 -2.85715,0 -1.34687,-1.34687 0.85184,-4.01062 0,-5.71429 -1.71428,-3.42857 -6.85714,-5.14286 -8.57142,-8.57143 -0.42592,-0.85183 0.42591,-2.00531 0,-2.85714 -0.60234,-1.20468 -1.90477,-1.90476 -2.85715,-2.85714 -0.95238,-0.95238 -1.90476,-1.90477 -2.85714,-2.85715 -0.95238,-0.95238 -1.90476,-1.90476 -2.85714,-2.85714 -0.95238,-0.95238 -2.25481,-1.65247 -2.85715,-2.85714 -0.85183,-1.70367 1.34687,-4.36742 0,-5.71429 -0.67343,-0.67343 -2.1837,0.67344 -2.85714,0 -1.34687,-1.34687 1.34687,-4.36741 0,-5.71428 -1.92,-1.92 -3.79428,1.92 -5.71428,0 -0.67344,-0.67344 0.67343,-2.18371 0,-2.85715 -0.67344,-0.67343 -2.18371,0.67344 -2.85715,0 -1.34687,-1.34687 1.34687,-4.36741 0,-5.71428 -0.67343,-0.67344 -2.1837,0.67343 -2.85714,0 -1.42857,-1.42857 1.42857,-7.14286 0,-8.57143 -0.28571,-0.28572 -8.28571,-0.28572 -8.57143,0 -0.67343,0.67343 0,1.90476 0,2.85714 -0.95238,0 -2.18371,-0.67343 -2.85714,0 -1.34687,1.34687 1.34687,4.36742 0,5.71429 -0.67344,0.67343 -2.00531,-0.42592 -2.85714,0 -1.20468,0.60234 -1.90477,1.90476 -2.85715,2.85714 -0.95238,0.95238 -2.11003,1.73648 -2.85714,2.85714 -3.51648,5.27473 -5.05495,11.86814 -8.57143,17.14286 -7.04201,10.56302 1.1564,-7.48272 -2.85714,8.57143 -0.5165,2.066 -1.90476,3.80952 -2.85714,5.71428 -1.90477,3.80953 -4.36742,7.38797 -5.71429,11.42858 -0.90351,2.71052 0.90351,5.8609 0,8.57142 -0.42592,1.27776 -2.2548,1.65247 -2.85714,2.85715 -0.43477,0.86952 0,7.28469 0,8.57143 0,7.61904 0,15.23809 0,22.85714 0,0.95238 0,1.90476 0,2.85714 0,0.95238 0.67343,2.18371 0,2.85714 -0.67344,0.67344 -2.43123,-0.85183 -2.85715,0 -0.33593,0.67187 0,9.55166 0,11.42858 0,9.52381 0,19.04762 0,28.57142 0,0.95239 0,1.90477 0,2.85715 0,0.95238 0.67344,2.18371 0,2.85714 -0.67343,0.67344 -2.1837,-0.67343 -2.85714,0 -1.88235,1.88235 1.88235,3.83193 0,5.71429 -0.67343,0.67343 -2.18371,-0.67344 -2.85714,0 -0.0919,0.0919 0,7.87849 0,8.57142 0,0.95239 -0.67344,2.18371 0,2.85715 0.67343,0.67343 2.18371,-0.67344 2.85714,0 0.67344,0.67343 0,1.90476 0,2.85714"
       id="path3346"
       inkscape:connector-curvature="0" />
    <path
       style="fill:#ff0000"
       d="m 249.28571,670.64792 c 0,-1.84127 -30.47619,-2.85714 -85.71428,-2.85714 l -85.714287,0 0,-8.26575 c 0,-4.71164 1.84277,-8.97288 4.285714,-9.91033 2.357143,-0.90452 4.285714,-3.61351 4.285714,-6.01997 0,-2.40646 1.317537,-4.37538 2.92786,-4.37538 3.987512,0 8.408236,-12.29796 11.811099,-32.85715 3.44305,-20.80198 9.18319,-36.63473 15.93676,-43.95756 C 131.26539,547.04989 135,542.5313 135,540.7522 c 0,-5.93294 35.54617,-72.96142 38.69249,-72.96142 2.06475,0 6.44547,7.19337 9.73494,15.98527 3.28948,8.7919 8.93586,20.0419 12.54754,25 5.92478,8.13354 9.42672,19.21095 14.80205,46.82225 1.86572,9.5836 18.169,29.103 58.82949,70.43469 36.63015,37.23482 36.44321,47.47207 -0.86688,47.47207 -11.06452,0 -19.45392,-1.23213 -19.45392,-2.85714 z"
       id="path3348"
       inkscape:connector-curvature="0" />
    <path
       style="fill:none;fill-rule:evenodd;stroke:#000000;stroke-width:1px;stroke-linecap:butt;stroke-linejoin:miter;stroke-opacity:1"
       d="m 528.57143,672.3622 c 3.32053,7.82618 2.85714,14.83744 2.85714,22.85715 0,0.95238 -0.67343,2.18371 0,2.85714 0.67344,0.67344 2.18371,-0.67343 2.85714,0 1.42858,1.42857 -1.42857,7.14286 0,8.57143 1.34687,1.34687 4.86245,-1.70367 5.71429,0 0.85184,1.70367 0,3.80952 0,5.71428 0,4.76191 0,9.52381 0,14.28572"
       id="path3350"
       inkscape:connector-curvature="0" />
    <path
       style="fill:#ff0000"
       d="m 717.85714,709.21935 c 0,-3.71991 -12.02646,-4.28572 -91.09534,-4.28572 l -91.09534,0 -1.72279,-6.42857 c -2.83384,-10.57445 -2.03921,-18.86001 2.04151,-21.2866 5.40257,-3.21262 11.85651,-23.42083 17.61081,-55.14197 2.70808,-14.92857 7.34612,-32.37022 10.30675,-38.75921 2.96064,-6.389 5.38297,-14.26728 5.38297,-17.5073 0,-3.24002 1.92858,-7.49152 4.28572,-9.44778 2.35714,-1.95625 4.28571,-4.69624 4.28571,-6.08886 0,-4.50978 15.09947,-19.62542 19.60442,-19.62542 4.44427,0 25.76379,13.33132 29.68669,18.56339 1.18154,1.57585 4.85227,11.86518 8.15718,22.86518 12.32712,41.02938 25.11487,57.51335 57.70012,74.37797 11.04477,5.71627 30.49148,22.41848 30.6566,26.33006 0.0499,1.18201 4.5436,6.58085 9.98602,11.99741 11.65338,11.59803 14.55214,18.85996 9.80947,24.57453 -4.7457,5.71821 -25.6005,5.60652 -25.6005,-0.13711 z"
       id="path3352"
       inkscape:connector-curvature="0" />
    <rect
       style="fill:#000080"
       id="rect3354"
       width="48.57143"
       height="25.714285"
       x="134.28572"
       y="746.64795" />
    <rect
       style="fill:#000080"
       id="rect3356"
       width="37.142857"
       height="60"
       x="377.14285"
       y="669.50507" />
    <rect
       style="fill:#000080"
       id="rect3358"
       width="51.42857"
       height="65.714287"
       x="625.71429"
       y="738.07648" />
    <rect
       style="fill:#2b1100"
       id="rect3360"
       width="54.285713"
       height="111.42857"
       x="142.85715"
       y="795.21936" />
    <rect
       style="fill:#2b1100"
       id="rect3362"
       width="57.142857"
       height="154.28572"
       x="362.85715"
       y="778.07648" />
    <rect
       style="fill:#2b1100"
       id="rect3364"
       width="68.571426"
       height="111.42857"
       x="574.28571"
       y="818.07648" />
  </g>
</svg>
