<?xml version="1.0" encoding="UTF-8" standalone="no"?>
<!-- Created with Inkscape (http://www.inkscape.org/) -->

<svg
   xmlns:dc="http://purl.org/dc/elements/1.1/"
   xmlns:cc="http://creativecommons.org/ns#"
   xmlns:rdf="http://www.w3.org/1999/02/22-rdf-syntax-ns#"
   xmlns:svg="http://www.w3.org/2000/svg"
   xmlns="http://www.w3.org/2000/svg"
   xmlns:sodipodi="http://sodipodi.sourceforge.net/DTD/sodipodi-0.dtd"
   xmlns:inkscape="http://www.inkscape.org/namespaces/inkscape"
   width="138.97572mm"
   height="103.15317mm"
   viewBox="0 0 492.43367 365.50335"
   id="svg3403"
   version="1.1"
   inkscape:version="0.91 r13725"
   sodipodi:docname="07-block-and-tent.svg">
  <defs
     id="defs3405">
    <inkscape:perspective
       sodipodi:type="inkscape:persp3d"
       inkscape:vp_x="-2.8571429 : 391.89537 : 1"
       inkscape:vp_y="0 : 999.99996 : 0"
       inkscape:vp_z="741.23737 : 391.89537 : 1"
       inkscape:persp3d-origin="369.19011 : 216.50168 : 1"
       id="perspective3411" />
  </defs>
  <sodipodi:namedview
     id="base"
     pagecolor="#ffffff"
     bordercolor="#666666"
     borderopacity="1.0"
     inkscape:pageopacity="0.0"
     inkscape:pageshadow="2"
     inkscape:zoom="0.35"
     inkscape:cx="323.57143"
     inkscape:cy="415.28572"
     inkscape:document-units="px"
     inkscape:current-layer="layer1"
     showgrid="false"
     fit-margin-top="0"
     fit-margin-left="0"
     fit-margin-right="0"
     fit-margin-bottom="0"
     inkscape:window-width="1311"
     inkscape:window-height="744"
     inkscape:window-x="55"
     inkscape:window-y="24"
     inkscape:window-maximized="1" />
  <metadata
     id="metadata3408">
    <rdf:RDF>
      <cc:Work
         rdf:about="">
        <dc:format>image/svg+xml</dc:format>
        <dc:type
           rdf:resource="http://purl.org/dc/dcmitype/StillImage" />
        <dc:title></dc:title>
      </cc:Work>
    </rdf:RDF>
  </metadata>
  <g
     inkscape:label="Layer 1"
     inkscape:groupmode="layer"
     id="layer1"
     transform="translate(-51.428573,-582.14457)">
    <g
       sodipodi:type="inkscape:box3d"
       id="g3413"
       style="fill:#2b0000"
       inkscape:perspectiveID="#perspective3411"
       inkscape:corner0="6.2342516 : -0.24345087 : 0 : 1"
       inkscape:corner7="1.6574803 : -0.69609348 : 0.25 : 1">
      <path
         sodipodi:type="inkscape:box3dside"
         id="path3423"
         style="fill:#afafde;fill-rule:evenodd;stroke:none;stroke-width:1px;stroke-linecap:butt;stroke-linejoin:round;stroke-opacity:1"
         inkscape:box3dsidetype="13"
         d="M 100,676.21935 188.57143,883.68994 240.51456,855.49221 123.13745,672.19534 Z"
         points="188.57143,883.68994 240.51456,855.49221 123.13745,672.19534 100,676.21935 " />
      <path
         sodipodi:type="inkscape:box3dside"
         id="path3415"
         style="fill:#353564;fill-rule:evenodd;stroke:none;stroke-width:1px;stroke-linecap:butt;stroke-linejoin:round;stroke-opacity:1"
         inkscape:box3dsidetype="6"
         d="m 100,613.64998 0,62.56937 23.13745,-4.02401 0,-60.47934 z"
         points="100,676.21935 123.13745,672.19534 123.13745,611.716 100,613.64998 " />
      <path
         sodipodi:type="inkscape:box3dside"
         id="path3425"
         style="fill:#e9e9ff;fill-rule:evenodd;stroke:none;stroke-width:1px;stroke-linecap:butt;stroke-linejoin:round;stroke-opacity:1"
         inkscape:box3dsidetype="11"
         d="m 123.13745,611.716 117.37711,88.09412 0,155.68209 -117.37711,-183.29687 z"
         points="240.51456,699.81012 240.51456,855.49221 123.13745,672.19534 123.13745,611.716 " />
      <path
         sodipodi:type="inkscape:box3dside"
         id="path3417"
         style="fill:#4d4d9f;fill-rule:evenodd;stroke:none;stroke-width:1px;stroke-linecap:butt;stroke-linejoin:round;stroke-opacity:1"
         inkscape:box3dsidetype="5"
         d="m 100,613.64998 88.57143,99.71223 51.94313,-13.55209 L 123.13745,611.716 Z"
         points="188.57143,713.36221 240.51456,699.81012 123.13745,611.716 100,613.64998 " />
      <path
         sodipodi:type="inkscape:box3dside"
         id="path3421"
         style="fill:#d7d7ff;fill-rule:evenodd;stroke:none;stroke-width:1px;stroke-linecap:butt;stroke-linejoin:round;stroke-opacity:1"
         inkscape:box3dsidetype="14"
         d="m 188.57143,713.36221 0,170.32773 51.94313,-28.19773 0,-155.68209 z"
         points="188.57143,883.68994 240.51456,855.49221 240.51456,699.81012 188.57143,713.36221 " />
      <path
         sodipodi:type="inkscape:box3dside"
         id="path3419"
         style="fill:#8686bf;fill-rule:evenodd;stroke:none;stroke-width:1px;stroke-linecap:butt;stroke-linejoin:round;stroke-opacity:1"
         inkscape:box3dsidetype="3"
         d="m 100,613.64998 88.57143,99.71223 0,170.32773 L 100,676.21935 Z"
         points="188.57143,713.36221 188.57143,883.68994 100,676.21935 100,613.64998 " />
    </g>
    <path
       style="fill:#ffff00;fill-rule:evenodd;stroke:#000000;stroke-width:1px;stroke-linecap:butt;stroke-linejoin:miter;stroke-opacity:1"
       d="m 340,946.64792 c 0,-3.80952 -0.74711,-7.69303 0,-11.42857 0.26414,-1.32072 2.43123,-1.57939 2.85714,-2.85715 0.60234,-1.80701 -0.46197,-3.86639 0,-5.71428 1.54876,-6.19504 7.02267,-8.09068 8.57143,-14.28572 0.46197,-1.84789 -0.46197,-3.86639 0,-5.71428 0.5165,-2.06601 2.06623,-3.73701 2.85714,-5.71429 1.11852,-2.79628 1.73863,-5.77514 2.85715,-8.57143 0.79091,-1.97727 2.43949,-3.62605 2.85714,-5.71428 0.56033,-2.80166 -0.56033,-5.76977 0,-8.57143 0.41765,-2.08823 2.34064,-3.64828 2.85714,-5.71429 0.46198,-1.84789 -0.37355,-3.84651 0,-5.71428 0.59064,-2.95321 1.90476,-5.71429 2.85715,-8.57143 0.95238,-2.85714 1.73862,-5.77514 2.85714,-8.57143 2.66473,-6.66183 4.36058,-6.16347 5.71428,-14.28571 0.46972,-2.81827 -0.56033,-5.76977 0,-8.57143 0.41765,-2.08823 2.06624,-3.73701 2.85715,-5.71429 1.11851,-2.79628 1.51027,-5.87769 2.85714,-8.57143 0.60234,-1.20467 2.53048,-1.55048 2.85714,-2.85714 0.69296,-2.77183 -0.56033,-5.76977 0,-8.57143 0.41765,-2.08823 2.34064,-3.64828 2.85715,-5.71428 0.46197,-1.84789 -0.46198,-3.8664 0,-5.71429 0.5165,-2.066 2.34064,-3.64828 2.85714,-5.71428 0.46197,-1.84789 -0.46197,-3.8664 0,-5.71429 1.66885,-6.67542 6.26169,-7.35649 8.57143,-14.28571 0.60234,-1.80702 -0.85184,-4.01062 0,-5.71429 0.60234,-1.20468 2.2548,-1.65247 2.85714,-2.85714 0.42592,-0.85184 -0.67344,-2.18371 0,-2.85715 0.67344,-0.67343 2.18371,0.67344 2.85714,0 0.67344,-0.67343 -0.30117,-1.95363 0,-2.85714 0.67344,-2.0203 2.18371,-3.69398 2.85715,-5.71428 0.30117,-0.90351 -0.67344,-2.18371 0,-2.85715 0.67343,-0.67343 2.43122,0.85184 2.85714,0 2.5555,-2.25387 -1.27775,-6.01592 0,-8.57143 0.60234,-1.20467 2.2548,-1.65246 2.85714,-2.85714 0.42592,-0.85183 -0.30117,-1.95363 0,-2.85714 0.67344,-2.02031 2.18371,-3.69398 2.85714,-5.71429 0.30117,-0.9035 -0.42591,-2.0053 0,-2.85714 0.60234,-1.20468 2.25481,-1.65247 2.85715,-2.85714 0.42591,-0.85184 -0.30117,-1.95364 0,-2.85715 0.67343,-2.0203 2.1837,-3.69398 2.85714,-5.71428 0.60234,-1.80702 -0.85184,-4.01062 0,-5.71429 3.53058,-7.06115 2.85714,0.98623 2.85714,-5.71428 0,-11.16129 -0.85183,-0.30164 2.85715,-11.42857 0.30117,-0.90351 -0.30117,-1.95364 0,-2.85715 0.67343,-2.0203 2.1837,-3.69398 2.85714,-5.71428 0.30117,-0.90351 -0.42592,-2.00531 0,-2.85715 0.60234,-1.20467 2.43122,-1.57939 2.85714,-2.85714 1.30038,-3.90112 -1.30037,-13.24173 0,-17.14286 3.53058,-10.59173 2.85714,3.48272 2.85714,-5.71428 0,-6.66667 0,-13.33333 0,-20 0,-2.85714 0,-5.71429 0,-8.57143 0,-0.95238 -0.95238,-2.85714 0,-2.85714 0.95239,0 0,1.90476 0,2.85714 0,1.90476 0,3.80952 0,5.71429 0,2.85714 -1.27775,6.01592 0,8.57142 1.20468,2.40936 4.32837,3.40443 5.71429,5.71429 1.5495,2.58251 1.90476,5.71429 2.85714,8.57143 0.95238,2.85714 1.90476,5.71428 2.85715,8.57143 0.95238,2.85714 1.51027,5.87769 2.85714,8.57143 1.53567,3.07133 4.6284,5.31378 5.71428,8.57142 0.90351,2.71053 -0.56033,5.76977 0,8.57143 0.41765,2.08824 2.34065,3.64828 2.85715,5.71429 0.46197,1.84789 -0.60234,3.90727 0,5.71428 0.42591,1.27776 2.43122,1.57939 2.85714,2.85715 0.60234,1.80701 -0.60234,3.90727 0,5.71428 0.42592,1.27776 2.43123,1.57939 2.85714,2.85715 1.30038,3.90112 -1.30037,13.24173 0,17.14285 0.42592,1.27776 2.25481,1.65247 2.85715,2.85715 0.89788,1.79577 -0.89789,9.63279 0,11.42857 0.60233,1.20467 2.2548,1.65246 2.85714,2.85714 0.42592,0.85184 0,1.90476 0,2.85714 0,1.90477 -0.60234,3.90727 0,5.71429 0.42592,1.27775 2.2548,1.65246 2.85714,2.85714 0.42592,0.85184 -0.42592,2.00531 0,2.85714 0.60234,1.20468 2.43123,1.57939 2.85714,2.85715 0.43561,1.30682 -0.63568,10.15721 0,11.42857 0.60234,1.20468 2.25481,1.65246 2.85715,2.85714 0.42591,0.85184 0,1.90476 0,2.85714 0,1.90477 -0.46198,3.8664 0,5.71429 0.5165,2.066 2.1837,3.69398 2.85714,5.71429 0.30117,0.9035 -0.30117,1.95363 0,2.85714 1.34687,4.04061 4.68128,7.29656 5.71429,11.42857 0.46197,1.84789 -0.46198,3.8664 0,5.71429 0.5165,2.066 2.34064,3.64828 2.85714,5.71428 0.46197,1.84789 -0.46197,3.8664 0,5.71429 0.5165,2.066 2.43949,3.62605 2.85714,5.71428 0.56033,2.80166 -0.56033,5.76977 0,8.57143 0.83529,4.17647 4.36742,7.38796 5.71429,11.42857 0.30117,0.90351 -0.23099,1.9332 0,2.85715 0.73044,2.92177 2.1267,5.64965 2.85714,8.57142 0.23099,0.92395 -0.30117,1.95364 0,2.85715 0.67344,2.0203 2.34064,3.64828 2.85714,5.71428 0.46198,1.84789 -0.46197,3.8664 0,5.71429 2.0716,8.28638 2.22908,3.34361 5.71429,8.57143 5.41265,-0.32537 1.90476,6.66666 2.85714,8.57143 0.60234,1.20467 2.43123,1.57939 2.85714,2.85714 0.60234,1.80701 -0.60233,3.90727 0,5.71428 0.42592,1.27776 2.25481,1.65247 2.85715,2.85715 0.42591,0.85183 -0.42592,2.00531 0,2.85714 0.60234,1.20468 2.2548,1.65247 2.85714,2.85714 0.85184,1.70367 -1.34687,4.36742 0,5.71429 0.67344,0.67343 2.18371,-0.67344 2.85714,0 0.67344,0.67343 -0.42591,2.00531 0,2.85714 0.60234,1.20468 2.25481,1.65247 2.85715,2.85714 0.42591,0.85184 -0.67344,2.18371 0,2.85715 0.67343,0.67343 2.1837,-0.67344 2.85714,0 0.67343,0.67343 -0.67344,2.18371 0,2.85714 0.67343,0.67344 2.18371,-0.67343 2.85714,0 0.67344,0.67344 -0.67343,2.18371 0,2.85714 0.67344,0.67344 2.18371,-0.67343 2.85714,0 1.34687,1.34687 -1.34687,4.36742 0,5.71429 0.67344,0.67343 2.18371,-0.67344 2.85715,0 0.67343,0.67343 -0.67344,2.18371 0,2.85714 0.67343,0.67344 2.1837,-0.67343 2.85714,0 0.67344,0.67344 -0.67344,2.18371 0,2.85714 0.67344,0.67344 2.18371,-0.67343 2.85714,0 0.67344,0.67344 0.67344,2.18371 0,2.85715 -0.0919,0.0919 -7.87849,0 -8.57143,0 -6.66666,0 -13.33333,0 -20,0 -1.90476,0 -3.84651,0.37355 -5.71428,0 -2.95321,-0.59064 -5.60071,-2.36203 -8.57143,-2.85715 -2.81827,-0.46971 -5.71429,0 -8.57143,0 -5.71428,0 -11.42857,0 -17.14286,0 -0.95238,0 -1.90476,0 -2.85714,0 -0.95238,0 -2.18371,0.67344 -2.85714,0 -0.67344,-0.67343 0.67343,-2.1837 0,-2.85714 -0.67344,-0.67343 -1.90476,0 -2.85714,0 -0.95239,0 -1.90477,0 -2.85715,0 -2.80675,0 -15.25315,0.6299 -17.14285,0 -2.02031,-0.67343 -3.64829,-2.34064 -5.71429,-2.85714 -3.75661,-0.93915 -10.73729,1.18281 -14.28571,0 -1.27776,-0.42592 -1.65247,-2.25481 -2.85715,-2.85714 -0.86952,-0.43477 -7.28469,0 -8.57143,0 -5.71428,0 -11.42857,0 -17.14285,0 -5.71429,0 -11.42857,0 -17.14286,0 -0.95238,0 -2.18371,-0.67344 -2.85714,0 -0.67344,0.67343 0.67343,2.1837 0,2.85714 -1.34687,1.34687 -4.01062,-0.85184 -5.71429,0 -1.20468,0.60234 -1.65246,2.2548 -2.85714,2.85714 -1.70367,0.85184 -4.36742,-1.34687 -5.71429,0 -0.67343,0.67344 0.67344,2.18371 0,2.85714 -1.34687,1.34687 -4.36741,-1.34687 -5.71428,0 -0.67344,0.67344 0.67343,2.18371 0,2.85715 -1.86408,1.86408 -3.85021,-1.86408 -5.71429,0 -0.67343,0.67343 0,1.90476 0,2.85714 -3.80952,2.85714 -7.61905,5.71429 -11.42857,8.57143 z"
       id="path3427"
       inkscape:connector-curvature="0" />
  </g>
</svg>
