<?xml version="1.0" encoding="UTF-8" standalone="no"?>
<!-- Created with Inkscape (http://www.inkscape.org/) -->

<svg
   xmlns:dc="http://purl.org/dc/elements/1.1/"
   xmlns:cc="http://creativecommons.org/ns#"
   xmlns:rdf="http://www.w3.org/1999/02/22-rdf-syntax-ns#"
   xmlns:svg="http://www.w3.org/2000/svg"
   xmlns="http://www.w3.org/2000/svg"
   xmlns:sodipodi="http://sodipodi.sourceforge.net/DTD/sodipodi-0.dtd"
   xmlns:inkscape="http://www.inkscape.org/namespaces/inkscape"
   width="127.87632mm"
   height="229.51181mm"
   viewBox="0 0 453.10507 813.23082"
   id="svg3448"
   version="1.1"
   inkscape:version="0.91 r13725"
   sodipodi:docname="08-hourglass-house.svg">
  <defs
     id="defs3450" />
  <sodipodi:namedview
     id="base"
     pagecolor="#ffffff"
     bordercolor="#666666"
     borderopacity="1.0"
     inkscape:pageopacity="0.0"
     inkscape:pageshadow="2"
     inkscape:zoom="0.35"
     inkscape:cx="267.43365"
     inkscape:cy="406.71937"
     inkscape:document-units="px"
     inkscape:current-layer="layer1"
     showgrid="false"
     fit-margin-top="0"
     fit-margin-left="0"
     fit-margin-right="0"
     fit-margin-bottom="0"
     inkscape:window-width="1311"
     inkscape:window-height="744"
     inkscape:window-x="55"
     inkscape:window-y="24"
     inkscape:window-maximized="1" />
  <metadata
     id="metadata3453">
    <rdf:RDF>
      <cc:Work
         rdf:about="">
        <dc:format>image/svg+xml</dc:format>
        <dc:type
           rdf:resource="http://purl.org/dc/dcmitype/StillImage" />
        <dc:title></dc:title>
      </cc:Work>
    </rdf:RDF>
  </metadata>
  <g
     inkscape:label="Layer 1"
     inkscape:groupmode="layer"
     id="layer1"
     transform="translate(-107.56635,-125.85072)">
    <path
       style="fill:#00ff00;fill-rule:evenodd;stroke:#000000;stroke-width:1px;stroke-linecap:butt;stroke-linejoin:miter;stroke-opacity:1"
       d="m 168.57143,429.50506 c 8.6601,5.49213 0.72755,13.61124 2.85714,20 0.42592,1.27775 1.90476,1.90476 2.85714,2.85714 3.26901,3.26901 3.98455,3.38221 5.71429,8.57143 0.90351,2.71053 -0.69296,5.7996 0,8.57143 3.44925,13.79699 1.35777,-0.1416 5.71429,8.57143 1.14285,2.28571 -1.14286,6.28571 0,8.57143 0.60233,1.20468 2.2548,1.65246 2.85714,2.85714 0.42592,0.85184 -0.42592,2.00531 0,2.85714 0.60234,1.20468 2.2548,1.65247 2.85714,2.85715 1.14286,2.28571 -1.14286,6.28571 0,8.57143 0.60234,1.20467 2.25481,1.65246 2.85714,2.85714 0.42592,0.85183 -0.67343,2.18371 0,2.85714 0.67344,0.67344 2.18371,-0.67343 2.85715,0 0.5841,0.58411 -0.56642,7.4386 0,8.57143 1.20467,2.40935 4.50961,3.30493 5.71428,5.71429 0.42592,0.85183 -0.30117,1.95363 0,2.85714 0.67344,2.0203 2.18371,3.69398 2.85715,5.71428 0.65507,1.96524 -0.84289,6.88566 0,8.57143 0.60233,1.20468 2.2548,1.65247 2.85714,2.85715 0.42592,0.85183 -0.67344,2.1837 0,2.85714 0.67343,0.67343 2.18371,-0.67344 2.85714,0 1.34687,1.34687 -0.85183,4.01061 0,5.71428 0.60234,1.20468 2.25481,1.65247 2.85714,2.85715 1.14286,2.28571 -1.14285,6.28571 0,8.57143 0.60234,1.20467 2.25481,1.65246 2.85715,2.85714 0.56641,1.13283 -0.58411,7.98732 0,8.57143 0.67343,0.67343 2.1837,-0.67344 2.85714,0 1.42857,1.42857 -1.42857,7.14285 0,8.57143 0.67344,0.67343 2.18371,-0.67344 2.85714,0 0.67344,0.67343 -0.42591,2.0053 0,2.85714 0.60234,1.20468 2.25481,1.65246 2.85715,2.85714 0.56641,1.13284 -0.58411,7.98733 0,8.57143 0.67343,0.67344 2.1837,-0.67343 2.85714,0 0.0919,0.0919 0,7.8785 0,8.57143 0,17.14286 0,34.28571 0,51.42857 0,12.38095 0,24.76191 0,37.14286 0,2.917 0.46269,18.61192 0,20 -0.42592,1.27775 -2.43123,1.57939 -2.85714,2.85714 -0.49064,1.47192 0,16.97765 0,20 0,0.95238 0.30117,1.95364 0,2.85714 -0.67344,2.02031 -2.18371,3.69398 -2.85715,5.71429 -0.66967,2.00903 0.78317,13.50254 0,14.28571 -0.67343,0.67344 -2.1837,-0.67343 -2.85714,0 -0.67344,0.67344 0,1.90477 0,2.85715 0,2.02514 0.36936,16.40414 0,17.14285 -0.60234,1.20468 -2.2548,1.65247 -2.85714,2.85715 -1.14286,2.28571 1.14285,6.28571 0,8.57142 -1.20468,2.40936 -4.50961,3.30494 -5.71429,5.71429 -0.42592,0.85184 0.42592,2.00531 0,2.85714 -0.60234,1.20468 -2.2548,1.65247 -2.85714,2.85715 -0.85184,1.70367 0.60234,3.90727 0,5.71428 -0.67344,2.02031 -2.18371,3.69398 -2.85714,5.71429 -0.30117,0.90351 0.42591,2.00531 0,2.85714 -0.60234,1.20468 -2.11004,1.73648 -2.85715,2.85714 -1.18128,1.77193 -1.67586,3.94236 -2.85714,5.71429 -0.74711,1.12066 -2.2548,1.65246 -2.85714,2.85714 -0.42592,0.85184 0.42591,2.00531 0,2.85714 -0.60234,1.20468 -2.25481,1.65247 -2.85715,2.85715 -0.42591,0.85183 0.42592,2.00531 0,2.85714 -0.60233,1.20468 -2.11003,1.73648 -2.85714,2.85714 -1.18128,1.77193 -1.67586,3.94236 -2.85714,5.71429 -0.74711,1.12066 -2.25481,1.65246 -2.85714,2.85714 -0.42592,0.85184 0.42591,2.00531 0,2.85714 -0.60234,1.20468 -2.11004,1.73648 -2.85715,2.85715 -1.18128,1.77192 -1.67586,3.94236 -2.85714,5.71428 -1.49422,2.24133 -4.50961,3.30493 -5.71429,5.71429 -0.42591,0.85183 0,1.90476 0,2.85714 -0.95238,1.90476 -1.67586,3.94236 -2.85714,5.71429 -3.52525,5.28788 -5.04618,0.42641 -8.57143,5.71428 -1.05657,1.58486 1.05657,4.12943 0,5.71429 -1.18128,1.77192 -3.94236,1.67586 -5.71428,2.85714 -2.46543,1.64362 -6.33976,6.33976 -8.57143,8.57143 -0.95238,0.95238 -1.90476,1.90476 -2.85714,2.85714 -0.95239,0.95238 -2.25481,1.65247 -2.85715,2.85715 -0.42591,0.85183 0.67344,2.1837 0,2.85714 -0.67343,0.67343 -2.1837,-0.67344 -2.85714,0 -0.67344,0.67343 0.67344,2.18371 0,2.85714 -0.67344,0.67344 -2.18371,-0.67343 -2.85714,0 -0.67344,0.67344 0.67343,2.18371 0,2.85714 -0.67344,0.67344 -2.18371,-0.67343 -2.85715,0 -1.34687,1.34687 1.34687,4.36742 0,5.71429 -1.34687,1.34687 -4.36741,-1.34687 -5.71428,0 -0.67344,0.67344 0.67343,2.18371 0,2.85714 -0.67344,0.67344 -2.18371,-0.67343 -2.85714,0 -0.67344,0.67344 0.67343,2.18371 0,2.85715 -5.91153,5.91153 0.23108,-9.03361 -5.71429,2.85714 0,7.61905 0.95238,-0.95238 -2.85714,2.85714 -0.67344,0.67344 0.67343,2.18371 0,2.85714 -1.34687,1.34687 -4.36742,-1.34687 -5.71429,0 -0.67343,0.67344 0.67344,2.18371 0,2.85715 -0.67343,0.67343 -2.18371,-0.67344 -2.85714,0 -0.67344,0.67343 -0.67344,2.18371 0,2.85714 0.67343,0.67344 2.18371,0.67344 2.85714,0 0.67344,-0.67343 -0.67343,-2.18371 0,-2.85714 0.67344,-0.67344 1.90476,0 2.85714,0 1.34714,0 14.15623,0.12949 14.28572,0 0.67343,-0.67344 -0.67344,-2.18371 0,-2.85715 0.67343,-0.67343 1.90476,0 2.85714,0 1.98726,0 13.25248,0.51662 14.28572,0 1.20467,-0.60233 1.65246,-2.2548 2.85714,-2.85714 0.86952,-0.43476 7.28469,0 8.57143,0 0.95238,0 1.90476,0 2.85714,0 0.95238,0 2.18371,0.67344 2.85714,0 0.67344,-0.67343 -0.67343,-2.18371 0,-2.85714 0.67344,-0.67344 1.90476,0 2.85715,0 0.95238,0 1.90476,0 2.85714,0 11.42857,0 22.85714,0 34.28571,0 26.66667,0 53.33334,0 80,0 1.34714,0 14.15623,0.12949 14.28572,0 0.67343,-0.67344 -0.67344,-2.18371 0,-2.85714 0.67343,-0.67344 1.90476,0 2.85714,0 3.20841,0 17.95741,0.68086 20,0 2.02031,-0.67344 3.64828,-2.34065 5.71429,-2.85715 2.00182,-0.50045 16.10834,0 17.14285,0 13.33334,0 26.66667,0 40,0 6.66667,0 13.33334,0 20,0 1.90476,0 3.80953,0 5.71429,0 0.95238,0 2.00531,0.42592 2.85714,0 1.20468,-0.60234 1.57939,-2.43122 2.85714,-2.85714 2.71053,-0.90351 5.71429,0 8.57143,0 7.61905,0 15.2381,0 22.85715,0 19.04761,0 38.09523,0 57.14285,0 0.69294,0 8.47955,0.0919 8.57143,0 1.34687,-1.34687 -1.34687,-4.36742 0,-5.71429 0.67344,-0.67343 2.18371,0.67344 2.85714,0 0.28572,-0.28571 0.28572,-8.28571 0,-8.57142 -0.67343,-0.67344 -2.1837,0.67343 -2.85714,0 -1.34687,-1.34687 1.34687,-4.36742 0,-5.71429 -5.91153,-5.91153 0.23109,9.0336 -5.71428,-2.85714 -0.42592,-0.85184 0.42591,-2.00531 0,-2.85715 -0.60234,-1.20467 -2.25481,-1.65246 -2.85715,-2.85714 -0.42591,-0.85183 0.67344,-2.18371 0,-2.85714 -0.67343,-0.67344 -2.0053,0.42592 -2.85714,0 -1.20468,-0.60234 -1.90476,-1.90476 -2.85714,-2.85714 -0.95238,-0.95238 -2.25481,-1.65247 -2.85715,-2.85715 -0.42591,-0.85183 0.67344,-2.1837 0,-2.85714 -0.67343,-0.67343 -2.1837,0.67344 -2.85714,0 -0.67343,-0.67343 0.67344,-2.18371 0,-2.85714 -1.34687,-1.34687 -4.36741,1.34687 -5.71428,0 -0.67344,-0.67344 0.42591,-2.00531 0,-2.85715 -0.60234,-1.20467 -2.25481,-1.65246 -2.85715,-2.85714 -0.42591,-0.85183 0.67344,-2.18371 0,-2.85714 -0.67343,-0.67344 -2.1837,0.67343 -2.85714,0 -0.67344,-0.67344 0,-1.90476 0,-2.85714 -0.95238,0 -2.00531,0.42591 -2.85714,0 -1.20468,-0.60234 -1.90476,-1.90477 -2.85715,-2.85715 -0.95238,-0.95238 -1.90476,-1.90476 -2.85714,-2.85714 -2.23167,-2.23167 -6.92781,-6.106 -8.57143,-8.57143 -1.18128,-1.77192 -1.35129,-4.20844 -2.85714,-5.71428 -0.67344,-0.67344 -1.90476,0 -2.85714,0 -0.95238,-0.95238 -2.11004,-1.73648 -2.85715,-2.85715 -1.18128,-1.77192 -1.67586,-3.94236 -2.85714,-5.71428 -0.74711,-1.12067 -2.2548,-1.65247 -2.85714,-2.85715 -0.42592,-0.85183 0.67343,-2.1837 0,-2.85714 -0.67344,-0.67343 -2.18371,0.67344 -2.85714,0 -1.50585,-1.50584 -1.67586,-3.94236 -2.85715,-5.71428 -0.74711,-1.12067 -2.2548,-1.65247 -2.85714,-2.85715 -0.42592,-0.85183 0.67344,-2.1837 0,-2.85714 -0.67344,-0.67343 -2.43123,0.85184 -2.85714,0 -0.85184,-1.70367 0,-3.80952 0,-5.71429 0,-0.95238 0.67343,-2.1837 0,-2.85714 -0.67344,-0.67343 -2.18371,0.67344 -2.85715,0 -1.34687,-1.34687 0.85184,-4.01061 0,-5.71428 -0.60233,-1.20468 -2.2548,-1.65247 -2.85714,-2.85715 -0.42592,-0.85183 0.67344,-2.1837 0,-2.85714 -0.67343,-0.67343 -2.18371,0.67344 -2.85714,0 -0.78178,-0.78178 0.77498,-9.87861 0,-11.42857 -0.60234,-1.20468 -2.43123,-1.57939 -2.85714,-2.85714 -0.90351,-2.71053 0,-5.71429 0,-8.57143 0,-6.66667 0,-13.33334 0,-20 0,-1.90476 0.46197,-3.8664 0,-5.71429 -0.51651,-2.066 -2.18371,-3.69398 -2.85715,-5.71428 -0.6299,-1.88971 0,-14.3361 0,-17.14286 0,-9.52381 0,-19.04762 0,-28.57143 0,-24.7619 0,-49.52381 0,-74.28571 0,-1.90477 0,-3.80953 0,-5.71429 0,-0.95238 -0.30117,-1.95363 0,-2.85714 0.67344,-2.02031 2.34064,-3.64828 2.85715,-5.71429 0.54319,-2.17276 0,-11.89317 0,-14.28571 0,-0.95238 -0.30117,-1.95364 0,-2.85715 0.67343,-2.0203 2.1837,-3.69398 2.85714,-5.71428 0.30117,-0.90351 -0.42592,-2.00531 0,-2.85714 0.60234,-1.20468 2.43122,-1.57939 2.85714,-2.85715 1.12122,-3.36365 -0.94776,-13.35179 0,-17.14285 0.5165,-2.06601 2.18371,-3.69398 2.85714,-5.71429 0.60234,-1.80702 0,-3.80952 0,-5.71429 0,-2.56194 -0.45291,-21.49839 0,-22.85714 0.42592,-1.27775 2.25481,-1.65246 2.85715,-2.85714 0.85183,-1.70367 -0.60234,-3.90727 0,-5.71429 0.67343,-2.0203 2.1837,-3.69398 2.85714,-5.71428 0.30117,-0.90351 -0.42592,-2.00531 0,-2.85715 0.60234,-1.20467 2.43123,-1.57939 2.85714,-2.85714 0.60234,-1.80701 0,-3.80952 0,-5.71428 0,-0.95238 -0.42591,-2.00531 0,-2.85715 0.60234,-1.20467 2.43123,-1.57939 2.85715,-2.85714 0.4356,-1.30682 -0.63569,-10.15721 0,-11.42857 0.60233,-1.20468 2.2548,-1.65247 2.85714,-2.85714 0.85183,-1.70367 -0.85184,-4.01062 0,-5.71429 0.60234,-1.20468 2.11003,-1.73648 2.85714,-2.85714 5.41265,0.32537 1.90476,-6.66667 2.85714,-8.57143 0.60234,-1.20468 2.25481,-1.65247 2.85715,-2.85714 0.77498,-1.54997 -0.78178,-10.6468 0,-11.42858 0.67343,-0.67343 2.1837,0.67344 2.85714,0 1.90099,-1.90099 -1.90099,-3.81329 0,-5.71428 1.88235,-1.88235 3.83193,1.88235 5.71429,0 0.67343,-0.67344 -0.67344,-2.18371 0,-2.85714 0.67343,-0.67344 2.0053,0.42591 2.85714,0 1.20468,-0.60234 1.65246,-2.25481 2.85714,-2.85715 0.85184,-0.42591 2.00531,0.42592 2.85714,0 3.42858,-1.71428 5.14286,-6.85714 8.57143,-8.57143 0.85184,-0.42591 2.00531,0.42592 2.85715,0 1.20467,-0.60233 1.65246,-2.2548 2.85714,-2.85714 0.85183,-0.42592 2.18371,0.67344 2.85714,0 1.34687,-1.34687 -1.34687,-4.36741 0,-5.71428 0.67344,-0.67344 2.85714,-0.95238 2.85714,0 0,0.95238 -1.90476,0 -2.85714,0 -2.3001,0 -9.63527,0.59776 -11.42857,0 -2.02031,-0.67344 -3.69398,-2.18371 -5.71429,-2.85715 -1.80701,-0.60234 -3.80952,0 -5.71428,0 -6.66667,0 -13.33333,0 -20,0 -17.14286,0 -34.28572,0 -51.42857,0 -7.61905,0 -15.2381,0 -22.85715,0 -2.3001,0 -9.63527,-0.59776 -11.42857,0 -2.0203,0.67344 -3.69398,2.18371 -5.71428,2.85715 -1.96524,0.65507 -6.88566,-0.84289 -8.57143,0 -1.20468,0.60233 -1.65247,2.2548 -2.85714,2.85714 -1.79578,0.89789 -9.6328,-0.89789 -11.42858,0 -1.20467,0.60234 -1.57939,2.43122 -2.85714,2.85714 -1.53602,0.51201 -9.00957,0 -11.42857,0 -9.52381,0 -19.04762,0 -28.57143,0 -11.42857,0 -22.85714,0 -34.28571,0 -2.69097,0 -12.6604,-0.54177 -14.28572,0 -1.27775,0.42592 -1.90476,1.90476 -2.85714,2.85714 -2.85714,0 -5.71429,0 -8.57143,0 -7.61905,0 -15.23809,0 -22.85714,0 -1.28674,0 -7.7019,-0.43476 -8.57143,0 -1.20468,0.60234 -1.65247,2.25481 -2.85714,2.85715 -1.54997,0.77498 -10.6468,-0.78178 -11.42857,0 -0.67344,0.67343 0.95238,2.85714 0,2.85714 -0.95239,0 0.95238,-2.85714 0,-2.85714 -1.34687,0 -2.25481,1.65246 -2.85715,2.85714 -0.42591,0.85184 0.95238,2.85714 0,2.85714 -0.95238,0 0.95238,-2.85714 0,-2.85714 -1.34687,0 -1.65246,2.2548 -2.85714,2.85714 -1.70367,0.85184 -4.36742,-1.34687 -5.71429,0 -0.67343,0.67344 0.67344,2.18371 0,2.85715 -0.67343,0.67343 -2.85714,0.95238 -2.85714,0 0,-0.95238 1.90476,0 2.85714,0"
       id="path3456"
       inkscape:connector-curvature="0" />
    <rect
       style="fill:#000080"
       id="rect3458"
       width="40"
       height="45.714287"
       x="205.71428"
       y="452.36221" />
    <rect
       style="fill:#000080"
       id="rect3460"
       width="40"
       height="54.285713"
       x="294.28571"
       y="475.21936" />
    <rect
       style="fill:#000080"
       id="rect3462"
       width="40"
       height="51.42857"
       x="254.28572"
       y="560.93365" />
    <rect
       style="fill:#000080"
       id="rect3464"
       width="25.714285"
       height="80"
       x="354.28571"
       y="589.50507" />
    <rect
       style="fill:#000080"
       id="rect3466"
       width="45.714287"
       height="42.857143"
       x="265.71429"
       y="695.21936" />
    <rect
       style="fill:#000080"
       id="rect3468"
       width="34.285713"
       height="80"
       x="357.14285"
       y="715.21936" />
    <rect
       style="fill:#000080"
       id="rect3470"
       width="57.142857"
       height="51.42857"
       x="231.42857"
       y="829.50507" />
    <rect
       style="fill:#000080"
       id="rect3472"
       width="74.285713"
       height="40"
       x="345.71429"
       y="843.79077" />
    <path
       style="fill:#ff0000;fill-rule:evenodd;stroke:#000000;stroke-width:1px;stroke-linecap:butt;stroke-linejoin:miter;stroke-opacity:1"
       d="m 131.42857,438.07649 c 9.52381,0 19.04762,0 28.57143,0 1.90476,0 3.84651,-0.37355 5.71429,0 2.9532,0.59064 5.61822,2.2665 8.57142,2.85714 1.86778,0.37356 3.84652,-0.37355 5.71429,0 2.95321,0.59064 5.60071,2.36203 8.57143,2.85715 4.69711,0.78285 9.61628,-0.93389 14.28571,0 2.95321,0.59064 5.61822,2.2665 8.57143,2.85714 3.73555,0.74711 7.61905,0 11.42857,0 7.61905,0 15.2381,0 22.85715,0 4.7619,0 9.52381,0 14.28571,0 2.85714,0 5.75316,0.46971 8.57143,0 2.97071,-0.49512 5.60071,-2.36202 8.57143,-2.85714 5.48541,-0.91424 17.9711,1.22151 22.85714,0 1.30666,-0.32667 1.65247,-2.25481 2.85714,-2.85715 0.9105,-0.45524 11.73223,0 14.28572,0 10.47619,0 20.95238,0 31.42857,0 4.7619,0 9.52381,0 14.28571,0 1.87745,0 6.95944,0.53734 8.57143,0 2.02031,-0.67343 3.69398,-2.1837 5.71429,-2.85714 1.79828,-0.59943 11.71038,0 14.28571,0 10.47619,0 20.95238,0 31.42857,0 20,0 40,0 60,0 1.04925,0 11.3136,0.11498 11.42857,0 0.67344,-0.67343 -0.67343,-2.18371 0,-2.85714 1.34687,-1.34687 4.36742,1.34687 5.71429,0 0.67344,-0.67344 -0.67344,-2.18371 0,-2.85715 0.17736,-8.04496 6.44184,-0.72755 8.57143,-2.85714 0.67343,-0.67343 -0.85184,-2.43122 0,-2.85714 2.28571,-1.14286 6.28571,1.14286 8.57143,0 1.20467,-0.60234 1.65246,-2.25481 2.85714,-2.85714 0.85184,-0.42592 2.18371,0.67343 2.85714,0 0.67344,-0.67344 -0.67343,-2.18371 0,-2.85715 0.0919,-0.0919 7.8785,0 8.57143,0 6.66667,0 13.33333,0 20,0 0.95238,0 1.90476,0 2.85714,0 0.95239,0 2.85715,-0.95238 2.85715,0 0,0.95238 -3.80953,0 -2.85715,0 1.90477,0 4.01062,0.85184 5.71429,0 0.22857,-0.11428 0.22857,-8.11428 0,-8.57143 -0.60234,-1.20467 -1.90476,-1.90476 -2.85714,-2.85714 0,-1.90476 0.60234,-3.90727 0,-5.71428 -0.85184,-2.55551 -4.22007,-3.47296 -5.71429,-5.71429 -1.18128,-1.77192 -1.67586,-3.94236 -2.85714,-5.71429 -0.74711,-1.12066 -2.43123,-1.57939 -2.85714,-2.85714 -0.60234,-1.80701 0.60233,-3.90727 0,-5.71428 -0.42592,-1.27776 -1.90477,-1.90477 -2.85715,-2.85715 -1.90476,-1.90476 -4.09804,-3.55929 -5.71428,-5.71428 -3.02164,-4.02885 -2.69265,-7.39972 -5.71429,-11.42857 -2.42436,-3.23249 -6.3301,-5.20944 -8.57143,-8.57143 -1.18128,-1.77193 -1.67586,-3.94236 -2.85714,-5.71429 -0.74711,-1.12066 -2.11003,-1.73648 -2.85714,-2.85714 -1.18129,-1.77193 -1.67586,-3.94236 -2.85715,-5.71429 -0.7471,-1.12066 -2.2548,-1.65246 -2.85714,-2.85714 -0.42592,-0.85183 0.67344,-2.18371 0,-2.85714 -1.50585,-1.50585 -4.01061,-1.57939 -5.71428,-2.85715 -3.23249,-2.42436 -5.20944,-6.3301 -8.57143,-8.57142 -1.77193,-1.18129 -4.20844,-1.3513 -5.71429,-2.85715 -1.50585,-1.50584 -1.67586,-3.94236 -2.85714,-5.71428 -0.74711,-1.12067 -1.90476,-1.90476 -2.85714,-2.85715 -0.95239,-0.95238 -1.73648,-2.11003 -2.85715,-2.85714 -1.77192,-1.18128 -4.20844,-1.35129 -5.71428,-2.85714 -1.50585,-1.50585 -1.67586,-3.94236 -2.85715,-5.71429 -4.37593,-6.5639 -1.63199,1.22515 -8.57142,-5.71428 -1.50585,-1.50585 -1.67586,-3.94236 -2.85715,-5.71429 -2.1978,-3.2967 -6.37362,-5.27472 -8.57143,-8.57143 -4.63348,-6.95022 -1.0808,-4.47834 -5.71428,-11.42857 -0.74711,-1.12066 -2.11004,-1.73648 -2.85714,-2.85714 -2.36257,-3.54385 -3.15878,-8.02123 -5.71429,-11.42857 -4.8,-6.4 -12.34286,-10.74286 -17.14286,-17.14286 -1.27775,-1.70367 -1.67586,-3.94236 -2.85714,-5.71429 -0.74711,-1.12066 -2.11003,-1.73647 -2.85714,-2.85714 -1.18129,-1.77192 -1.67586,-3.94236 -2.85715,-5.71428 -3.48521,-5.22782 -3.64269,-0.28505 -5.71428,-8.57143 -0.46197,-1.84789 0.60234,-3.90727 0,-5.71429 -0.85184,-2.5555 -4.22007,-3.47296 -5.71429,-5.71428 -6.29475,-1.43884 -1.51027,-5.87769 -2.85714,-8.57143 -0.60234,-1.20468 -2.43123,-1.57939 -2.85714,-2.85715 -0.60234,-1.80701 0.60234,-3.90727 0,-5.71428 -0.32019,-0.96056 -10.74963,-10.74963 -11.42857,-11.42857 -6.55096,-6.55096 1.20467,1.80701 -5.71429,-8.57143 -1.49422,-2.24133 -4.86245,-3.15878 -5.71429,-5.71429 -0.60233,-1.80701 0,-3.80952 0,-5.71428 0,-0.95238 0.42592,-2.00531 0,-2.85715 -0.60233,-1.20467 -2.2548,-1.65246 -2.85714,-2.85714 -0.42592,-0.85183 0.42592,-2.00531 0,-2.85714 -1.20468,-2.40936 -4.50961,-3.30493 -5.71428,-5.71429 -0.85184,-1.70367 1.34687,-4.36741 0,-5.71428 -0.67344,-0.67344 -2.18371,0.67343 -2.85715,0 -1.34687,-1.34687 1.34687,-4.36742 0,-5.71429 -7.61904,0 0.95238,0.95238 -2.85714,-2.85714 -0.67344,-0.67344 -1.90476,0 -2.85714,0 -0.95238,0 -1.90476,0 -2.85715,0 -0.69293,0 -8.47954,-0.0919 -8.57142,0 -0.67344,0.67343 0.67343,2.18371 0,2.85714 -0.67344,0.67344 -2.18371,-0.67343 -2.85715,0 -0.67343,0.67344 0,1.90476 0,2.85714 -1.90476,1.90477 -3.40442,4.32837 -5.71428,5.71429 -2.58251,1.5495 -5.98893,1.30764 -8.57143,2.85714 -2.30986,1.38592 -3.5593,4.09804 -5.71429,5.71429 -1.70367,1.27775 -3.80952,1.90476 -5.71428,2.85714 -2.85715,1.90476 -5.89004,3.56917 -8.57143,5.71429 -2.10346,1.68276 -3.5593,4.09804 -5.71429,5.71428 -1.70367,1.27776 -4.20844,1.3513 -5.71428,2.85715 -1.50585,1.50584 -1.57939,4.01061 -2.85715,5.71428 -12.35797,12.35798 -0.44778,-0.75689 -8.57142,11.42857 -2.42489,3.63733 -8.78816,7.90802 -11.42858,11.42857 -3.77142,5.02858 -4.8,12.11429 -8.57142,17.14286 -1.61625,2.15499 -4.22007,3.47296 -5.71429,5.71429 -0.52829,0.79243 0.42592,2.00531 0,2.85714 -0.60234,1.20468 -2.11003,1.73648 -2.85714,2.85714 -1.18129,1.77193 -1.67586,3.94236 -2.85715,5.71429 -4.35867,6.53801 -2.26162,-1.78655 -5.71428,8.57143 -0.30117,0.90351 0.42592,2.00531 0,2.85714 -1.20468,2.40935 -4.22007,3.47296 -5.71429,5.71429 -1.18128,1.77192 -1.67586,3.94236 -2.85714,5.71428 -0.74711,1.12067 -2.2548,1.65247 -2.85714,2.85714 -0.42592,0.85184 0.30117,1.95364 0,2.85715 -0.67344,2.0203 -2.18371,3.69398 -2.85715,5.71428 -0.60233,1.80702 0.60234,3.90727 0,5.71429 -0.67343,2.0203 -1.67586,3.94236 -2.85714,5.71428 -0.74711,1.12067 -2.43122,1.57939 -2.85714,2.85715 -0.60234,1.80701 0.46197,3.86639 0,5.71428 -1.033,4.13201 -4.68128,7.29657 -5.71429,11.42857 -0.46197,1.8479 1.05657,4.12943 0,5.71429 -1.18128,1.77193 -4.43653,1.15347 -5.71428,2.85714 -1.80702,2.40936 -1.73863,5.77515 -2.85715,8.57143 -0.79091,1.97728 -1.90476,3.80953 -2.85714,5.71429 -0.95238,1.90476 -1.67586,3.94236 -2.85714,5.71428 -0.74711,1.12067 -2.11004,1.73648 -2.85714,2.85715 -1.18129,1.77192 -1.67586,3.94236 -2.85715,5.71428 -0.74711,1.12067 -2.2548,1.65247 -2.85714,2.85714 -0.42592,0.85184 0,1.90477 0,2.85715 -0.95238,1.90476 -1.67586,3.94236 -2.85714,5.71428 -0.74711,1.12067 -1.90476,1.90477 -2.85715,2.85715 -0.95238,0.95238 -1.65246,2.2548 -2.85714,2.85714 -0.85183,0.42592 -2.18371,-0.67344 -2.85714,0 -3.47995,3.47995 -1.33835,6.38346 -5.71429,8.57143 -3.94102,1.97051 -2.55563,-3.46016 -5.71428,2.85714 -0.42592,0.85184 0.42591,2.00531 0,2.85714 -0.60234,1.20468 -1.90476,1.90477 -2.85715,2.85715 -0.95238,0.95238 -1.65246,2.2548 -2.85714,2.85714 -0.85183,0.42592 -2.18371,-0.67344 -2.85714,0 -0.67344,0.67343 0,1.90476 0,2.85714 -0.95238,0.95238 -1.73648,2.11004 -2.85714,2.85714 -1.77193,1.18129 -3.94237,1.67586 -5.71429,2.85715 -2.46543,1.64362 -6.33975,6.33975 -8.57143,8.57143 -0.95238,0.95238 -1.90476,1.90476 -2.85714,2.85714 -0.95238,0.95238 -2.25481,1.65246 -2.85714,2.85714 -3.51851,7.03701 8.29352,-2.57924 -2.85715,8.57143 -0.67343,0.67344 -2.0053,-0.42592 -2.85714,0 -1.20468,0.60234 -1.90476,1.90476 -2.85714,2.85714 -0.95238,0.95238 -2.25481,1.65247 -2.85715,2.85715 -0.42591,0.85183 0.42592,2.0053 0,2.85714 -0.60233,1.20468 -2.2548,1.65246 -2.85714,2.85714 -0.42592,0.85184 0.67344,2.18371 0,2.85714 -3.80952,3.80953 -2.7416,-6.06091 -5.71428,2.85715 -0.60234,1.80701 0.85183,4.01061 0,5.71428 -0.42592,0.85184 -2.18371,-0.67343 -2.85715,0 -0.67343,0.67344 0,1.90477 0,2.85715 0,0.95238 -0.48999,2.04048 0,2.85714 2.44998,4.0833 8.57143,6.66667 8.57143,11.42857 0,8.47684 -12.25131,10.60583 -8.57143,14.28571 0.67344,0.67344 1.90476,0 2.85715,0 0.95238,0 3.80952,0 2.85714,0 -1.90476,0 -7.61905,0 -5.71429,0 26.66667,0 2.85715,2.85715 8.57143,-2.85714 1.34687,-1.34687 6.17626,1.84789 5.71429,0 -1.03301,-4.13201 -8.72598,-8.41688 -5.71429,-11.42857 2.85714,-2.85714 5.33894,6.14706 8.57143,8.57143 4.35374,3.26531 2.31293,-2.31293 2.85714,-2.85714 0.67344,-0.67344 2.18371,0.67343 2.85715,0 0.67343,-0.67344 0.67343,-2.18371 0,-2.85715 -0.67344,-0.67343 -1.90477,0 -2.85715,0 -5.86883,0 -1.95363,0.30117 -11.42857,-2.85714 z"
       id="path3474"
       inkscape:connector-curvature="0" />
  </g>
</svg>
