<?xml version="1.0" encoding="UTF-8" standalone="no"?>
<!-- Created with Inkscape (http://www.inkscape.org/) -->

<svg
   xmlns:dc="http://purl.org/dc/elements/1.1/"
   xmlns:cc="http://creativecommons.org/ns#"
   xmlns:rdf="http://www.w3.org/1999/02/22-rdf-syntax-ns#"
   xmlns:svg="http://www.w3.org/2000/svg"
   xmlns="http://www.w3.org/2000/svg"
   xmlns:sodipodi="http://sodipodi.sourceforge.net/DTD/sodipodi-0.dtd"
   xmlns:inkscape="http://www.inkscape.org/namespaces/inkscape"
   width="181.7635mm"
   height="240.73676mm"
   viewBox="0 0 644.04391 853.00425"
   id="svg3495"
   version="1.1"
   inkscape:version="0.91 r13725"
   sodipodi:docname="black-and-white-house.svg">
  <defs
     id="defs3497" />
  <sodipodi:namedview
     id="base"
     pagecolor="#ffffff"
     bordercolor="#666666"
     borderopacity="1.0"
     inkscape:pageopacity="0.0"
     inkscape:pageshadow="2"
     inkscape:zoom="0.35"
     inkscape:cx="338.11935"
     inkscape:cy="340.86137"
     inkscape:document-units="px"
     inkscape:current-layer="layer1"
     showgrid="false"
     fit-margin-top="0"
     fit-margin-left="0"
     fit-margin-right="0"
     fit-margin-bottom="0"
     inkscape:window-width="1311"
     inkscape:window-height="744"
     inkscape:window-x="55"
     inkscape:window-y="24"
     inkscape:window-maximized="1" />
  <metadata
     id="metadata3500">
    <rdf:RDF>
      <cc:Work
         rdf:about="">
        <dc:format>image/svg+xml</dc:format>
        <dc:type
           rdf:resource="http://purl.org/dc/dcmitype/StillImage" />
        <dc:title></dc:title>
      </cc:Work>
    </rdf:RDF>
  </metadata>
  <g
     inkscape:label="Layer 1"
     inkscape:groupmode="layer"
     id="layer1"
     transform="translate(-36.880648,-20.219347)">
    <path
       style="fill:none;fill-rule:evenodd;stroke:#000000;stroke-width:1px;stroke-linecap:butt;stroke-linejoin:miter;stroke-opacity:1"
       d="m 120,375.21935 c 0,41.90476 0,83.80952 0,125.71428 0,10.47619 0,20.95238 0,31.42857 0,2.85715 0,5.71429 0,8.57143 0,2.85715 0.56033,5.76977 0,8.57143 -0.41765,2.08824 -2.34064,3.64828 -2.85714,5.71429 -0.46198,1.84789 0,3.80952 0,5.71428 0,4.76191 0,9.52381 0,14.28572 0,13.33333 0,26.66666 0,40 0,40 0,80 0,120 0,8.57143 0,17.14285 0,25.71428 0,1.90477 0,3.80953 0,5.71429 0,0.95238 -0.30117,1.95363 0,2.85714 0.67343,2.02031 2.1837,3.69398 2.85714,5.71429 0.30117,0.90351 0,1.90476 0,2.85714 0,2.45237 -0.55722,15.47121 0,17.14286 0.42592,1.27775 2.2548,1.65246 2.85714,2.85714 0.42592,0.85184 0,1.90476 0,2.85714 0,1.90477 0,3.80953 0,5.71429 0,4.7619 0,9.52381 0,14.28571 0,0.95238 0,1.90477 0,2.85715 0,0.95238 -0.67343,2.1837 0,2.85714 4,4 1.71429,-4 5.71429,0 0.67343,0.67343 -0.67344,2.18371 0,2.85714 1.50585,1.50585 3.80952,1.90476 5.71428,2.85714 1.90477,0.95239 3.62606,2.4395 5.71429,2.85715 2.80166,0.56033 5.75316,-0.46971 8.57143,0 18.71804,3.11967 -0.34786,1.25464 14.28571,8.57143 1.70367,0.85183 3.8664,-0.46198 5.71429,0 2.066,0.5165 3.64828,2.34064 5.71428,2.85714 4.4818,1.12045 9.80393,-1.12045 14.28572,0 2.066,0.5165 3.69398,2.18371 5.71428,2.85714 0.90351,0.30117 1.90477,0 2.85715,0 1.90476,0 3.80952,0 5.71428,0 6.66667,0 13.33334,0 20,0 3.80953,0 7.61905,0 11.42857,0 1.90477,0 3.84652,-0.37355 5.71429,0 2.95321,0.59064 5.61822,2.2665 8.57143,2.85714 1.86777,0.37356 3.80952,0 5.71428,0 4.76191,0 9.52381,0 14.28572,0 3.80952,0 7.67088,-0.62628 11.42857,0 2.10061,0.35011 3.62605,2.4395 5.71429,2.85715 2.80165,0.56033 5.71428,0 8.57142,0 0.95239,0 2.00531,-0.42592 2.85715,0 1.20467,0.60234 1.65246,2.2548 2.85714,2.85714 1.73492,0.86746 15.40794,-0.86746 17.14286,0 1.20467,0.60234 1.65246,2.2548 2.85714,2.85714 2.69374,1.34687 5.77514,1.73863 8.57143,2.85715 1.97727,0.79091 3.61367,2.50704 5.71428,2.85714 3.7577,0.62628 7.65734,-0.53875 11.42858,0 2.98142,0.42592 5.59,2.43122 8.57142,2.85714 3.77124,0.53875 7.61905,0 11.42858,0 3.80952,0 7.61904,0 11.42857,0 3.80952,0 7.65733,-0.53875 11.42857,0 2.98142,0.42592 5.59,2.43123 8.57143,2.85714 5.65685,0.80813 11.42857,0 17.14285,0 13.33334,0 26.66667,0 40,0 47.61905,0 95.2381,0 142.85715,0 6.66666,0 13.33333,0 20,0 0.95238,0 2.1837,0.67344 2.85714,0 0.0919,-0.0919 0,-7.87849 0,-8.57142 0,-11.42858 0,-22.85715 0,-34.28572 0,-31.42857 0,-62.85714 0,-94.28571 0,-11.42857 0,-22.85715 0,-34.28572 0,-4.7619 0.52586,-9.55293 0,-14.28571 -0.43364,-3.90275 -2.46641,-7.52129 -2.85714,-11.42857 -0.5686,-5.68593 0.80812,-11.48601 0,-17.14286 -1.11066,-7.7746 -4.17408,-15.15612 -5.71429,-22.85714 -1.32071,-6.60358 -1.34286,-13.43811 -2.85714,-20 -17.49582,-52.48745 2.40935,13.25145 -5.71429,-31.42857 -1.07749,-5.92623 -4.63679,-11.21663 -5.71428,-17.14286 -2.08761,-7.44627 1.25256,-15.34176 0,-22.85714 -4.18009,-25.0805 -1.05101,4.36741 -5.71429,-14.28572 -0.92394,-3.69578 0.92395,-7.73279 0,-11.42857 -0.5165,-2.066 -2.34064,-3.64828 -2.85714,-5.71429 -0.64753,-2.59013 0,-10.96665 0,-14.28571 0,-11.42857 0,-22.85714 0,-34.28571 0,-14.28572 0,-28.57143 0,-42.85715 0,-0.69293 0.0919,-8.47954 0,-8.57143 -3.80953,-3.80952 -2.85714,4.76191 -2.85714,-2.85714 0,-8.57143 0,-17.14286 0,-25.71428 0,-0.95238 0,-1.90477 0,-2.85715 0,-0.95238 0.67343,-2.1837 0,-2.85714 -0.67344,-0.67343 -2.00531,0.42592 -2.85715,0 -1.20467,-0.60234 -1.57939,-2.43122 -2.85714,-2.85714 -1.80702,-0.60234 -3.80952,0 -5.71429,0 -3.80952,-0.95238 -7.75182,-1.47837 -11.42857,-2.85715 -3.98799,-1.49549 -7.29656,-4.68128 -11.42857,-5.71428 -3.69578,-0.92395 -7.64235,0.42069 -11.42857,0 -4.82651,-0.53628 -9.52381,-1.90476 -14.28571,-2.85714 -5.71429,0 -11.45204,0.51734 -17.14286,0 -4.83627,-0.43966 -9.44628,-2.45386 -14.28572,-2.85715 -6.64363,-0.55363 -13.39181,0.88109 -20,0 -7.78464,-1.03795 -15.08254,-4.60362 -22.85714,-5.71428 -5.65685,-0.80812 -11.45204,0.51734 -17.14286,0 -4.83626,-0.43966 -9.4536,-2.37393 -14.28571,-2.85715 -4.73827,-0.47382 -9.52381,0 -14.28571,0 -1.90477,0 -3.90727,0.60234 -5.71429,0 -2.02031,-0.67343 -3.69398,-2.1837 -5.71429,-2.85714 -1.61199,-0.53733 -6.69397,0 -8.57142,0 -5.71429,0 -11.42858,0 -17.14286,0 -22.85714,0 -45.71429,0 -68.57143,0 -14.28571,0 -28.57143,0 -42.85714,0 -5.71429,0 -11.42857,0 -17.14286,0 -1.90476,0 -3.8664,-0.46197 -5.71429,0 -2.066,0.5165 -3.64828,2.34064 -5.71428,2.85714 -1.84789,0.46198 -3.80953,0 -5.71429,0 -3.37782,0 -20.62015,-0.55924 -22.85714,0 -1.30666,0.32667 -1.65247,2.25481 -2.85714,2.85715 -0.84739,0.42369 -14.37934,0 -17.14286,0 -12.38095,0 -24.7619,0 -37.14286,0 -1.34713,0 -14.15622,-0.12949 -14.28571,0 -0.67344,0.67343 0,1.90476 0,2.85714 -0.95238,0 -2.18371,-0.67343 -2.85714,0 -2.81851,2.81851 5.8545,5.71429 -2.85715,5.71429"
       id="path3503"
       inkscape:connector-curvature="0" />
    <path
       style="fill:#808080;fill-rule:evenodd;stroke:#000000;stroke-width:1px;stroke-linecap:butt;stroke-linejoin:miter;stroke-opacity:1"
       d="m 134.28571,358.07649 c 0,3.80952 0.74711,7.69303 0,11.42857 -1.48634,7.43172 -2.95576,0.0986 -5.71428,2.85714 -0.78178,0.78178 0.77498,9.87861 0,11.42858 -0.60234,1.20467 -1.90476,1.90476 -2.85714,2.85714 0,1.90476 0.60233,3.90727 0,5.71428 -0.42592,1.27776 -2.43123,1.57939 -2.85715,2.85715 -0.60234,1.80701 0,3.80952 0,5.71428 0,0.95238 0.42592,2.00531 0,2.85715 -0.60234,1.20467 -2.2548,1.65246 -2.85714,2.85714 -0.42592,0.85183 0.42592,2.00531 0,2.85714 -0.60234,1.20468 -2.2548,1.65247 -2.85714,2.85714 -0.85184,1.70368 1.34687,4.36742 0,5.71429 -0.67344,0.67344 -2.18371,-0.67343 -2.85715,0 -3.80952,3.80952 4.76191,2.85714 -2.85714,2.85714"
       id="path3505"
       inkscape:connector-curvature="0" />
    <path
       style="fill:#000000"
       d="m 365.61374,867.4744 c -16.94816,-1.30245 -34.94816,-4.21991 -40,-6.48328 -12.44558,-5.57592 -45.59237,-9.9018 -102.04231,-13.31726 -53.29137,-3.22431 -62.69717,-4.71311 -64.8261,-10.26103 -0.82475,-2.14928 -5.34219,-3.90777 -10.03875,-3.90777 -4.69656,0 -12.10211,-2.10466 -16.45677,-4.67703 -7.36324,-4.34957 -8.09424,-6.49997 -10.44084,-30.71428 -1.38779,-14.32049 -2.25074,-105.75155 -1.91767,-203.18012 0.53985,-157.91146 1.15523,-179.54678 5.66843,-199.28571 2.78457,-12.17857 6.04777,-22.14286 7.25156,-22.14286 1.20379,0 2.18871,-3.72802 2.18871,-8.2845 l 0,-8.28451 37.85714,-1.71243 c 102.39151,-4.63159 209.37515,-4.81273 247.85715,-0.41967 21.21428,2.4218 58.5,6.36823 82.85714,8.76984 24.35714,2.40162 49.13317,6.26149 55.05783,8.57749 5.92465,2.31601 13.24163,4.21092 16.25994,4.21092 3.01831,0 6.28109,1.28351 7.25063,2.85224 0.96951,1.56873 2.75268,36.20607 3.96257,76.97187 1.31903,44.44297 3.4094,75.61806 5.22086,77.86205 1.66157,2.05833 3.76414,12.09956 4.67237,22.31384 2.01366,22.64618 4.95037,38.90748 13.41563,74.28572 6.00128,25.08063 6.58891,35.229 7.73428,133.57143 l 1.23957,106.42857 -110.97825,-0.40269 C 446.3688,870.0238 382.5619,868.77686 365.61374,867.4744 Z"
       id="path3507"
       inkscape:connector-curvature="0" />
    <path
       style="fill:#666666"
       d="m 470.71429,867.70335 c -111.75914,-1.6466 -124.79284,-2.341 -144.28572,-7.68723 -27.58253,-7.56492 -33.17787,-8.31723 -101.30782,-13.62109 -37.50081,-2.91943 -59.12124,-5.81454 -63.15372,-8.45674 -3.37238,-2.20966 -10.73553,-4.88129 -16.36255,-5.93691 -17.24626,-3.2354 -19.83186,-8.66578 -22.77362,-47.82992 -1.44396,-19.22366 -1.97463,-111.45211 -1.17927,-204.95211 1.26519,-148.73019 2.04991,-171.96612 6.27192,-185.71429 2.65419,-8.64286 5.46602,-19.83414 6.2485,-24.86952 1.30535,-8.40007 2.51762,-9.32379 14.69678,-11.19859 7.30074,-1.12384 71.77407,-2.14684 143.27407,-2.27333 117.79797,-0.2084 135.09534,0.37425 184.28571,6.20755 53.69632,6.36764 94.50623,13.56994 101.54712,17.92145 2.63962,1.63136 4.30757,19.71911 6.09417,66.08643 2.49557,64.7672 5.19828,87.5624 18.57885,156.69744 10.92575,56.45146 11.69658,66.37666 13.36898,172.14286 l 1.52477,96.42857 -11.98552,-0.56723 c -6.59203,-0.31197 -67.27123,-1.38177 -134.84265,-2.37734 z"
       id="path3509"
       inkscape:connector-curvature="0" />
    <path
       style="fill:#000000;fill-rule:evenodd;stroke:#000000;stroke-width:1px;stroke-linecap:butt;stroke-linejoin:miter;stroke-opacity:1"
       d="m 37.142857,335.21935 c 7.065628,4.35174 15.301992,5.54937 22.857143,8.57143 1.977273,0.79091 3.648281,2.34064 5.714286,2.85714 1.84789,0.46197 3.846513,-0.37356 5.714285,0 2.953208,0.59064 5.618221,2.2665 8.571429,2.85714 1.867773,0.37356 3.846513,-0.37355 5.714286,0 2.953208,0.59064 5.600713,2.36203 8.571428,2.85714 5.636537,0.93943 11.539536,-1.12066 17.142856,0 2.08823,0.41765 3.62605,2.4395 5.71429,2.85715 2.80166,0.56033 5.76977,-0.56033 8.57143,0 2.08823,0.41764 3.62605,2.43949 5.71428,2.85714 2.80166,0.56033 5.76977,-0.56033 8.57143,0 2.08823,0.41765 3.64828,2.34064 5.71429,2.85714 1.84789,0.46198 3.84651,-0.37355 5.71428,0 2.95321,0.59064 5.61822,2.2665 8.57143,2.85715 1.86777,0.37355 3.80952,0 5.71429,0 3.80952,0 7.61904,0 11.42857,0 1.90476,0 3.80952,0 5.71428,0 0.95238,0 2.00531,-0.42592 2.85715,0 8.40802,4.20401 -4.4351,2.85714 8.57142,2.85714 1.98726,0 13.25248,-0.51662 14.28572,0 1.20468,0.60234 1.65246,2.2548 2.85714,2.85714 1.70367,0.85184 3.90727,-0.60234 5.71429,0 4.04061,1.34687 7.29656,4.68129 11.42857,5.71429 1.84789,0.46197 3.80952,0 5.71428,0 3.15035,0 15.08961,-0.51331 17.14286,0 1.30666,0.32666 1.65247,2.2548 2.85714,2.85714 0.9105,0.45525 11.73223,0 14.28572,0 3.80952,0 7.61905,0 11.42857,0 1.90476,0 3.80952,0 5.71429,0 0.95238,0 1.93319,0.23099 2.85714,0 2.92177,-0.73044 5.64966,-2.1267 8.57143,-2.85714 3.69578,-0.92395 7.73279,0.92394 11.42857,0 1.30665,-0.32667 1.57939,-2.43123 2.85714,-2.85715 6.912,-2.304 4.51657,2.304 11.42857,0 1.27776,-0.42591 1.57939,-2.43122 2.85715,-2.85714 1.3016,-0.43387 18.06509,0 20,0 12.38095,0 24.7619,0 37.14285,0 42.85715,0 85.71429,0 128.57143,0 14.4787,0 -3.40734,0.85184 11.42857,-2.85714 3.62657,-0.90664 13.64234,0.58342 17.14286,0 2.97072,-0.49512 5.61822,-2.2665 8.57143,-2.85714 4.52322,-0.90465 12.86571,1.06928 17.14286,0 2.066,-0.5165 3.69398,-2.18371 5.71428,-2.85715 1.80702,-0.60234 4.36742,1.34687 5.71429,0 0.67343,-0.67343 -0.67344,-2.1837 0,-2.85714 1.34687,-1.34687 4.01061,0.85184 5.71428,0 1.20468,-0.60234 1.65247,-2.2548 2.85715,-2.85714 7.037,-3.5185 -2.57925,8.29353 8.57142,-2.85715 0.67344,-0.67343 -0.67343,-2.1837 0,-2.85714 0.67344,-0.67343 2.00531,0.42592 2.85715,0 1.20467,-0.60234 1.65246,-2.2548 2.85714,-2.85714 0.85184,-0.42592 2.00531,0.42592 2.85714,0 1.20468,-0.60234 1.65247,-2.25481 2.85715,-2.85714 0.85183,-0.42592 2.0053,0.42591 2.85714,0 1.20468,-0.60234 1.57939,-2.43123 2.85714,-2.85715 1.80702,-0.60234 4.01062,0.85184 5.71429,0 0.85183,-0.42591 -0.67344,-2.1837 0,-2.85714 0.67343,-0.67343 2.1837,0.67344 2.85714,0 0.67344,-0.67343 -0.67344,-2.18371 0,-2.85714 1.42857,-1.42857 7.14286,1.42857 8.57143,0 0.67343,-0.67344 -0.67344,-2.18371 0,-2.85715 0.67343,-0.67343 1.90476,0 2.85714,0 0.95238,0 2.85714,-0.95238 2.85714,0 0,0.95239 -2.85714,0.95239 -2.85714,0 0,-4.18293 11.37269,-2.91302 11.42857,-2.85714 0.67344,0.67344 -0.67343,2.18371 0,2.85714 1.50585,1.50585 4.20844,1.3513 5.71429,2.85715 1.50585,1.50584 1.57939,4.01061 2.85714,5.71428 1.61625,2.155 4.09804,3.5593 5.71429,5.71429 1.27775,1.70367 1.67586,3.94236 2.85714,5.71428 0.74711,1.12067 2.11003,1.73648 2.85714,2.85715 2.77578,4.16366 1.78371,5.95104 5.71429,8.57143 1.77192,1.18128 4.20844,1.35129 5.71428,2.85714 0.67344,0.67343 -0.42591,2.00531 0,2.85714 0.60234,1.20468 1.65247,2.25481 2.85715,2.85714 0.85183,0.42592 2.85714,-0.95238 2.85714,0 0,0.95239 -2.85714,0.95239 -2.85714,0 0,-1.34687 2.2548,-1.65246 2.85714,-2.85714 0.42592,-0.85183 -0.95238,-2.85714 0,-2.85714 0.95238,0 0,3.80952 0,2.85714 0,-5.71428 0,-11.42857 0,-17.14286 0,-6.66666 0,-13.33333 0,-20 0,-0.95238 0.67344,-2.1837 0,-2.85714 -0.67344,-0.67343 -2.18371,0.67344 -2.85714,0 -1.34687,-1.34687 0.85183,-4.01061 0,-5.71428 -1.20468,-2.40936 -4.50961,-3.30494 -5.71429,-5.71429 -0.42592,-0.85183 0.30117,-1.95363 0,-2.85714 -0.67343,-2.02031 -2.18371,-3.69398 -2.85714,-5.71429 -0.30117,-0.90351 0.30117,-1.95363 0,-2.85714 -6.89849,-20.69548 0.82372,4.50459 -5.71429,-8.57143 -1.34687,-2.69374 -1.51027,-5.87769 -2.85714,-8.57143 -0.60234,-1.20468 -1.90476,-1.90476 -2.85714,-2.85714 -3.84,-3.84 -7.58857,-7.58857 -11.42857,-11.42857 -0.95239,-0.95238 -2.11004,-1.73648 -2.85715,-2.85715 -1.18128,-1.77192 -1.35129,-4.20843 -2.85714,-5.71428 -1.50585,-1.50585 -4.20844,-1.3513 -5.71429,-2.85714 -2.4281,-2.42811 -3.28618,-6.14333 -5.71428,-8.57143 -1.50585,-1.50585 -4.05136,-1.5268 -5.71429,-2.85715 -27.77651,-27.77651 4.37092,2.56391 -14.28571,-11.42857 -4.30999,-3.23248 -7.11859,-8.19608 -11.42857,-11.42857 -1.70367,-1.27775 -4.20844,-1.35129 -5.71429,-2.85714 -1.50585,-1.50585 -1.67586,-3.94236 -2.85714,-5.71429 -2.24133,-3.36199 -6.14706,-5.33894 -8.57143,-8.57143 -1.27775,-1.70367 -1.57939,-4.01061 -2.85714,-5.71428 -1.61625,-2.15499 -4.09804,-3.55929 -5.71429,-5.71429 -2.5555,-3.40734 -3.15878,-8.02123 -5.71428,-11.42857 -1.61625,-2.15499 -4.03152,-3.61083 -5.71429,-5.71428 -5.18502,-3.34049 -5.23946,-9.84309 -8.57143,-14.28572 -3.23249,-4.30998 -8.06304,-7.22165 -11.42857,-11.42857 -2.14511,-2.68139 -3.56917,-5.89004 -5.71429,-8.57143 -1.68276,-2.10346 -4.03152,-3.61083 -5.71428,-5.71428 -4.29023,-5.36279 -7.03197,-11.86693 -11.42857,-17.14286 -2.58674,-3.10408 -6.3301,-5.20944 -8.57143,-8.57143 -1.67059,-2.50588 -1.51027,-5.87769 -2.85714,-8.57143 -1.53567,-3.07133 -3.80953,-5.71428 -5.71429,-8.57143 -1.90476,-2.85714 -3.56917,-5.890032 -5.71429,-8.571425 -1.68276,-2.103458 -4.03152,-3.610828 -5.71428,-5.714286 -2.14512,-2.681393 -3.80953,-5.714286 -5.71429,-8.571429 -1.90476,-2.857142 -3.94758,-5.626919 -5.71428,-8.571428 -1.09567,-1.826107 -1.57939,-4.010615 -2.85715,-5.714286 -1.61624,-2.154992 -4.03152,-3.610828 -5.71428,-5.714286 -2.14512,-2.681392 -3.65397,-5.824341 -5.71429,-8.571428 -0.80812,-1.077496 -2.11003,-1.736479 -2.85714,-2.857143 -1.18128,-1.771925 -1.57939,-4.010615 -2.85714,-5.714286 -2.42437,-3.232488 -6.3301,-5.209437 -8.57143,-8.571428 -1.18128,-1.771925 -1.3513,-4.208439 -2.85714,-5.714286 -0.67344,-0.673435 -2.00531,0.425918 -2.85715,0 -11.89074,-5.945372 3.05439,0.197245 -2.85714,-5.714286 -0.28571,-0.285714 -8.28571,-0.285714 -8.57143,0 -0.67343,0.673435 0.67344,2.183708 0,2.857143 -0.67343,0.673435 -2.18371,-0.673435 -2.85714,0 -1.50585,1.505847 -1.15347,4.436533 -2.85714,5.714286 -2.40936,1.807016 -6.2197,0.975753 -8.57143,2.857143 -2.6814,2.145114 -3.0329,6.426314 -5.71429,8.571428 -2.35174,1.88139 -5.87769,1.510273 -8.57143,2.857143 -6.14267,3.071336 -10.83043,8.723245 -17.14285,11.428572 -3.60927,1.546829 -8.01919,0.90892 -11.42858,2.857142 -3.50823,2.004704 -5.06319,6.566725 -8.57142,8.571429 -3.40939,1.948222 -8.01919,0.908921 -11.42858,2.857143 -3.50823,2.004704 -5.20943,6.330101 -8.57142,8.571428 -13.94271,9.295136 -3.65564,-4.915789 -17.14286,8.571429 -1.50585,1.505847 -1.3513,4.208439 -2.85714,5.714286 -2.42811,2.428104 -5.82435,3.65397 -8.57143,5.714285 -1.0775,0.808122 -1.77965,2.04902 -2.85715,2.85714 -2.74708,2.06032 -5.89003,3.56917 -8.57142,5.71429 -2.10346,1.68277 -3.40443,4.32837 -5.71429,5.71428 -3.8374,2.30244 -16.67922,4.469 -20,5.71429 -20.79053,7.79645 -1.90336,4.38067 -22.85714,8.57143 -35.027,7.0054 -2.02572,-0.92214 -28.57143,5.71428 -3.80953,0.95239 -7.91637,1.10104 -11.42857,2.85715 -2.40936,1.20467 -3.40443,4.32837 -5.71429,5.71428 -2.5825,1.54951 -5.87769,1.51028 -8.57143,2.85715 -1.52595,0.76297 -7.06724,7.06724 -8.57143,8.57142 -1.28673,1.28674 -8.13666,7.26714 -8.57142,8.57143 -0.60234,1.80702 0.60233,3.90727 0,5.71429 -0.42592,1.27775 -1.90477,1.90476 -2.85715,2.85714 -3.269,3.26901 -3.98454,3.38221 -5.71428,8.57143 -0.60234,1.80702 0.85183,4.01062 0,5.71429 -0.60234,1.20467 -2.11004,1.73648 -2.85715,2.85714 -1.18128,1.77192 -1.67586,3.94236 -2.85714,5.71428 -0.74711,1.12067 -2.2548,1.65247 -2.85714,2.85715 -1.34687,2.69374 -1.73863,5.77514 -2.85714,8.57143 -1.58182,3.95454 -4.13247,7.47402 -5.71429,11.42857 -1.11851,2.79628 -1.73863,5.77514 -2.85714,8.57143 -0.79091,1.97727 -2.06624,3.73701 -2.85715,5.71428 -3.34975,8.37439 -5.22167,17.3399 -8.57142,25.71429 -0.79091,1.97727 -2.18371,3.69398 -2.85715,5.71428 -0.93397,2.80191 -3.65062,16.56056 -5.71428,20 -1.38592,2.30987 -4.71386,3.21321 -5.71429,5.71429 -1.06111,2.65279 0.46971,5.75316 0,8.57143 -4.2883,25.72983 -0.20939,-6.61939 -8.57143,14.28571 -1.06111,2.65279 0.69296,5.79959 0,8.57143 -0.32666,1.30666 -2.43122,1.57939 -2.85714,2.85714 -0.60234,1.80702 0,3.80953 0,5.71429 0,0.95238 0.42592,2.00531 0,2.85714 -0.60234,1.20468 -2.2548,1.65247 -2.85714,2.85714 -0.85184,1.70368 1.34687,4.36742 0,5.71429 -0.68752,0.68752 -10.74106,-0.68752 -11.42857,0 -0.67344,0.67344 0.67343,2.18371 0,2.85714 -0.67344,0.67344 -1.90477,0 -2.85715,0 -0.95238,0 -1.90476,0 -2.85714,0 -6.666667,0 -13.333333,0 -20,0 -0.952381,0 -2.183708,-0.67343 -2.857143,0 -0.673435,0.67344 0.673435,2.18371 0,2.85715 -1.34687,1.34687 -4.367416,-1.34687 -5.714286,0 -0.673435,0.67343 0,1.90476 0,2.85714 0,0.95238 -0.673435,2.18371 0,2.85714 0.673435,0.67344 2.183708,-0.67343 2.857143,0 0.673435,0.67344 -0.673435,2.18371 0,2.85714 0.673435,0.67344 2.183708,-0.67343 2.857143,0 0.673435,0.67344 -0.673435,2.18371 0,2.85715 0.673435,0.67343 1.904762,0 2.857143,0"
       id="path3511"
       inkscape:connector-curvature="0" />
    <rect
       style="fill:#000000"
       id="rect3513"
       width="60"
       height="54.285713"
       x="220"
       y="466.64792" />
    <rect
       style="fill:#000000"
       id="rect3515"
       width="68.571426"
       height="48.57143"
       x="482.85715"
       y="532.36218" />
    <rect
       style="fill:#000000"
       id="rect3517"
       width="125.71429"
       height="245.71428"
       x="297.14285"
       y="618.07648" />
  </g>
</svg>
