<?xml version="1.0" encoding="UTF-8" standalone="no"?>
<!-- Created with Inkscape (http://www.inkscape.org/) -->

<svg
   xmlns:dc="http://purl.org/dc/elements/1.1/"
   xmlns:cc="http://creativecommons.org/ns#"
   xmlns:rdf="http://www.w3.org/1999/02/22-rdf-syntax-ns#"
   xmlns:svg="http://www.w3.org/2000/svg"
   xmlns="http://www.w3.org/2000/svg"
   xmlns:sodipodi="http://sodipodi.sourceforge.net/DTD/sodipodi-0.dtd"
   xmlns:inkscape="http://www.inkscape.org/namespaces/inkscape"
   width="113.59692mm"
   height="261.16919mm"
   viewBox="0 0 402.50876 925.40264"
   id="svg3546"
   version="1.1"
   inkscape:version="0.91 r13725"
   sodipodi:docname="10-modern-lomonosov.svg">
  <defs
     id="defs3548">
    <inkscape:perspective
       sodipodi:type="inkscape:persp3d"
       inkscape:vp_x="0 : 526.18108 : 1"
       inkscape:vp_y="0 : 999.99997 : 0"
       inkscape:vp_z="744.09449 : 526.18108 : 1"
       inkscape:persp3d-origin="372.04724 : 350.78739 : 1"
       id="perspective3554" />
  </defs>
  <sodipodi:namedview
     id="base"
     pagecolor="#ffffff"
     bordercolor="#666666"
     borderopacity="1.0"
     inkscape:pageopacity="0.0"
     inkscape:pageshadow="2"
     inkscape:zoom="0.35"
     inkscape:cx="283.57143"
     inkscape:cy="440"
     inkscape:document-units="px"
     inkscape:current-layer="layer1"
     showgrid="false"
     fit-margin-top="0"
     fit-margin-left="0"
     fit-margin-right="0"
     fit-margin-bottom="0"
     inkscape:window-width="1311"
     inkscape:window-height="744"
     inkscape:window-x="55"
     inkscape:window-y="24"
     inkscape:window-maximized="1" />
  <metadata
     id="metadata3551">
    <rdf:RDF>
      <cc:Work
         rdf:about="">
        <dc:format>image/svg+xml</dc:format>
        <dc:type
           rdf:resource="http://purl.org/dc/dcmitype/StillImage" />
        <dc:title></dc:title>
      </cc:Work>
    </rdf:RDF>
  </metadata>
  <g
     inkscape:label="Layer 1"
     inkscape:groupmode="layer"
     id="layer1"
     transform="translate(-91.42857,-46.959547)">
    <g
       sodipodi:type="inkscape:box3d"
       id="g3556"
       style="fill:#ff0000"
       inkscape:perspectiveID="#perspective3554"
       inkscape:corner0="3.0692667 : 0.1037353 : 0 : 1"
       inkscape:corner7="-0.12015856 : -0.21717492 : 0.25 : 1">
      <path
         sodipodi:type="inkscape:box3dside"
         id="path3566"
         style="fill:#afafde;fill-rule:evenodd;stroke:none;stroke-width:1px;stroke-linecap:butt;stroke-linejoin:round;stroke-opacity:1"
         inkscape:box3dsidetype="13"
         d="M 182.85714,669.61225 514.28571,1019.3218 585.3659,920.59527 220.63357,664.02846 Z"
         points="514.28571,1019.3218 585.3659,920.59527 220.63357,664.02846 182.85714,669.61225 " />
      <path
         sodipodi:type="inkscape:box3dside"
         id="path3558"
         style="fill:#353564;fill-rule:evenodd;stroke:none;stroke-width:1px;stroke-linecap:butt;stroke-linejoin:round;stroke-opacity:1"
         inkscape:box3dsidetype="6"
         d="m 182.85714,590.75032 0,78.86193 37.77643,-5.58379 0,-74.29739 z"
         points="182.85714,669.61225 220.63357,664.02846 220.63357,589.73107 182.85714,590.75032 " />
      <path
         sodipodi:type="inkscape:box3dside"
         id="path3568"
         style="fill:#e9e9ff;fill-rule:evenodd;stroke:none;stroke-width:1px;stroke-linecap:butt;stroke-linejoin:round;stroke-opacity:1"
         inkscape:box3dsidetype="11"
         d="m 220.63357,589.73107 364.73233,46.833 0,284.0312 -364.73233,-256.56681 z"
         points="585.3659,636.56407 585.3659,920.59527 220.63357,664.02846 220.63357,589.73107 " />
      <path
         sodipodi:type="inkscape:box3dside"
         id="path3560"
         style="fill:#4d4d9f;fill-rule:evenodd;stroke:none;stroke-width:1px;stroke-linecap:butt;stroke-linejoin:round;stroke-opacity:1"
         inkscape:box3dsidetype="5"
         d="m 182.85714,590.75032 331.42857,63.83501 71.08019,-18.02126 -364.73233,-46.833 z"
         points="514.28571,654.58533 585.3659,636.56407 220.63357,589.73107 182.85714,590.75032 " />
      <path
         sodipodi:type="inkscape:box3dside"
         id="path3564"
         style="fill:#d7d7ff;fill-rule:evenodd;stroke:none;stroke-width:1px;stroke-linecap:butt;stroke-linejoin:round;stroke-opacity:1"
         inkscape:box3dsidetype="14"
         d="m 514.28571,654.58533 0,364.73647 71.08019,-98.72653 0,-284.0312 z"
         points="514.28571,1019.3218 585.3659,920.59527 585.3659,636.56407 514.28571,654.58533 " />
      <path
         sodipodi:type="inkscape:box3dside"
         id="path3562"
         style="fill:#8686bf;fill-rule:evenodd;stroke:none;stroke-width:1px;stroke-linecap:butt;stroke-linejoin:round;stroke-opacity:1"
         inkscape:box3dsidetype="3"
         d="m 182.85714,590.75032 331.42857,63.83501 0,364.73647 -331.42857,-349.70955 z"
         points="514.28571,654.58533 514.28571,1019.3218 182.85714,669.61225 182.85714,590.75032 " />
    </g>
    <g
       sodipodi:type="inkscape:box3d"
       id="g3570"
       style="fill:#ff0000"
       inkscape:perspectiveID="#perspective3554"
       inkscape:corner0="1.5532653 : 0.69214994 : 0 : 1"
       inkscape:corner7="0.13231768 : 0.10369087 : 0.25 : 1">
      <path
         sodipodi:type="inkscape:box3dside"
         id="path3580"
         style="fill:#afafde;fill-rule:evenodd;stroke:none;stroke-width:1px;stroke-linecap:butt;stroke-linejoin:round;stroke-opacity:1"
         inkscape:box3dsidetype="13"
         d="M 237.14286,601.22346 420,636.46461 495.1497,625.01212 290.50743,598.71899 Z"
         points="420,636.46461 495.1497,625.01212 290.50743,598.71899 237.14286,601.22346 " />
      <path
         sodipodi:type="inkscape:box3dside"
         id="path3572"
         style="fill:#353564;fill-rule:evenodd;stroke:none;stroke-width:1px;stroke-linecap:butt;stroke-linejoin:round;stroke-opacity:1"
         inkscape:box3dsidetype="6"
         d="m 237.14286,370.75033 0,230.47313 53.36457,-2.50447 0,-209.91915 z"
         points="237.14286,601.22346 290.50743,598.71899 290.50743,388.79984 237.14286,370.75033 " />
      <path
         sodipodi:type="inkscape:box3dside"
         id="path3582"
         style="fill:#e9e9ff;fill-rule:evenodd;stroke:none;stroke-width:1px;stroke-linecap:butt;stroke-linejoin:round;stroke-opacity:1"
         inkscape:box3dsidetype="11"
         d="m 290.50743,388.79984 204.64227,-189.49237 0,425.70465 -204.64227,-26.29313 z"
         points="495.1497,199.30747 495.1497,625.01212 290.50743,598.71899 290.50743,388.79984 " />
      <path
         sodipodi:type="inkscape:box3dside"
         id="path3574"
         style="fill:#4d4d9f;fill-rule:evenodd;stroke:none;stroke-width:1px;stroke-linecap:butt;stroke-linejoin:round;stroke-opacity:1"
         inkscape:box3dsidetype="5"
         d="M 237.14286,370.75033 420,116.7703 495.1497,199.30747 290.50743,388.79984 Z"
         points="420,116.7703 495.1497,199.30747 290.50743,388.79984 237.14286,370.75033 " />
      <path
         sodipodi:type="inkscape:box3dside"
         id="path3578"
         style="fill:#d7d7ff;fill-rule:evenodd;stroke:none;stroke-width:1px;stroke-linecap:butt;stroke-linejoin:round;stroke-opacity:1"
         inkscape:box3dsidetype="14"
         d="m 420,116.7703 0,519.69431 75.1497,-11.45249 0,-425.70465 z"
         points="420,636.46461 495.1497,625.01212 495.1497,199.30747 420,116.7703 " />
      <path
         sodipodi:type="inkscape:box3dside"
         id="path3576"
         style="fill:#8686bf;fill-rule:evenodd;stroke:none;stroke-width:1px;stroke-linecap:butt;stroke-linejoin:round;stroke-opacity:1"
         inkscape:box3dsidetype="3"
         d="M 237.14286,370.75033 420,116.7703 420,636.46461 237.14286,601.22346 Z"
         points="420,116.7703 420,636.46461 237.14286,601.22346 237.14286,370.75033 " />
    </g>
    <g
       sodipodi:type="inkscape:box3d"
       id="g3598"
       style="fill:#ff0000"
       inkscape:perspectiveID="#perspective3554"
       inkscape:corner0="0.94353034 : 1.007428 : 0 : 1"
       inkscape:corner7="0.73622044 : 0.92363835 : 0.25 : 1">
      <path
         sodipodi:type="inkscape:box3dside"
         id="path3610"
         style="fill:#e9e9ff;fill-rule:evenodd;stroke:none;stroke-width:1px;stroke-linecap:butt;stroke-linejoin:round;stroke-opacity:1"
         inkscape:box3dsidetype="11"
         d="m 345.84532,193.8278 26.55451,-39.59043 0,42.18547 -26.55451,35.60349 z"
         points="372.39983,154.23737 372.39983,196.42284 345.84532,232.02633 345.84532,193.8278 " />
      <path
         sodipodi:type="inkscape:box3dside"
         id="path3600"
         style="fill:#353564;fill-rule:evenodd;stroke:none;stroke-width:1px;stroke-linecap:butt;stroke-linejoin:round;stroke-opacity:1"
         inkscape:box3dsidetype="6"
         d="m 282.85714,145.03606 0,43.11209 62.98818,43.87818 0,-38.19853 z"
         points="282.85714,188.14815 345.84532,232.02633 345.84532,193.8278 282.85714,145.03606 " />
      <path
         sodipodi:type="inkscape:box3dside"
         id="path3602"
         style="fill:#4d4d9f;fill-rule:evenodd;stroke:none;stroke-width:1px;stroke-linecap:butt;stroke-linejoin:round;stroke-opacity:1"
         inkscape:box3dsidetype="5"
         d="m 282.85714,145.03606 22.85715,-51.116965 66.68554,60.318275 -26.55451,39.59043 z"
         points="305.71429,93.919095 372.39983,154.23737 345.84532,193.8278 282.85714,145.03606 " />
      <path
         sodipodi:type="inkscape:box3dside"
         id="path3608"
         style="fill:#afafde;fill-rule:evenodd;stroke:none;stroke-width:1px;stroke-linecap:butt;stroke-linejoin:round;stroke-opacity:1"
         inkscape:box3dsidetype="13"
         d="m 282.85714,188.14815 22.85715,-45.96926 66.68554,54.24395 -26.55451,35.60349 z"
         points="305.71429,142.17889 372.39983,196.42284 345.84532,232.02633 282.85714,188.14815 " />
      <path
         sodipodi:type="inkscape:box3dside"
         id="path3606"
         style="fill:#d7d7ff;fill-rule:evenodd;stroke:none;stroke-width:1px;stroke-linecap:butt;stroke-linejoin:round;stroke-opacity:1"
         inkscape:box3dsidetype="14"
         d="m 305.71429,93.919095 0,48.259795 66.68554,54.24395 0,-42.18547 z"
         points="305.71429,142.17889 372.39983,196.42284 372.39983,154.23737 305.71429,93.919095 " />
      <path
         sodipodi:type="inkscape:box3dside"
         id="path3604"
         style="fill:#8686bf;fill-rule:evenodd;stroke:none;stroke-width:1px;stroke-linecap:butt;stroke-linejoin:round;stroke-opacity:1"
         inkscape:box3dsidetype="3"
         d="m 282.85714,145.03606 22.85715,-51.116965 0,48.259795 -22.85715,45.96926 z"
         points="305.71429,93.919095 305.71429,142.17889 282.85714,188.14815 282.85714,145.03606 " />
    </g>
    <g
       sodipodi:type="inkscape:box3d"
       id="g3612"
       style="fill:#ff0000"
       inkscape:perspectiveID="#perspective3554"
       inkscape:corner0="-0.056401933 : 0.25313706 : 0 : 1"
       inkscape:corner7="-0.089394874 : 0.099518486 : 0.25 : 1">
      <path
         sodipodi:type="inkscape:box3dside"
         id="path3622"
         style="fill:#afafde;fill-rule:evenodd;stroke:none;stroke-width:1px;stroke-linecap:butt;stroke-linejoin:round;stroke-opacity:1"
         inkscape:box3dsidetype="13"
         d="M 485.71429,653.55118 500,656.46461 l 72.2733,-17.94839 -13.29131,-1.80708 z"
         points="500,656.46461 572.2733,638.51622 558.98199,636.70914 485.71429,653.55118 " />
      <path
         sodipodi:type="inkscape:box3dside"
         id="path3614"
         style="fill:#353564;fill-rule:evenodd;stroke:none;stroke-width:1px;stroke-linecap:butt;stroke-linejoin:round;stroke-opacity:1"
         inkscape:box3dsidetype="6"
         d="m 485.71429,490.75033 0,162.80085 73.2677,-16.84204 0,-128.70209 z"
         points="485.71429,653.55118 558.98199,636.70914 558.98199,508.00705 485.71429,490.75033 " />
      <path
         sodipodi:type="inkscape:box3dside"
         id="path3624"
         style="fill:#e9e9ff;fill-rule:evenodd;stroke:none;stroke-width:1px;stroke-linecap:butt;stroke-linejoin:round;stroke-opacity:1"
         inkscape:box3dsidetype="11"
         d="m 558.98199,508.00705 13.29131,-1.85158 0,132.36075 -13.29131,-1.80708 z"
         points="572.2733,506.15547 572.2733,638.51622 558.98199,636.70914 558.98199,508.00705 " />
      <path
         sodipodi:type="inkscape:box3dside"
         id="path3616"
         style="fill:#4d4d9f;fill-rule:evenodd;stroke:none;stroke-width:1px;stroke-linecap:butt;stroke-linejoin:round;stroke-opacity:1"
         inkscape:box3dsidetype="5"
         d="M 485.71429,490.75033 500,487.76517 l 72.2733,18.3903 -13.29131,1.85158 z"
         points="500,487.76517 572.2733,506.15547 558.98199,508.00705 485.71429,490.75033 " />
      <path
         sodipodi:type="inkscape:box3dside"
         id="path3620"
         style="fill:#d7d7ff;fill-rule:evenodd;stroke:none;stroke-width:1px;stroke-linecap:butt;stroke-linejoin:round;stroke-opacity:1"
         inkscape:box3dsidetype="14"
         d="m 500,487.76517 0,168.69944 72.2733,-17.94839 0,-132.36075 z"
         points="500,656.46461 572.2733,638.51622 572.2733,506.15547 500,487.76517 " />
      <path
         sodipodi:type="inkscape:box3dside"
         id="path3618"
         style="fill:#8686bf;fill-rule:evenodd;stroke:none;stroke-width:1px;stroke-linecap:butt;stroke-linejoin:round;stroke-opacity:1"
         inkscape:box3dsidetype="3"
         d="M 485.71429,490.75033 500,487.76517 l 0,168.69944 -14.28571,-2.91343 z"
         points="500,487.76517 500,656.46461 485.71429,653.55118 485.71429,490.75033 " />
    </g>
  </g>
</svg>
