<?xml version="1.0" encoding="UTF-8" standalone="no"?>
<!-- Created with Inkscape (http://www.inkscape.org/) -->

<svg
   xmlns:dc="http://purl.org/dc/elements/1.1/"
   xmlns:cc="http://creativecommons.org/ns#"
   xmlns:rdf="http://www.w3.org/1999/02/22-rdf-syntax-ns#"
   xmlns:svg="http://www.w3.org/2000/svg"
   xmlns="http://www.w3.org/2000/svg"
   xmlns:sodipodi="http://sodipodi.sourceforge.net/DTD/sodipodi-0.dtd"
   xmlns:inkscape="http://www.inkscape.org/namespaces/inkscape"
   width="109.6635mm"
   height="89.504753mm"
   viewBox="0 0 388.57145 317.14282"
   id="svg3517"
   version="1.1"
   inkscape:version="0.91 r13725"
   sodipodi:docname="10-pumkin.svg">
  <defs
     id="defs3519" />
  <sodipodi:namedview
     id="base"
     pagecolor="#ffffff"
     bordercolor="#666666"
     borderopacity="1.0"
     inkscape:pageopacity="0.0"
     inkscape:pageshadow="2"
     inkscape:zoom="0.35"
     inkscape:cx="132.14287"
     inkscape:cy="205.71426"
     inkscape:document-units="px"
     inkscape:current-layer="layer1"
     showgrid="false"
     fit-margin-top="0"
     fit-margin-left="0"
     fit-margin-right="0"
     fit-margin-bottom="0"
     inkscape:window-width="1311"
     inkscape:window-height="744"
     inkscape:window-x="55"
     inkscape:window-y="24"
     inkscape:window-maximized="1" />
  <metadata
     id="metadata3522">
    <rdf:RDF>
      <cc:Work
         rdf:about="">
        <dc:format>image/svg+xml</dc:format>
        <dc:type
           rdf:resource="http://purl.org/dc/dcmitype/StillImage" />
        <dc:title></dc:title>
      </cc:Work>
    </rdf:RDF>
  </metadata>
  <g
     inkscape:label="Layer 1"
     inkscape:groupmode="layer"
     id="layer1"
     transform="translate(-242.85713,-420.93362)">
    <ellipse
       style="fill:#ff6600"
       id="path3525"
       cx="437.14285"
       cy="606.64789"
       rx="194.28572"
       ry="131.42857" />
    <rect
       style="fill:#00ff00"
       id="rect3527"
       width="37.142857"
       height="54.285713"
       x="414.28571"
       y="420.93362" />
    <path
       style="fill:none;fill-rule:evenodd;stroke:#000000;stroke-width:1px;stroke-linecap:butt;stroke-linejoin:miter;stroke-opacity:1"
       d="m 360,523.79075 c -12.19048,9.14286 -11.42857,3.80953 -11.42857,11.42858 0,0.95238 0.67343,2.1837 0,2.85714 -0.67344,0.67343 -2.00531,-0.42592 -2.85714,0 -11.89075,5.94537 3.05438,-0.19725 -2.85715,5.71428 -0.67343,0.67344 -2.1837,-0.67343 -2.85714,0 -0.68752,0.68752 0.68752,10.74106 0,11.42858 -0.67344,0.67343 -2.18371,-0.67344 -2.85714,0 -1.34687,1.34687 1.34687,4.36741 0,5.71428 -0.67344,0.67344 -2.18371,-0.67343 -2.85715,0 -1.34687,1.34687 1.34687,4.36742 0,5.71429 -0.67343,0.67343 -2.1837,-0.67344 -2.85714,0 -0.68752,0.68751 0.68752,10.74105 0,11.42857 -0.67343,0.67343 -2.18371,-0.67344 -2.85714,0 -0.67344,0.67343 0,1.90476 0,2.85714 0,0.95238 0,1.90476 0,2.85714 0,10.47619 0,20.95238 0,31.42858 0,6.66666 0,13.33333 0,20 0,0.95238 -0.67344,2.1837 0,2.85714 0.67343,0.67343 2.18371,-0.67344 2.85714,0 0,7.61905 -0.95238,-0.95238 2.85714,2.85714 1.92,1.92 -1.92,3.79429 0,5.71429 0.67344,0.67343 2.18371,-0.67344 2.85715,0 1.34687,1.34687 -1.34687,4.36741 0,5.71428 0.67343,0.67344 2.1837,-0.67343 2.85714,0 1.34687,1.34687 -1.34687,4.36742 0,5.71429 1.34687,1.34687 4.36742,-1.34687 5.71429,0 1.34687,1.34687 -1.34687,4.36741 0,5.71428 0.67343,0.67344 2.1837,-0.67343 2.85714,0 0.67343,0.67344 -0.67344,2.18371 0,2.85715 0.67343,0.67343 2.18371,-0.67344 2.85714,0 0.67344,0.67343 -0.67343,2.1837 0,2.85714 0.67344,0.67343 2.18371,-0.67344 2.85714,0 0.67344,0.67343 -0.67343,2.18371 0,2.85714 0.67344,0.67344 1.90477,0 2.85715,0 0.95238,0 1.90476,0 2.85714,0"
       id="path3531"
       inkscape:connector-curvature="0" />
    <path
       style="fill:none;fill-rule:evenodd;stroke:#000000;stroke-width:1px;stroke-linecap:butt;stroke-linejoin:miter;stroke-opacity:1"
       d="m 505.71429,538.07647 c 6.1402,12.28041 5.71428,7.16939 5.71428,14.28571 0,0.95238 -0.67343,2.18371 0,2.85715 0.67344,0.67343 2.18371,-0.67344 2.85714,0 0.67344,0.67343 -0.67343,2.1837 0,2.85714 0.67344,0.67343 2.18371,-0.67344 2.85715,0 0.67343,0.67343 -0.67344,2.18371 0,2.85714 0.67343,0.67344 2.1837,-0.67343 2.85714,0 0.67344,0.67344 -0.67344,2.18371 0,2.85714 0.67344,0.67344 2.18371,-0.67343 2.85714,0 1.90099,1.90099 -1.90099,3.8133 0,5.71429 0.67344,0.67343 1.90476,0 2.85715,0 0,0.95238 -0.67344,2.18371 0,2.85714 0.67343,0.67344 2.1837,-0.67343 2.85714,0 0,7.61905 -0.95238,-0.95238 2.85714,2.85715 0.67344,0.67343 -0.67343,2.1837 0,2.85714 0.67344,0.67343 2.18371,-0.67344 2.85714,0 0.58411,0.5841 -0.56641,7.43859 0,8.57143 0.60234,1.20467 2.25481,1.65246 2.85715,2.85714 0.98676,1.97352 -1.00292,13.2828 0,14.28571 0.67343,0.67344 2.1837,-0.67343 2.85714,0 0.67344,0.67344 0,1.90477 0,2.85715 0,0.95238 0,1.90476 0,2.85714 0,8.57143 0,17.14286 0,25.71429 0,6.66666 0,13.33333 0,20 0,0.95238 0.67344,2.1837 0,2.85714 -0.67344,0.67343 -2.18371,-0.67344 -2.85714,0 -0.88471,0.8847 0.8847,13.40101 0,14.28571 -0.67344,0.67344 -2.18371,-0.67343 -2.85715,0 -1.34687,1.34687 1.34687,4.36742 0,5.71429 -0.67343,0.67343 -2.1837,-0.67344 -2.85714,0 -0.67343,0.67343 0.67344,2.18371 0,2.85714 -0.67343,0.67344 -2.18371,-0.67343 -2.85714,0 -0.67344,0.67344 0,1.90476 0,2.85714 -0.95238,0 -2.18371,-0.67343 -2.85714,0 -0.67344,0.67344 0.67343,2.18371 0,2.85715 -0.67344,0.67343 -2.85715,0.95238 -2.85715,0 0,-0.95238 1.90476,0 2.85715,0"
       id="path3533"
       inkscape:connector-curvature="0" />
    <path
       style="fill:none;fill-rule:evenodd;stroke:#000000;stroke-width:1px;stroke-linecap:butt;stroke-linejoin:miter;stroke-opacity:1"
       d="m 422.85714,535.21933 c 0,26.66666 0,53.33333 0,80 0,4.7619 0,9.5238 0,14.28571 0,0.95238 -0.67343,2.18371 0,2.85714 0.67344,0.67344 2.18371,-0.67343 2.85715,0 1.42857,1.42857 -1.42858,7.14286 0,8.57143 0.67343,0.67344 2.1837,-0.67343 2.85714,0 0.67343,0.67344 0,1.90476 0,2.85714 0,0.95238 0,1.90477 0,2.85715 0,4.7619 0,9.52381 0,14.28571 0,0.95238 -0.67344,2.18371 0,2.85714 0.67343,0.67344 1.90476,0 2.85714,0"
       id="path3535"
       inkscape:connector-curvature="0" />
    <path
       style="fill:none;fill-rule:evenodd;stroke:#000000;stroke-width:1px;stroke-linecap:butt;stroke-linejoin:miter;stroke-opacity:1"
       d="m 560,529.50504 c 2.85714,3.80952 5.71429,7.61905 8.57143,11.42857 0.95238,0 2.18371,-0.67343 2.85714,0 1.34687,1.34687 -1.34687,4.36742 0,5.71429 0.67344,0.67343 2.18371,-0.67344 2.85714,0 1.34687,1.34687 -1.34687,4.36741 0,5.71428 0.67344,0.67344 2.18371,-0.67343 2.85715,0 0.67343,0.67344 -0.67344,2.18371 0,2.85715 0.67343,0.67343 2.1837,-0.67344 2.85714,0 0.67344,0.67343 -0.67344,2.1837 0,2.85714 0.67344,0.67343 2.43123,-0.85184 2.85714,0 0,16.19047 -1.90476,0.95238 2.85715,5.71428 1.88235,1.88236 -1.88236,3.83194 0,5.71429 1.34687,1.34687 4.36741,-1.34687 5.71428,0 3.84,3.84 -3.84,1.87429 0,5.71429 0.67344,0.67343 2.18371,-0.67344 2.85714,0 0.68752,0.68751 -0.68751,10.74105 0,11.42857 0.67344,0.67343 2.18371,-0.67344 2.85715,0 0.0919,0.0919 0,7.87849 0,8.57143 0,17.14285 0,34.28571 0,51.42857 0,0.69293 0.0919,8.47954 0,8.57143 -0.67344,0.67343 -2.18371,-0.67344 -2.85715,0 -0.67343,0.67343 0,1.90476 0,2.85714 0,0.95238 0,1.90476 0,2.85714 0,7.61905 0.95239,-0.95238 -2.85714,2.85714 -2.8185,2.81851 5.85451,5.71429 -2.85714,5.71429"
       id="path3537"
       inkscape:connector-curvature="0" />
    <path
       style="fill:none;fill-rule:evenodd;stroke:#000000;stroke-width:1px;stroke-linecap:butt;stroke-linejoin:miter;stroke-opacity:1"
       d="m 322.85714,532.36218 c -3.80952,0.95238 -7.61904,1.90476 -11.42857,2.85715 0,0.95238 0.67344,2.1837 0,2.85714 -1.90099,1.90099 -3.81329,-1.90099 -5.71428,0 -0.67344,0.67343 0.67343,2.18371 0,2.85714 -0.67344,0.67344 -2.00531,-0.42592 -2.85715,0 -1.20467,0.60234 -1.65246,2.25481 -2.85714,2.85714 -0.85184,0.42592 -2.18371,-0.67343 -2.85714,0 -1.34687,1.34687 1.34687,4.36742 0,5.71429 -0.67344,0.67343 -2.18371,-0.67344 -2.85715,0 -0.67343,0.67343 0.67344,2.18371 0,2.85714 -0.67343,0.67344 -2.1837,-0.67343 -2.85714,0 -1.88235,1.88236 1.88235,3.83194 0,5.71429 -0.67343,0.67343 -2.18371,-0.67344 -2.85714,0 -1.34687,1.34687 1.34687,4.36741 0,5.71428 -0.67344,0.67344 -2.18371,-0.67343 -2.85714,0 -0.67344,0.67344 0,1.90477 0,2.85715 0,6.66666 0,13.33333 0,20 0,15.23809 0,30.47619 0,45.71428 0,0.69294 -0.0919,8.47955 0,8.57143 0.67343,0.67344 2.1837,-0.67343 2.85714,0 0.67343,0.67344 -0.67344,2.18371 0,2.85714 0.67343,0.67344 2.18371,-0.67343 2.85714,0 1.90099,1.90099 -1.90099,3.8133 0,5.71429 0.67344,0.67343 2.18371,-0.67344 2.85714,0 0.67344,0.67343 -0.67343,2.18371 0,2.85714 0.67344,0.67344 2.18371,-0.67343 2.85715,0 0.67343,0.67344 -0.67344,2.18371 0,2.85715 0.67343,0.67343 2.1837,-0.67344 2.85714,0 3.80952,3.80952 -4.7619,2.85714 2.85714,2.85714"
       id="path3539"
       inkscape:connector-curvature="0" />
  </g>
</svg>
