<?xml version="1.0" encoding="UTF-8" standalone="no"?>
<!-- Created with Inkscape (http://www.inkscape.org/) -->

<svg
   xmlns:dc="http://purl.org/dc/elements/1.1/"
   xmlns:cc="http://creativecommons.org/ns#"
   xmlns:rdf="http://www.w3.org/1999/02/22-rdf-syntax-ns#"
   xmlns:svg="http://www.w3.org/2000/svg"
   xmlns="http://www.w3.org/2000/svg"
   xmlns:sodipodi="http://sodipodi.sourceforge.net/DTD/sodipodi-0.dtd"
   xmlns:inkscape="http://www.inkscape.org/namespaces/inkscape"
   width="195.13652mm"
   height="159.51398mm"
   viewBox="0 0 691.42862 565.207"
   id="svg2"
   version="1.1"
   inkscape:version="0.91 r13725"
   sodipodi:docname="03-wigwam.svg">
  <defs
     id="defs4" />
  <sodipodi:namedview
     id="base"
     pagecolor="#37ffff"
     bordercolor="#666666"
     borderopacity="1.0"
     inkscape:pageopacity="0"
     inkscape:pageshadow="2"
     inkscape:zoom="0.35"
     inkscape:cx="335"
     inkscape:cy="525.71432"
     inkscape:document-units="px"
     inkscape:current-layer="layer1"
     showgrid="false"
     fit-margin-top="0"
     fit-margin-left="0"
     fit-margin-right="0"
     fit-margin-bottom="0"
     inkscape:window-width="1311"
     inkscape:window-height="744"
     inkscape:window-x="55"
     inkscape:window-y="24"
     inkscape:window-maximized="1" />
  <metadata
     id="metadata7">
    <rdf:RDF>
      <cc:Work
         rdf:about="">
        <dc:format>image/svg+xml</dc:format>
        <dc:type
           rdf:resource="http://purl.org/dc/dcmitype/StillImage" />
        <dc:title></dc:title>
      </cc:Work>
    </rdf:RDF>
  </metadata>
  <g
     inkscape:label="Layer 1"
     inkscape:groupmode="layer"
     id="layer1"
     transform="translate(-39.999996,-492.8695)">
    <path
       style="fill:#00ffff;fill-rule:evenodd;stroke:#000000;stroke-width:1.03780472px;stroke-linecap:butt;stroke-linejoin:miter;stroke-opacity:1"
       d="m 135.33144,855.21935 c 0,8.57143 0,17.14285 0,25.71428 0,0.95238 0.72532,2.18371 0,2.85715 -0.72531,0.67343 -2.35193,-0.67344 -3.07725,0 -0.95286,0.8847 0.95287,13.401 0,14.28571 -4.103,3.80952 -3.07725,-4.7619 -3.07725,2.85714 0,1.04925 0.12383,11.3136 0,11.42857 -0.72532,0.67344 -2.0515,0 -3.07725,0"
       id="path3338"
       inkscape:connector-curvature="0" />
    <rect
       style="fill:#00ff00"
       id="rect3342"
       width="691.42859"
       height="131.42857"
       x="39.999996"
       y="926.64795" />
    <path
       style="fill:#ffff00"
       d="m 442.28747,1004.8447 c -8.46245,-1.4209 -38.92725,-3.9426 -67.69957,-5.60365 -28.77233,-1.66106 -67.72024,-4.96649 -86.55093,-7.34537 -24.07668,-3.04163 -53.98672,-4.0806 -100.78292,-3.5008 -36.59991,0.45345 -66.544,0.26371 -66.54243,-0.42157 0.0173,-7.54595 11.04582,-39.29912 14.25353,-41.0388 2.31708,-1.25666 4.21286,-3.97272 4.21286,-6.03572 0,-3.57906 13.05528,-20.87963 23.00865,-30.49057 2.57765,-2.48897 4.69576,-6.34611 4.7069,-8.57143 0.0112,-2.22531 2.77156,-7.90317 6.13423,-12.61746 3.36268,-4.71428 6.12309,-10.57994 6.13424,-13.03477 0.0111,-2.45483 2.78981,-9.7856 6.17478,-16.29054 3.38498,-6.50497 6.15451,-13.1106 6.15451,-14.67914 0,-1.56857 4.29883,-8.76597 9.55295,-15.99426 14.93263,-20.54331 30.45609,-61.43855 37.9596,-100.00129 7.77111,-39.93803 16.35284,-73.94687 21.42559,-84.90823 2.70377,-5.84238 4.91594,-13.84451 4.91594,-17.78251 0,-3.938 2.67323,-17.15787 5.94052,-29.37748 3.26728,-12.21962 8.00965,-29.93178 10.53859,-39.36035 5.82101,-21.70224 12.58474,-42.50846 18.57613,-57.14285 3.57144,-8.7235 4.71088,-9.83668 4.81399,-4.70301 0.19394,9.65747 19.41264,48.86946 23.98377,48.93422 2.11562,0.03 3.84657,1.99477 3.84657,4.36622 0,2.37145 4.15429,8.34785 9.23176,13.2809 5.07748,4.93305 9.23177,10.08975 9.23177,11.45934 0,1.36959 3.80809,7.91699 8.46244,14.54978 10.70485,15.25521 42.46804,68.89886 48.62005,82.11255 2.56068,5.5 6.68945,13.41266 9.17505,17.58369 2.48561,4.17103 4.51928,10.10478 4.51928,13.18611 0,3.08134 2.76953,8.87147 6.15451,12.86697 3.38498,3.99549 6.15451,10.03768 6.15451,13.42708 0,5.60089 5.3671,19.70887 17.18631,45.17594 2.39495,5.16046 4.35447,10.67835 4.35447,12.26201 0,4.08071 18.8005,41.96894 36.39962,73.35534 1.98259,3.53571 5.13419,9.19777 7.00361,12.58237 9.13785,16.54403 17.61368,54.37374 19.5284,87.16003 1.95798,33.52634 1.78734,34.9514 -4.87492,40.71428 -3.86352,3.34197 -11.05272,5.98287 -16.32473,5.99677 -5.18145,0.014 -16.34465,0.5749 -24.8071,1.2473 -8.46244,0.6724 -22.31008,0.06 -30.77253,-1.3611 z"
       id="path3340"
       inkscape:connector-curvature="0" />
  </g>
</svg>
