<?xml version="1.0" encoding="UTF-8" standalone="no"?>
<!-- Created with Inkscape (http://www.inkscape.org/) -->

<svg
   xmlns:dc="http://purl.org/dc/elements/1.1/"
   xmlns:cc="http://creativecommons.org/ns#"
   xmlns:rdf="http://www.w3.org/1999/02/22-rdf-syntax-ns#"
   xmlns:svg="http://www.w3.org/2000/svg"
   xmlns="http://www.w3.org/2000/svg"
   xmlns:sodipodi="http://sodipodi.sourceforge.net/DTD/sodipodi-0.dtd"
   xmlns:inkscape="http://www.inkscape.org/namespaces/inkscape"
   width="162.49519mm"
   height="97.019371mm"
   viewBox="0 0 575.77037 343.76942"
   id="svg3385"
   version="1.1"
   inkscape:version="0.91 r13725"
   sodipodi:docname="earth-hut.svg">
  <defs
     id="defs3387" />
  <sodipodi:namedview
     id="base"
     pagecolor="#ffffff"
     bordercolor="#666666"
     borderopacity="1.0"
     inkscape:pageopacity="0.0"
     inkscape:pageshadow="2"
     inkscape:zoom="0.35"
     inkscape:cx="344.25891"
     inkscape:cy="525.7143"
     inkscape:document-units="px"
     inkscape:current-layer="layer1"
     showgrid="false"
     fit-margin-top="0"
     fit-margin-left="0"
     fit-margin-right="0"
     fit-margin-bottom="0"
     inkscape:window-width="1311"
     inkscape:window-height="744"
     inkscape:window-x="55"
     inkscape:window-y="24"
     inkscape:window-maximized="1" />
  <metadata
     id="metadata3390">
    <rdf:RDF>
      <cc:Work
         rdf:about="">
        <dc:format>image/svg+xml</dc:format>
        <dc:type
           rdf:resource="http://purl.org/dc/dcmitype/StillImage" />
        <dc:title></dc:title>
      </cc:Work>
    </rdf:RDF>
  </metadata>
  <g
     inkscape:label="Layer 1"
     inkscape:groupmode="layer"
     id="layer1"
     transform="translate(-30.741093,-714.30707)">
    <path
       style="fill:#e9afaf;fill-rule:evenodd;stroke:#000000;stroke-width:1px;stroke-linecap:butt;stroke-linejoin:miter;stroke-opacity:1"
       d="m 31.428571,1046.6479 c 4.761905,0.9524 9.467006,2.2548 14.285715,2.8572 2.835079,0.3543 5.714285,0 8.571428,0 7.619048,0 15.238096,0 22.857143,0 23.809523,0 47.619043,0 71.428573,0 8.57143,0 17.14286,0 25.71428,0 1.90477,0 3.80953,0 5.71429,0 1.90476,0 3.8664,0.4619 5.71429,0 2.066,-0.5165 3.62605,-2.4395 5.71428,-2.8572 2.80166,-0.5603 5.71429,0 8.57143,0 4.7619,0 9.52381,0 14.28571,0 1.90477,0 3.8664,0.462 5.71429,0 2.066,-0.5165 3.64828,-2.3406 5.71429,-2.8571 1.84789,-0.462 3.80952,0 5.71428,0 1.90476,0 3.80953,0 5.71429,0 0.95238,0 1.95363,0.3011 2.85714,0 2.02031,-0.6735 3.69398,-2.1837 5.71429,-2.8572 1.61199,-0.5373 6.69397,0 8.57142,0 2.30011,0 9.63528,-0.5977 11.42858,0 2.0203,0.6735 3.69398,2.1837 5.71428,2.8572 0.90351,0.3011 1.90476,0 2.85714,0 4.76191,0 9.52381,0 14.28572,0 4.7619,0 9.52381,0 14.28571,0 1.90476,0 3.84652,-0.3736 5.71429,0 2.95321,0.5906 5.61822,2.2665 8.57143,2.8571 3.2223,0.6445 10.54662,0 14.28571,0 8.57143,0 17.14286,0 25.71429,0 1.90476,0 3.80952,0 5.71428,0 0.95238,0 2.18371,0.6735 2.85715,0 0.67343,-0.6734 -0.67344,-2.1837 0,-2.8571 0.67343,-0.6735 1.90476,0 2.85714,0 0.95238,0 1.90476,0 2.85714,0 0.95238,0 2.85714,-0.9524 2.85714,0 0,0.9524 -3.80952,0 -2.85714,0 5.71429,0 11.42857,0 17.14286,0 0.95238,0 1.90476,0 2.85714,0 0.95238,0 2.18371,0.6734 2.85714,0 0.67344,-0.6735 -0.67343,-2.1837 0,-2.8572 0.67344,-0.6734 2.00531,0.426 2.85715,0 1.20467,-0.6023 1.90476,-1.9047 2.85714,-2.8571 2.85714,0 5.76977,0.5603 8.57143,0 2.08823,-0.4177 3.64828,-2.3407 5.71428,-2.8572 1.84789,-0.4619 3.80953,0 5.71429,0 3.80952,0 7.61905,0 11.42857,0 1.90476,0 3.84651,0.3736 5.71429,0 2.95321,-0.5906 5.61822,-2.2665 8.57143,-2.8571 1.86777,-0.3735 3.80952,0 5.71428,0 2.85714,0 5.71429,0 8.57143,0 8.57143,0 17.14286,0 25.71429,0 26.66666,0 53.33333,0 80,0 10.47619,0 20.95238,0 31.42857,0 1.90476,0 3.80952,0 5.71428,0 0.95238,0 2.18371,-0.6734 2.85715,0 0.67343,0.6734 0,1.9048 0,2.8571 0,0.9524 0.67343,2.1838 0,2.8572 -0.67344,0.6734 -2.85715,0.9524 -2.85715,0 0,-0.9524 2.85715,0.9524 2.85715,0 0,-1.3469 -2.25481,-1.6525 -2.85715,-2.8572 -0.56641,-1.1328 0.58411,-7.9873 0,-8.5714 -0.67343,-0.6734 -2.1837,0.6735 -2.85714,0 -1.34687,-1.3469 0.85184,-4.0106 0,-5.7143 -0.60234,-1.2046 -2.2548,-1.6524 -2.85714,-2.8571 -0.42592,-0.8518 0.42591,-2.0053 0,-2.8572 -0.60234,-1.2046 -2.25481,-1.6524 -2.85715,-2.8571 -0.85183,-1.7037 1.34687,-4.3674 0,-5.7143 -0.67343,-0.6734 -2.1837,0.6735 -2.85714,0 -1.34687,-1.3469 0.85184,-4.0106 0,-5.7143 -1.20468,-2.40932 -4.50961,-3.3049 -5.71428,-5.71425 -1.37143,-2.74286 1.37142,-2.97143 0,-5.71429 -0.60234,-1.20468 -2.25481,-1.65246 -2.85715,-2.85714 -0.42591,-0.85184 0.42592,-2.00531 0,-2.85714 -0.60234,-1.20468 -2.2548,-1.65247 -2.85714,-2.85715 -0.85184,-1.70367 0.60234,-3.90727 0,-5.71428 -1.72974,-5.18922 -2.44528,-5.30243 -5.71429,-8.57143 -0.95238,-0.95238 -2.43122,-1.57939 -2.85714,-2.85714 -0.60234,-1.80702 0.60234,-3.90727 0,-5.71429 -0.85183,-2.55551 -4.22007,-3.47296 -5.71428,-5.71429 -1.18129,-1.77192 -1.67586,-3.94236 -2.85715,-5.71428 -0.74711,-1.12066 -2.43122,-1.57939 -2.85714,-2.85714 -0.60234,-1.80702 0.60234,-3.90727 0,-5.71429 -0.42592,-1.27775 -2.2548,-1.65247 -2.85714,-2.85714 -0.42592,-0.85184 0.42591,-2.00531 0,-2.85715 -6.53801,-13.07602 1.1842,12.12405 -5.71429,-8.57142 -0.30117,-0.90351 0.42592,-2.00531 0,-2.85715 -0.60234,-1.20467 -2.43122,-1.57939 -2.85714,-2.85714 -0.60234,-1.80702 0,-3.80952 0,-5.71429 0,-0.95238 0.42592,-2.0053 0,-2.85714 -0.60234,-1.20468 -1.90476,-1.90476 -2.85714,-2.85714 0,-1.90476 0.60233,-3.90727 0,-5.71429 -0.42592,-1.27775 -2.25481,-1.65246 -2.85715,-2.85714 -0.42591,-0.85183 0,-1.90476 0,-2.85714 -0.95238,-1.90476 -1.67586,-3.94236 -2.85714,-5.71429 -0.74711,-1.12066 -2.43123,-1.57939 -2.85714,-2.85714 -1.20468,-3.61403 1.20467,-7.81454 0,-11.42857 -0.42592,-1.27776 -2.11004,-1.73648 -2.85715,-2.85715 -1.21384,-1.82077 -8.10811,-15.28959 -8.57142,-17.14285 -0.46198,-1.84789 0,-3.80953 0,-5.71429 -0.95239,-1.90476 -2.34065,-3.64828 -2.85715,-5.71428 -0.46197,-1.84789 0.85184,-4.01062 0,-5.71429 -1.20467,-2.40935 -4.50961,-3.30493 -5.71428,-5.71429 -0.85184,-1.70367 0.46197,-3.86639 0,-5.71428 -0.46332,-1.85327 -7.35758,-15.32209 -8.57143,-17.14286 -0.74711,-1.12066 -2.11004,-1.73648 -2.85714,-2.85714 -5.62638,-8.43956 -0.0879,-2.98901 -5.71429,-11.42857 -0.74711,-1.12067 -2.11003,-1.73648 -2.85714,-2.85715 -1.18129,-1.77192 -1.67586,-3.94236 -2.85715,-5.71428 -0.7471,-1.12066 -2.11003,-1.73648 -2.85714,-2.85714 -1.18128,-1.77193 -1.35129,-4.20844 -2.85714,-5.71429 -1.50585,-1.50585 -3.94236,-1.67586 -5.71429,-2.85714 -3.93057,-2.62039 -2.93851,-4.40777 -5.71428,-8.57143 -4.37594,-6.56391 -1.632,1.22515 -8.57143,-5.71429 -0.67344,-0.67343 0.30117,-1.95363 0,-2.85714 -0.67344,-2.0203 -1.3513,-4.20844 -2.85714,-5.71429 -11.15067,-11.15067 -1.53443,0.66136 -8.57143,-2.85714 -2.40936,-1.20468 -3.47296,-4.22007 -5.71429,-5.71428 -20.71595,-10.35798 4.51754,3.01169 -8.57143,-5.71429 -3.54385,-2.36257 -7.88472,-3.35172 -11.42857,-5.71429 -1.12066,-0.7471 -1.57939,-2.43122 -2.85714,-2.85714 -1.80702,-0.60234 -3.90727,0.60234 -5.71429,0 -1.27775,-0.42592 -1.57939,-2.43122 -2.85714,-2.85714 -1.80702,-0.60234 -3.90727,0.60234 -5.71429,0 -1.27775,-0.42592 -1.57939,-2.43123 -2.85714,-2.85714 -3.61403,-1.20468 -8.02123,1.70367 -11.42857,0 -0.85184,-0.42592 0.85184,-2.43123 0,-2.85715 -1.70367,-0.85183 -3.90727,0.60234 -5.71429,0 -1.27775,-0.42591 -1.65246,-2.2548 -2.85714,-2.85714 -2.28571,-1.14286 -6.28571,1.14286 -8.57143,0 -1.20467,-0.60234 -1.65246,-2.2548 -2.85714,-2.85714 -0.73872,-0.36936 -15.11771,0 -17.14286,0 -12.38095,0 -24.7619,0 -37.14285,0 -14.28572,0 -28.57143,0 -42.85715,0 -6.66666,0 -13.33333,0 -20,0 -2.85714,0 -5.8609,-0.90351 -8.57143,0 -1.27775,0.42592 -1.65246,2.2548 -2.85714,2.85714 -1.54996,0.77498 -10.64679,-0.78178 -11.42857,0 -0.67344,0.67344 0.67344,2.18371 0,2.85714 -0.76675,0.76675 -9.41633,-0.67075 -11.42857,0 -16.18768,8.09384 4.25918,-1.06479 -11.42857,2.85715 -5.67396,1.41849 -11.4689,7.15293 -17.14286,8.57142 -1.84789,0.46198 -3.90727,-0.60233 -5.71429,0 -1.27775,0.42592 -1.73647,2.11004 -2.85714,2.85715 -1.77192,1.18128 -4.20844,1.35129 -5.71428,2.85714 -1.50585,1.50585 -1.3513,4.20844 -2.85715,5.71429 -6.23935,6.23934 -4.63887,0.59391 -11.42857,2.85714 -2.2512,0.7504 -8.68148,10.05503 -11.42857,11.42857 -0.85184,0.42592 -2.00531,-0.42592 -2.85714,0 -1.20468,0.60234 -1.65247,2.2548 -2.85715,2.85714 -0.85183,0.42592 -2.1837,-0.67343 -2.85714,0 -1.50585,1.50585 -1.35129,4.20844 -2.85714,5.71429 -0.67344,0.67343 -2.18371,-0.67344 -2.85714,0 -0.67344,0.67343 0.67343,2.18371 0,2.85714 -0.67344,0.67344 -2.18371,-0.67343 -2.85715,0 -0.67343,0.67344 0.67344,2.18371 0,2.85714 -0.67343,0.67344 -2.1837,-0.67343 -2.85714,0 -0.67344,0.67344 0.42592,2.00531 0,2.85715 -0.60234,1.20467 -2.2548,1.65246 -2.85714,2.85714 -0.42592,0.85184 0.67343,2.18371 0,2.85714 -0.67344,0.67344 -2.18371,-0.67343 -2.85715,0 -0.67343,0.67344 0.30117,1.95364 0,2.85715 -6.89849,20.69547 0.82373,-4.5046 -5.71428,8.57142 -0.42592,0.85184 0.67343,2.18371 0,2.85715 -0.67344,0.67343 -2.18371,-0.67344 -2.85714,0 -0.67344,0.67343 0,1.90476 0,2.85714 0,1.90476 0.85183,4.01062 0,5.71429 -0.42592,0.85183 -2.18371,-0.67344 -2.85715,0 -0.67343,0.67343 0.42592,2.0053 0,2.85714 -1.20467,2.40935 -4.50961,3.30493 -5.71428,5.71428 -0.42592,0.85184 0.42591,2.00531 0,2.85715 -0.60234,1.20467 -2.25481,1.65246 -2.85715,2.85714 -0.42591,0.85184 0.42592,2.00531 0,2.85714 -0.60233,1.20468 -2.2548,1.65247 -2.85714,2.85715 -0.42592,0.85183 0.67344,2.1837 0,2.85714 -0.67343,0.67343 -2.00531,-0.42592 -2.85714,0 -1.20468,0.60234 -1.90476,1.90476 -2.85714,2.85714 -0.95239,0.95238 -2.43123,1.57939 -2.85715,2.85714 -0.004,0.0129 0.003,8.56871 0,8.57143 -0.67343,0.67344 -2.43122,-0.85183 -2.85714,0 -0.851835,1.70367 0,3.80953 0,5.71429 0,0.95238 0.67344,2.18371 0,2.85714 -0.673435,0.67344 -2.005307,-0.42592 -2.857143,0 -6.3173,3.15865 -0.886633,1.77327 -2.857143,5.71429 -0.602338,1.20467 -2.254804,1.65246 -2.857143,2.85714 -0.425917,0.85184 0.425918,2.00531 0,2.85714 -1.714285,3.42857 -6.857142,5.14286 -8.571428,8.57143 -0.851836,1.70367 0.851835,4.01062 0,5.71429 -0.602339,1.20467 -2.254804,1.65246 -2.857143,2.85714 -0.851835,1.70367 0.851835,4.01062 0,5.71429 -0.602339,1.20467 -2.254804,1.65246 -2.857143,2.85714 -0.425918,0.85183 0.425918,2.00531 0,2.85714 -1.204677,2.40936 -4.509608,3.30493 -5.714286,5.71429 -0.425917,0.85183 0.425918,2.00531 0,2.85714 -0.602338,1.20468 -2.254804,1.65247 -2.857142,2.85714 -0.425918,0.85184 0.425917,2.00531 0,2.85715 -1.204678,2.40935 -4.509609,3.30493 -5.714286,5.71428 -0.425918,0.85184 0.425918,2.00531 0,2.85714 -0.602339,1.20468 -2.254804,1.65247 -2.857143,2.85715 -0.516619,1.03324 0,12.29845 0,14.28571 0,19.04762 0,38.09524 0,57.14286 0,1.04925 0.114975,11.3136 0,11.42857 -0.673435,0.67344 -2.183708,-0.67343 -2.857143,0 -0.687517,0.68752 0.687517,10.74101 0,11.42861 -0.673435,0.6734 -2.183708,-0.6735 -2.857143,0 -0.673435,0.6734 0.673435,2.1837 0,2.8571 -0.673435,0.6734 -2.183708,-0.6734 -2.857143,0 -0.673435,0.6734 0.673435,2.1837 0,2.8571 -0.673435,0.6735 -2.183707,-0.6734 -2.857142,0 -0.673435,0.6735 0,1.9048 0,2.8572 0,0.9524 0.673435,2.1837 0,2.8571 -0.673435,0.6735 -2.183708,-0.6734 -2.857143,0 -0.673435,0.6735 0.673435,2.1837 0,2.8572 -0.673435,0.6734 -2.183708,-0.6735 -2.857143,0 -1.34687,1.3468 1.34687,4.3674 0,5.7143 -0.673435,0.6734 -2.183708,-0.6735 -2.857143,0 -0.673435,0.6734 0.673435,2.1837 0,2.8571 -0.673435,0.6734 -2.183708,-0.6734 -2.857143,0 -0.673435,0.6734 0.952381,2.8571 0,2.8571 -0.952381,0 0,-1.9047 0,-2.8571 -1.904762,4.7619 -3.809524,9.5238 -5.714286,14.2857 z"
       id="path3393"
       inkscape:connector-curvature="0" />
    <path
       style="fill:#2b0000;fill-rule:evenodd;stroke:#000000;stroke-width:1px;stroke-linecap:butt;stroke-linejoin:miter;stroke-opacity:1"
       d="m 157.14286,1040.9336 c 1.90476,-3.8095 4.13246,-7.474 5.71428,-11.4285 0.51263,-1.2816 0,-6.957 0,-8.5715 0,-7.619 0,-15.2381 0,-22.85711 0,-0.67894 -0.32018,-10.7882 0,-11.42857 0.60234,-1.20468 2.25481,-1.65247 2.85715,-2.85714 0.85183,-1.70367 -0.85184,-4.01062 0,-5.71429 3.53057,-7.06116 2.85714,0.98622 2.85714,-5.71429 0,-6.66666 0,-13.33333 0,-20 0,-0.95238 -0.67344,-2.1837 0,-2.85714 0.67343,-0.67343 2.18371,0.67344 2.85714,0 0,-7.61905 -0.95238,0.95238 2.85714,-2.85714 2,-2 -2,-3.71429 0,-5.71429 0.67344,-0.67343 2.18371,0.67344 2.85715,0 1.34687,-1.34687 -1.34687,-4.36741 0,-5.71428 1.42857,-1.42857 7.14285,1.42857 8.57143,0 0.67343,-0.67344 -0.67344,-2.18371 0,-2.85715 0.68751,-0.68751 10.74105,0.68752 11.42857,0 0.67343,-0.67343 -0.67344,-2.1837 0,-2.85714 0.0919,-0.0919 7.87849,0 8.57143,0 14.28571,0 28.57142,0 42.85714,0 4.7619,0 9.52381,0 14.28571,0 0.95238,0 1.9332,-0.23098 2.85715,0 2.92177,0.73044 5.64965,2.1267 8.57142,2.85714 1.84789,0.46198 3.80953,0 5.71429,0 5.71429,0 11.42857,0 17.14286,0 0.95238,0 1.90476,0 2.85714,0 0.95238,0 2.18371,-0.67343 2.85714,0 0.67344,0.67344 -0.67343,2.18371 0,2.85715 1.34687,1.34687 4.01062,-0.85184 5.71429,0 2.40935,1.20467 3.30493,4.50961 5.71428,5.71428 0.85184,0.42592 2.00531,-0.42591 2.85715,0 1.20467,0.60234 1.65246,2.25481 2.85714,2.85715 1.70367,0.85183 3.90727,-0.60234 5.71429,0 2.0203,0.67343 3.69398,2.1837 5.71428,2.85714 0.90351,0.30117 2.18371,-0.67344 2.85714,0 0.67344,0.67343 -0.42591,2.00531 0,2.85714 5.94538,11.89075 -0.19724,-3.05439 5.71429,2.85714 0.67344,0.67344 -0.67344,2.18371 0,2.85715 0.67344,0.67343 2.18371,-0.67344 2.85714,0 0.67344,0.67343 -0.67343,2.18371 0,2.85714 0.67344,0.67344 2.18371,-0.67343 2.85715,0 1.34687,1.34687 -1.34687,4.36742 0,5.71429 0.67343,0.67343 2.1837,-0.67344 2.85714,0 0.67343,0.67343 -0.67344,2.1837 0,2.85714 0.67343,0.67343 2.18371,-0.67344 2.85714,0 1.34687,1.34687 -1.34687,4.36741 0,5.71428 0.67344,0.67344 2.18371,-0.67343 2.85714,0 1.42858,1.42858 -1.42857,7.14286 0,8.57143 0.67344,0.67344 2.18371,-0.67343 2.85715,0 1.42857,1.42857 -1.42857,7.14286 0,8.57143 0.67343,0.67344 2.1837,-0.67343 2.85714,0 0.88471,0.88471 -0.88471,13.40104 0,14.28574 0.67344,0.6734 2.43123,-0.8519 2.85714,0 0.85184,1.7036 0,3.8095 0,5.7143 0,0.9523 -0.67343,2.1837 0,2.8571 0.67344,0.6734 2.18371,-0.6734 2.85715,0 1.42857,1.4286 -1.42858,7.1429 0,8.5714 0.67343,0.6735 2.1837,-0.6734 2.85714,0 0.67343,0.6735 0,1.9048 0,2.8572 0,0.6929 0.0919,8.4795 0,8.5714 -0.67344,0.6734 -2.18371,-0.6734 -2.85714,0 -0.67344,0.6734 0.67343,2.1837 0,2.8571 -1.34687,1.3469 -4.36742,-1.3468 -5.71429,0 -0.67344,0.6735 0.67344,2.1838 0,2.8572 -0.67344,0.6734 -2.18371,-0.6734 -2.85714,0 -0.67344,0.6734 0.67343,2.1837 0,2.8571 -0.67344,0.6735 -1.90476,0 -2.85715,0 -0.69293,0 -8.47954,0.092 -8.57142,0 -0.67344,-0.6734 0.67343,-2.1837 0,-2.8571 -0.61086,-0.6109 -9.85336,0.5251 -11.42858,0 -2.0203,-0.6734 -3.69398,-2.1837 -5.71428,-2.8572 -0.90351,-0.3011 -2.18371,0.6735 -2.85714,0 -0.67344,-0.6734 0.67343,-2.1837 0,-2.8571 -0.67344,-0.6734 -2.18371,0.6734 -2.85715,0 -0.67343,-0.6734 0.67344,-2.1837 0,-2.8571 -0.67343,-0.6735 -2.1837,0.6734 -2.85714,0 -0.67344,-0.6735 0.67344,-2.1837 0,-2.8572 -0.67344,-0.6734 -2.18371,0.6735 -2.85714,0 -0.67344,-0.6734 0.67343,-2.1837 0,-2.8571 -1.34687,-1.3469 -4.36742,1.3468 -5.71429,0 -0.67343,-0.6735 0.67344,-2.1837 0,-2.8572 -0.67343,-0.6734 -2.18371,0.6735 -2.85714,0 -0.67344,-0.6734 0.67343,-2.1837 0,-2.8571 -1.34687,-1.3469 -4.36742,1.3469 -5.71429,0 -0.67343,-0.6734 0.67344,-2.1837 0,-2.8572 -0.67343,-0.6734 -1.90476,0 -2.85714,0 -0.95238,0 -1.90476,0 -2.85714,0 -3.95892,0 -14.00913,-0.6267 -17.14286,0 -2.95321,0.5907 -5.61822,2.2665 -8.57143,2.8572 -7.93651,1.5873 -4.7619,-2.381 -14.28571,0 -1.30666,0.3267 -1.57939,2.4312 -2.85715,2.8571 -2.06756,0.6892 -10.48674,-0.9418 -11.42857,0 -0.67343,0.6735 0.67344,2.1837 0,2.8572 -1.34687,1.3468 -4.01061,-0.8519 -5.71428,0 -2.40936,1.2047 -3.30493,4.5096 -5.71429,5.7143 -2.69374,1.3468 -5.87769,1.5102 -8.57143,2.8571 -1.20467,0.6023 -1.57939,2.4312 -2.85714,2.8571 -1.80702,0.6024 -3.90727,-0.6023 -5.71429,0 -1.27775,0.426 -1.65246,2.2549 -2.85714,2.8572 -0.73871,0.3693 -15.11771,0 -17.14286,0 -0.69293,0 -8.47954,-0.092 -8.57142,0 -0.67344,0.6734 0.67343,2.1837 0,2.8571 -0.67344,0.6735 -1.90477,0 -2.85715,0 -0.95238,0 -1.90476,0 -2.85714,0 -0.95238,0 -2.85714,0.9524 -2.85714,0 0,-0.9523 3.80952,0 2.85714,0 -16.19048,0 -0.95238,-1.9047 -5.71429,2.8572 -1.95918,1.9592 -3.7551,-1.9592 -5.71428,0 -0.67344,0.6734 0.67343,2.1837 0,2.8571 -3.01169,3.0117 -7.47403,-7.2961 -11.42857,-5.7143 -22.35867,-3.3262 -2.08773,10.6592 -5.71429,14.2857 -3.80952,3.8096 -2.85714,-4.7619 -2.85714,2.8572"
       id="path3395"
       inkscape:connector-curvature="0" />
  </g>
</svg>
