<?xml version="1.0" encoding="UTF-8" standalone="no"?>
<!-- Created with Inkscape (http://www.inkscape.org/) -->

<svg
   xmlns:dc="http://purl.org/dc/elements/1.1/"
   xmlns:cc="http://creativecommons.org/ns#"
   xmlns:rdf="http://www.w3.org/1999/02/22-rdf-syntax-ns#"
   xmlns:svg="http://www.w3.org/2000/svg"
   xmlns="http://www.w3.org/2000/svg"
   xmlns:sodipodi="http://sodipodi.sourceforge.net/DTD/sodipodi-0.dtd"
   xmlns:inkscape="http://www.inkscape.org/namespaces/inkscape"
   width="210mm"
   height="297mm"
   viewBox="0 0 744.09448819 1052.3622047"
   id="svg3599"
   version="1.1"
   inkscape:version="0.91 r13725"
   sodipodi:docname="12-jug.svg">
  <defs
     id="defs3601" />
  <sodipodi:namedview
     id="base"
     pagecolor="#ffffff"
     bordercolor="#666666"
     borderopacity="1.0"
     inkscape:pageopacity="0.0"
     inkscape:pageshadow="2"
     inkscape:zoom="0.35"
     inkscape:cx="375"
     inkscape:cy="520"
     inkscape:document-units="px"
     inkscape:current-layer="layer1"
     showgrid="false"
     inkscape:window-width="1311"
     inkscape:window-height="744"
     inkscape:window-x="55"
     inkscape:window-y="24"
     inkscape:window-maximized="1" />
  <metadata
     id="metadata3604">
    <rdf:RDF>
      <cc:Work
         rdf:about="">
        <dc:format>image/svg+xml</dc:format>
        <dc:type
           rdf:resource="http://purl.org/dc/dcmitype/StillImage" />
        <dc:title></dc:title>
      </cc:Work>
    </rdf:RDF>
  </metadata>
  <g
     inkscape:label="Layer 1"
     inkscape:groupmode="layer"
     id="layer1">
    <ellipse
       style="fill:#ff6600"
       id="path3607"
       cx="391.42856"
       cy="635.2193"
       rx="191.42857"
       ry="262.85715" />
    <ellipse
       style="fill:#ff6600"
       id="path3609"
       cx="388.57144"
       cy="332.36218"
       rx="85.714287"
       ry="97.14286" />
    <rect
       style="fill:#ff6600"
       id="rect3611"
       width="88.571426"
       height="137.14285"
       x="348.57144"
       y="169.50504" />
    <path
       style="fill:none;fill-rule:evenodd;stroke:#000000;stroke-width:1px;stroke-linecap:butt;stroke-linejoin:miter;stroke-opacity:1"
       d="m 285.71429,478.07647 c -12.35252,3.08813 -7.50181,2.85714 -14.28572,2.85714 -0.95238,0 -2.18371,0.67344 -2.85714,0 -0.67344,-0.67343 0.67343,-2.18371 0,-2.85714 -1.34687,-1.34687 -4.01062,0.85183 -5.71429,0 -1.20467,-0.60234 -1.65246,-2.25481 -2.85714,-2.85714 -0.85184,-0.42592 -2.00531,0.42591 -2.85714,0 -1.20468,-0.60234 -1.65247,-2.25481 -2.85715,-2.85715 -0.84992,-0.42496 -15.94096,0 -17.14285,0 -10.47619,0 -20.95238,0 -31.42857,0 -5.71429,0 -11.42858,0 -17.14286,0 -0.95238,0 -2.18371,0.67344 -2.85714,0 -0.67344,-0.67343 0.67343,-2.18371 0,-2.85714 -0.58411,-0.5841 -7.4386,0.56642 -8.57143,0 -1.20468,-0.60234 -1.65247,-2.2548 -2.85715,-2.85714 -0.85183,-0.42592 -1.90476,0 -2.85714,0 -1.90476,0 -3.90727,0.60234 -5.71428,0 -1.27776,-0.42592 -1.65247,-2.25481 -2.85715,-2.85715 -0.73871,-0.36935 -15.11771,0 -17.14285,0 -1.28674,0 -7.70191,-0.43476 -8.57143,0 -1.20468,0.60234 -1.57939,2.43123 -2.85715,2.85715 -1.80701,0.60234 -3.80952,0 -5.71428,0 -0.95238,0 -2.00531,-0.42592 -2.85714,0 -1.20468,0.60234 -1.65247,2.2548 -2.85715,2.85714 -1.70367,0.85184 -4.36741,-1.34687 -5.71428,0 -1.34687,1.34687 1.34687,4.36742 0,5.71429 -0.67344,0.67343 -2.18371,-0.67344 -2.85715,0 -0.67343,0.67343 0.67344,2.1837 0,2.85714 -7.61904,0 0.95239,-0.95238 -2.85714,2.85714 -0.67343,0.67344 -2.18371,-0.67343 -2.85714,0 -0.67344,0.67344 0.42592,2.00531 0,2.85714 -0.60234,1.20468 -2.25481,1.65247 -2.85714,2.85715 -0.42592,0.85183 0.67343,2.1837 0,2.85714 -0.67344,0.67343 -2.00531,-0.42592 -2.85715,0 -11.890741,5.94537 3.05439,-0.19724 -2.85714,5.71429 -1.505847,1.50584 -4.208439,1.35129 -5.714286,2.85714 -0.673435,0.67343 0.673435,2.18371 0,2.85714 -0.673435,0.67344 -2.183708,-0.67343 -2.857143,0 -0.673435,0.67344 0.30117,1.95364 0,2.85714 -0.673435,2.02031 -2.183707,3.69398 -2.857142,5.71429 -0.30117,0.90351 0.673435,2.18371 0,2.85714 -0.673435,0.67344 -2.183708,-0.67343 -2.857143,0 -1.34687,1.34687 0.851835,4.01062 0,5.71429 -0.602339,1.20468 -2.254805,1.65246 -2.857143,2.85714 -0.986762,1.97353 1.002912,13.2828 0,14.28572 -0.673435,0.67343 -2.183708,-0.67344 -2.857143,0 -1.428571,1.42857 1.428571,7.14285 0,8.57142 -0.673435,0.67344 -2.183708,-0.67343 -2.857143,0 -1.34687,1.34687 1.34687,4.36742 0,5.71429 -0.673435,0.67343 -2.183708,-0.67344 -2.857143,0 -1.34687,1.34687 0.851836,4.01061 0,5.71429 -0.602338,1.20467 -2.254804,1.65246 -2.857143,2.85714 -0.851835,1.70367 0.851836,4.01061 0,5.71428 -0.602338,1.20468 -2.254804,1.65247 -2.857142,2.85715 -0.851836,1.70367 0.851835,4.01061 0,5.71428 -0.602339,1.20468 -2.254805,1.65247 -2.857143,2.85715 -0.425918,0.85183 0.425917,2.0053 0,2.85714 -0.602339,1.20468 -2.254805,1.65246 -2.857143,2.85714 -0.425918,0.85184 0,1.90476 0,2.85714 0,1.90477 0.602338,3.90727 0,5.71429 -0.425918,1.27775 -2.254804,1.65247 -2.857143,2.85714 -0.986762,1.97353 1.002913,13.2828 0,14.28572 -0.673435,0.67343 -2.183708,-0.67344 -2.857143,0 -0.673435,0.67343 0,1.90476 0,2.85714 0,1.98726 0.516619,13.25248 0,14.28571 -0.602338,1.20468 -2.254804,1.65247 -2.857143,2.85715 -0.851835,1.70367 0.851836,4.01061 0,5.71428 -0.602338,1.20468 -2.254804,1.65247 -2.857143,2.85715 -1.142857,2.28571 1.142858,6.28571 0,8.57142 -0.602338,1.20468 -2.254804,1.65247 -2.857142,2.85715 -0.425918,0.85183 0,1.90476 0,2.85714 0,0.95238 0,1.90476 0,2.85714 0,3.80953 0,7.61905 0,11.42857 0,14.28572 0,28.57143 0,42.85715 0,10.47619 0,20.95238 0,31.42857 0,1.98726 -0.51662,13.25247 0,14.28571 0.602338,1.20468 2.254804,1.65247 2.857142,2.85715 0.425918,0.85183 -0.425917,2.0053 0,2.85714 0.602339,1.20468 2.254805,1.65246 2.857143,2.85714 0.851836,1.70367 -1.34687,4.36742 0,5.71429 0.673435,0.67343 2.183708,-0.67344 2.857143,0 1.864078,1.86407 -1.864078,3.8502 0,5.71428 7.619048,0 -0.952381,-0.95238 2.857143,2.85715 7.619048,0 -0.952381,-0.95239 2.857143,2.85714 0.673435,0.67343 2.183708,-0.67344 2.857143,0 0.673435,0.67343 -0.425918,2.00531 0,2.85714 0.602338,1.20468 2.254804,1.65247 2.857143,2.85714 0.425917,0.85184 -0.673435,2.18371 0,2.85715 0.673435,0.67343 2.183707,-0.67344 2.857142,0 0.673435,0.67343 -0.673435,2.1837 0,2.85714 1.34687,1.34687 4.367416,-1.34687 5.714286,0 0.673435,0.67343 -0.425918,2.00531 0,2.85714 0.602339,1.20468 2.254804,1.65247 2.857143,2.85715 0.425918,0.85183 -0.673435,2.1837 0,2.85714 0.673435,0.67343 2.183708,-0.67344 2.857143,0 0.673435,0.67343 -0.673435,2.18371 0,2.85714 0.673435,0.67344 2.005307,-0.42592 2.857143,0 11.890744,5.94537 -3.054388,-0.19724 2.857143,5.71429 0.673435,0.67343 2.183707,-0.67344 2.857142,0 0.673435,0.67343 -0.673435,2.1837 0,2.85714 1.34687,1.34687 4.367416,-1.34687 5.714286,0 0.673435,0.67343 -0.673435,2.18371 0,2.85714 0.673435,0.67344 2.183708,-0.67343 2.857143,0 0.67344,0.67344 -0.673435,2.18371 0,2.85715 0.67344,0.67343 2.18371,-0.67344 2.85714,0 0.67344,0.67343 -0.67343,2.1837 0,2.85714 0.67344,0.67343 2.18371,-0.67344 2.85715,0 0.67343,0.67343 -0.67344,2.18371 0,2.85714 2,2 3.71428,-2 5.71428,0 0.67344,0.67344 -0.67343,2.18371 0,2.85714 1.34687,1.34687 4.36742,-1.34687 5.71429,0 0.67343,0.67344 -0.67344,2.18371 0,2.85715 6,6 -0.28572,-6 5.71428,0 0.67344,0.67343 -0.67343,2.1837 0,2.85714 0.68752,0.68752 10.74106,-0.68752 11.42857,0 0.67344,0.67343 -0.67343,2.18371 0,2.85714 0.67344,0.67344 1.90477,0 2.85715,0 6.66666,0 13.33333,0 20,0 11.42857,0 22.85714,0 34.28571,0 0.95238,0 1.90476,0 2.85714,0 0.95239,0 2.18371,0.67344 2.85715,0 0.67343,-0.67343 -0.67344,-2.18371 0,-2.85714 0.68751,-0.68752 10.74105,0.68752 11.42857,0 0.67343,-0.67344 -0.85184,-2.43123 0,-2.85714 1.07184,-0.53592 15.44179,0 17.14286,0 0.95238,0 2.0053,0.42591 2.85714,0 1.20468,-0.60234 1.57939,-2.43123 2.85714,-2.85715 0.0129,-0.004 8.5687,0.003 8.57143,0 0,-7.61904 -0.95238,0.95238 2.85714,-2.85714 0.67344,-0.67343 -0.67343,-2.18371 0,-2.85714 0.67344,-0.67344 2.00531,0.42592 2.85715,0 1.20467,-0.60234 1.90476,-1.90476 2.85714,-2.85714 0.95238,-0.95239 2.2548,-1.65247 2.85714,-2.85715 0.42592,-0.85183 -0.67343,-2.18371 0,-2.85714 0.67344,-0.67344 2.00531,0.42592 2.85714,0 0.75861,-0.3793 8.19213,-7.81283 8.57143,-8.57143 0.43477,-0.86952 0,-7.28469 0,-8.57143"
       id="path3623"
       inkscape:connector-curvature="0" />
    <path
       style="fill:none;fill-rule:evenodd;stroke:#000000;stroke-width:1px;stroke-linecap:butt;stroke-linejoin:miter;stroke-opacity:1"
       d="m 242.85714,518.07647 c -3.80952,-2.85714 -7.61904,-5.71429 -11.42857,-8.57143 0,-0.95238 0.67344,-2.18371 0,-2.85714 -0.67343,-0.67344 -2.18371,0.67343 -2.85714,0 -0.67344,-0.67344 0.67343,-2.18371 0,-2.85715 -0.67344,-0.67343 -1.90476,0 -2.85714,0 -0.95239,0 -1.90477,0 -2.85715,0 -8.57143,0 -17.14285,0 -25.71428,0 -8,0 -3.42857,0 -11.42857,0 -0.95239,0 -1.90477,0 -2.85715,0 -0.95238,0 -2.85714,0.95238 -2.85714,0 0,-0.95238 1.90476,0 2.85714,0 0.95238,0 2.85715,-0.95238 2.85715,0 0,2.71385 -7.87749,4.82652 -11.42858,5.71429 -5.71428,1.42857 0,-2.85714 -8.57142,0 -1.27776,0.42592 -1.65247,2.2548 -2.85715,2.85714 -0.85183,0.42592 -2.1837,-0.67343 -2.85714,0 -1.42857,1.42857 1.42857,7.14286 0,8.57143 -0.67344,0.67344 -2.18371,-0.67343 -2.85714,0 -0.67344,0.67344 0.67343,2.18371 0,2.85714 -0.67344,0.67344 -2.18371,-0.67343 -2.85715,0 -0.67343,0.67344 0.67344,2.18371 0,2.85715 -0.67343,0.67343 -2.1837,-0.67344 -2.85714,0 -1.34687,1.34687 1.34687,4.36741 0,5.71428 -0.67343,0.67344 -2.18371,-0.67343 -2.85714,0 -1.34687,1.34687 1.34687,4.36742 0,5.71429 -0.67344,0.67343 -2.18371,-0.67344 -2.85714,0 -1.34687,1.34687 1.34687,4.36741 0,5.71428 -0.67344,0.67344 -2.18371,-0.67343 -2.85715,0 -1.34687,1.34687 1.34687,4.36742 0,5.71429 -0.67343,0.67343 -2.1837,-0.67344 -2.85714,0 -0.68752,0.68752 0.68752,10.74105 0,11.42857 -0.67344,0.67344 -2.18371,-0.67343 -2.85714,0 -1.42857,1.42857 1.42857,7.14286 0,8.57143 -0.67344,0.67343 -2.18371,-0.67344 -2.85715,0 -1.34687,1.34687 1.34687,4.36742 0,5.71429 -0.67343,0.67343 -2.1837,-0.67344 -2.85714,0 -1.34687,1.34687 1.34687,4.36741 0,5.71428 -0.67343,0.67344 -2.18371,-0.67343 -2.85714,0 -0.68752,0.68752 0.68752,10.74106 0,11.42857 -0.67344,0.67344 -2.18371,-0.67343 -2.85714,0 -0.67344,0.67344 0,1.90476 0,2.85715 -0.95239,0 -2.18371,-0.67344 -2.85715,0 -1.34687,1.34687 1.34687,4.36741 0,5.71428 -0.67343,0.67344 -2.1837,-0.67343 -2.85714,0 -0.67344,0.67344 0,1.90476 0,2.85714 -0.95238,0 -2.18371,-0.67343 -2.85714,0 -1.42857,1.42858 1.42857,7.14286 0,8.57143 -0.67344,0.67344 -2.18371,-0.67343 -2.85715,0 -0.68751,0.68752 0.68752,10.74106 0,11.42857 -0.67343,0.67344 -2.1837,-0.67343 -2.85714,0 -0.67343,0.67344 0.67344,2.18371 0,2.85715 -0.67343,0.67343 -2.18371,-0.67344 -2.85714,0 -0.68752,0.68751 0.68752,10.74105 0,11.42857 -0.67344,0.67343 -2.18371,-0.67344 -2.85714,0 -0.11498,0.11497 0,10.37932 0,11.42857 0,12.38095 0,24.7619 0,37.14286 0,0.95238 0,1.90476 0,2.85714 0,0.95238 -0.67344,2.18371 0,2.85714 0.67343,0.67344 2.1837,-0.67343 2.85714,0 0,7.61905 -0.95238,-0.95238 2.85714,2.85715 1.34687,1.34687 -0.85183,4.01061 0,5.71428 0.60234,1.20468 2.25481,1.65247 2.85714,2.85714 0.42592,0.85184 -0.67343,2.18371 0,2.85715 0.67344,0.67343 2.18371,-0.67344 2.85715,0 1.42857,1.42857 -1.42857,7.14285 0,8.57143 0.67343,0.67343 2.1837,-0.67344 2.85714,0 0.67344,0.67343 -0.67344,2.1837 0,2.85714 0.67344,0.67343 2.18371,-0.67344 2.85714,0 0.67344,0.67343 -0.67343,2.18371 0,2.85714 0.67344,0.67344 2.18371,-0.67343 2.85715,0 1.42857,1.42857 -1.42858,7.14286 0,8.57143 0.67343,0.67343 2.1837,-0.67344 2.85714,0 0.67343,0.67343 0,1.90476 0,2.85714 0.95238,0 2.18371,-0.67343 2.85714,0 0.9505,0.9505 -0.95049,4.76379 0,5.71429 0.67344,0.67343 2.18371,-0.67344 2.85714,0 0.67344,0.67343 0,1.90476 0,2.85714 0.95239,0 2.18371,-0.67343 2.85715,0 1.42857,1.42857 -1.42857,7.14286 0,8.57143 0.67343,0.67343 2.1837,-0.67344 2.85714,0 1.34687,1.34687 -1.34687,4.36742 0,5.71429 0.67344,0.67343 2.18371,-0.67344 2.85714,0 1.86408,1.86407 -1.86407,3.8502 0,5.71428 0.67344,0.67344 2.18371,-0.67343 2.85715,0 0.67343,0.67344 -0.67344,2.18371 0,2.85714 0.67343,0.67344 2.1837,-0.67343 2.85714,0 1.42857,1.42858 -1.42857,7.14286 0,8.57143 7.61905,0 -0.95238,-0.95238 2.85714,2.85715 1.34687,1.34687 4.36742,-1.34687 5.71429,0 1.34687,1.34687 -1.34687,4.36741 0,5.71428 0.67343,0.67344 2.1837,-0.67343 2.85714,0 0.67344,0.67344 -0.67344,2.18371 0,2.85714 0.5841,0.58411 7.43859,-0.56641 8.57143,0 1.20468,0.60234 1.65246,2.25481 2.85714,2.85715 0.85184,0.42591 1.90476,0 2.85714,0 0.95239,0 1.90477,0 2.85715,0 0.95238,0 3.80952,0 2.85714,0 -1.90476,0 -7.61905,0 -5.71429,0 3.80953,0 7.61905,0 11.42858,0 2.85714,0 5.71428,0 8.57142,0 0.95239,0 2.85715,-0.95238 2.85715,0 0,0.95238 -3.80953,0 -2.85715,0 1.90477,0 3.80953,0 5.71429,0 0.95238,0 2.18371,0.67343 2.85714,0 0,-7.61905 -0.95238,0.95238 2.85715,-2.85715 0.67343,-0.67343 -0.67344,-2.1837 0,-2.85714 0.67343,-0.67343 1.90476,0 2.85714,0 0.95238,0 1.90476,0 2.85714,0 7.61905,0 -0.95238,0.95238 2.85714,-2.85714 0.68752,-0.68752 10.74106,0.68752 11.42858,0 0.67343,-0.67344 -0.67344,-2.18371 0,-2.85714 0.67343,-0.67344 2.1837,0.67343 2.85714,0 0,-7.61905 -0.95238,0.95238 2.85714,-2.85715 0.67344,-0.67343 -0.67343,-2.18371 0,-2.85714 1.34687,-1.34687 4.36742,1.34687 5.71429,0 0.67343,-0.67344 -0.67344,-2.18371 0,-2.85714 1.34687,-1.34687 4.36741,1.34687 5.71428,0 1.34687,-1.34687 -1.34687,-4.36742 0,-5.71429 0.67344,-0.67343 2.18371,0.67344 2.85715,0 0.67343,-0.67343 -0.67344,-2.18371 0,-2.85714 0.67343,-0.67344 2.1837,0.67343 2.85714,0 0.67343,-0.67344 -0.67344,-2.18371 0,-2.85714 1.34687,-1.34687 4.36741,1.34687 5.71428,0 0.67344,-0.67344 0.67344,-2.18371 0,-2.85715 -0.67343,-0.67343 -2.1837,0.67344 -2.85714,0 -0.67343,-0.67343 0,-1.90476 0,-2.85714"
       id="path3625"
       inkscape:connector-curvature="0" />
    <path
       style="fill:#ff6600"
       d="M 132.14286,828.88155 C 113.12381,821.73895 101.6676,813.87275 82.389423,794.71926 51.001232,763.53409 49.285714,758.6088 49.285714,699.6779 c 0,-26.20152 1.330661,-52.13065 2.957024,-57.62027 1.626363,-5.48963 4.821041,-20.26685 7.099284,-32.83828 2.278244,-12.57143 8.661869,-34.92496 14.185835,-49.67451 5.523963,-14.74956 10.043572,-28.69811 10.043572,-30.99678 0,-6.49866 9.040725,-24.41824 15.552088,-30.82573 5.583253,-5.49418 13.504753,-15.6662 18.335613,-23.5448 1.21854,-1.98728 9.56227,-5.15424 18.54165,-7.03769 13.88609,-2.91264 19.19475,-2.68929 35.51982,1.49438 10.62289,2.72237 29.71933,4.90811 42.76511,4.89484 12.96429,-0.0132 23.57143,0.58446 23.57143,1.32814 0,0.74368 -2.82763,7.17225 -6.28361,14.28572 l -6.28362,12.93357 -23.71638,0 c -13.90616,0 -23.71639,1.18185 -23.71639,2.85714 0,1.57143 -2.89285,2.87683 -6.42857,2.9009 -3.53571,0.024 -7.71428,0.98835 -9.28571,2.14285 -5.86795,4.31111 -20.46585,31.21598 -25.75861,47.47478 -6.90568,21.21352 -11.3127,31.90929 -16.25665,39.45472 -2.67814,4.08736 -5.7476,11.1012 -6.82101,15.5863 -1.07341,4.48511 -3.35518,9.92775 -5.0706,12.09477 -1.71541,2.16702 -3.60892,17.17675 -4.20779,33.35497 -1.16653,31.51311 0.23846,36.26933 21.05502,71.27643 3.73773,6.28571 10.28087,18.5 14.54033,27.14285 12.33289,25.02466 17.76575,29.09649 41.0442,30.76206 11.68972,0.8364 21.46757,0.20914 23.58018,-1.51237 1.98506,-1.61771 8.10999,-4.16851 13.61094,-5.66843 l 10.00172,-2.72714 10.41414,18.01131 10.41415,18.01129 -7.19203,4.7124 c -3.95562,2.59183 -14.42847,5.94851 -23.27301,7.45931 -19.27179,3.292 -80.03363,5.742 -86.08098,3.47092 z"
       id="path3627"
       inkscape:connector-curvature="0" />
  </g>
</svg>
