<?xml version="1.0" encoding="UTF-8" standalone="no"?>
<!-- Created with Inkscape (http://www.inkscape.org/) -->

<svg
   xmlns:dc="http://purl.org/dc/elements/1.1/"
   xmlns:cc="http://creativecommons.org/ns#"
   xmlns:rdf="http://www.w3.org/1999/02/22-rdf-syntax-ns#"
   xmlns:svg="http://www.w3.org/2000/svg"
   xmlns="http://www.w3.org/2000/svg"
   xmlns:sodipodi="http://sodipodi.sourceforge.net/DTD/sodipodi-0.dtd"
   xmlns:inkscape="http://www.inkscape.org/namespaces/inkscape"
   width="195.42461mm"
   height="153.43134mm"
   viewBox="0 0 692.44939 543.65434"
   id="svg3825"
   version="1.1"
   inkscape:version="0.91 r13725"
   sodipodi:docname="15-three-mushroom-houses.svg">
  <defs
     id="defs3827" />
  <sodipodi:namedview
     id="base"
     pagecolor="#ffffff"
     bordercolor="#666666"
     borderopacity="1.0"
     inkscape:pageopacity="0.0"
     inkscape:pageshadow="2"
     inkscape:zoom="0.35"
     inkscape:cx="352.36646"
     inkscape:cy="445.71427"
     inkscape:document-units="px"
     inkscape:current-layer="layer1"
     showgrid="false"
     fit-margin-top="0"
     fit-margin-left="0"
     fit-margin-right="0"
     fit-margin-bottom="0"
     inkscape:window-width="1311"
     inkscape:window-height="744"
     inkscape:window-x="55"
     inkscape:window-y="24"
     inkscape:window-maximized="1" />
  <metadata
     id="metadata3830">
    <rdf:RDF>
      <cc:Work
         rdf:about="">
        <dc:format>image/svg+xml</dc:format>
        <dc:type
           rdf:resource="http://purl.org/dc/dcmitype/StillImage" />
        <dc:title></dc:title>
      </cc:Work>
    </rdf:RDF>
  </metadata>
  <g
     inkscape:label="Layer 1"
     inkscape:groupmode="layer"
     id="layer1"
     transform="translate(-22.633535,-434.42213)">
    <rect
       style="fill:#008000"
       id="rect3833"
       width="51.42857"
       height="314.28571"
       x="54.285713"
       y="618.07648" />
    <path
       style="fill:#008080;fill-rule:evenodd;stroke:#000000;stroke-width:1px;stroke-linecap:butt;stroke-linejoin:miter;stroke-opacity:1"
       d="m 22.857143,615.21933 c 3.809524,0 7.73279,0.92394 11.428571,0 0.923946,-0.23099 -0.673435,-2.18371 0,-2.85715 0.673435,-0.67343 1.953635,0.30117 2.857143,0 2.020305,-0.67343 3.648281,-2.34064 5.714286,-2.85714 2.959689,-0.73992 8.152392,0 11.428571,0 0.952381,0 1.904762,0 2.857143,0 0.952381,0 2.183708,-0.67344 2.857143,0 0.673435,0.67343 -0.673435,2.18371 0,2.85714 1.34687,1.34687 4.367416,-1.34687 5.714286,0 0.673435,0.67344 -0.673435,2.18371 0,2.85715 0.673435,0.67343 2.005307,-0.42592 2.857143,0 1.204677,0.60233 1.652465,2.2548 2.857142,2.85714 0.869526,0.43476 7.284693,0 8.571429,0 0.952381,0 2.183708,0.67343 2.857143,0 0.673435,-0.67344 -0.673435,-2.18371 0,-2.85714 1.428571,-1.42858 7.142857,1.42857 8.571428,0 0.673435,-0.67344 -0.673435,-2.18371 0,-2.85715 0.673435,-0.67343 1.904762,0 2.857143,0 2.300101,0 9.635276,-0.59776 11.428576,0 20.69547,6.89849 -4.5046,-0.82372 8.57142,5.71429 0.85184,0.42592 2.00531,-0.42592 2.85715,0 1.20467,0.60234 1.51027,2.85714 2.85714,2.85714 0.95238,0 -0.67344,-2.18371 0,-2.85714 1.34687,-1.34687 4.36742,1.34687 5.71429,0 0.67343,-0.67344 -0.67344,-2.18371 0,-2.85714 1.34687,-1.34687 4.36741,1.34687 5.71428,0 0.67344,-0.67344 -0.67343,-2.18371 0,-2.85715 0.88471,-0.8847 13.40101,0.88471 14.28572,0 0.67343,-0.67343 -0.67344,-2.18371 0,-2.85714 0.67343,-0.67344 1.90476,0 2.85714,0 0.95238,0 1.90476,0 2.85714,0 7.61905,0 15.2381,0 22.85714,0 0.69294,0 8.47955,-0.0919 8.57143,0 0.67344,0.67343 -0.67343,2.18371 0,2.85714 0.67344,0.67344 1.90476,0 2.85715,0 1.04924,0 11.31359,0.11498 11.42857,0 0.67343,-0.67343 -0.67344,-2.18371 0,-2.85714 0.67343,-0.67344 2.1837,0.67343 2.85714,0 4.75248,-4.75248 -4.75248,-0.96181 0,-5.71429 0.67344,-0.67343 2.18371,0.67344 2.85714,0 0.67344,-0.67343 -0.67343,-2.1837 0,-2.85714 0.67344,-0.67343 2.18371,0.67344 2.85715,0 1.34687,-1.34687 -1.34687,-4.36741 0,-5.71428 0.67343,-0.67344 2.1837,0.67343 2.85714,0 0.67343,-0.67344 0,-1.90477 0,-2.85715 0,-1.34713 0.12949,-14.15622 0,-14.28571 -0.67344,-0.67344 -2.18371,0.67343 -2.85714,0 -0.11498,-0.11498 0,-10.37933 0,-11.42857 0,-7.61905 0.95238,0.95238 -2.85715,-2.85715 -1.90099,-1.90099 1.90099,-3.81329 0,-5.71428 -0.67343,-0.67344 -2.1837,0.67343 -2.85714,0 -0.67344,-0.67344 0,-1.90476 0,-2.85714 -0.95238,0 -2.18371,0.67343 -2.85714,0 -0.67344,-0.67344 0.67343,-2.18371 0,-2.85715 -0.67344,-0.67343 -2.18371,0.67344 -2.85715,0 -1.34687,-1.34687 1.34687,-4.36741 0,-5.71428 -0.67343,-0.67344 -2.1837,0.67343 -2.85714,0 -1.42857,-1.42857 1.42857,-7.14286 0,-8.57143 -0.67343,-0.67344 -2.18371,0.67343 -2.85714,0 -1.34687,-1.34687 1.34687,-4.36742 0,-5.71429 -1.34687,-1.34687 -4.36742,1.34687 -5.71429,0 -1.90099,-1.90099 1.90099,-3.81329 0,-5.71428 -0.67343,-0.67344 -2.1837,0.67343 -2.85714,0 -1.42857,-1.42857 1.42857,-7.14286 0,-8.57143 -0.67344,-0.67344 -2.18371,0.67343 -2.85714,0 -1.34687,-1.34687 1.34687,-4.36742 0,-5.71429 -1.34687,-1.34687 -4.36742,1.34687 -5.71429,0 -0.67343,-0.67343 0.67344,-2.18371 0,-2.85714 -0.67343,-0.67344 -1.90476,0 -2.85714,0 0,-0.95238 0.67343,-2.18371 0,-2.85714 -1.34687,-1.34687 -4.36742,1.34687 -5.71429,0 -0.67343,-0.67344 0.67344,-2.18371 0,-2.85715 -0.67343,-0.67343 -2.1837,0.67344 -2.85714,0 -0.67344,-0.67343 0.67344,-2.1837 0,-2.85714 -0.67344,-0.67343 -2.18371,0.67344 -2.85714,0 -0.67344,-0.67343 0.67343,-2.18371 0,-2.85714 -1.42857,-1.42857 -7.14286,1.42857 -8.57143,0 -0.67344,-0.67344 0.67343,-2.18371 0,-2.85714 -1.34687,-1.34687 -4.36742,1.34687 -5.71429,0 -0.67343,-0.67344 0.67344,-2.18371 0,-2.85715 -1.34687,-1.34687 -4.36741,1.34687 -5.71428,0 -0.67344,-0.67343 0.67343,-2.18371 0,-2.85714 -1.34687,-1.34687 -4.36742,1.34687 -5.71429,0 -0.67343,-0.67344 0.67344,-2.18371 0,-2.85714 -0.67343,-0.67344 -1.90476,0 -2.85714,0 -4.76191,0 -9.52381,0 -14.28572,0 -1.34713,0 -14.15622,-0.12949 -14.28571,0 -0.673435,0.67343 0.67344,2.1837 0,2.85714 -0.687517,0.68752 -10.741054,-0.68752 -11.428571,0 -0.673435,0.67343 0.673435,2.18371 0,2.85714 -1.34687,1.34687 -4.367416,-1.34687 -5.714286,0 -0.673435,0.67344 0.673435,2.18371 0,2.85715 -0.673435,0.67343 -2.183708,-0.67344 -2.857143,0 -1.90099,1.90099 1.90099,3.81329 0,5.71428 -0.673435,0.67344 -2.183708,-0.67343 -2.857143,0 -1.34687,1.34687 1.34687,4.36742 0,5.71429 -0.673435,0.67343 -2.183708,-0.67344 -2.857143,0 -0.673435,0.67343 0.673435,2.1837 0,2.85714 -0.673435,0.67343 -2.183708,-0.67344 -2.857143,0 -0.673435,0.67343 0.673435,2.18371 0,2.85714 -0.673435,0.67344 -2.183707,-0.67343 -2.857142,0 -0.673435,0.67344 0.673435,2.18371 0,2.85715 -0.673435,0.67343 -2.183708,-0.67344 -2.857143,0 -0.673435,0.67343 0.673435,2.1837 0,2.85714 -0.673435,0.67343 -2.183708,-0.67344 -2.857143,0 -0.673435,0.67343 0.673435,2.18371 0,2.85714 -0.673435,0.67344 -2.183708,-0.67343 -2.857143,0 -0.673435,0.67344 0.673435,2.18371 0,2.85714 -0.673435,0.67344 -2.183708,-0.67343 -2.857143,0 -1.34687,1.34687 1.34687,4.36742 0,5.71429 -7.619047,0 0.952381,-0.95238 -2.857143,2.85714 -0.673435,0.67344 -2.183708,-0.67343 -2.857143,0 -1.34687,1.34687 1.34687,4.36742 0,5.71429 -0.673435,0.67343 -2.183707,-0.67344 -2.857142,0 -1.34687,1.34687 1.34687,4.36741 0,5.71428 -0.673435,0.67344 -2.183708,-0.67343 -2.857143,0 -1.428572,1.42858 1.428571,7.14286 0,8.57143 -0.673435,0.67344 -2.183708,-0.67343 -2.857143,0 -0.687517,0.68752 0.687517,10.74106 0,11.42857 -0.673435,0.67344 -2.183708,-0.67343 -2.857143,0 -1.882353,1.88236 1.882353,3.83194 0,5.71429 -0.673435,0.67343 -2.183708,-0.67344 -2.857143,0 -0.673435,0.67343 0,1.90476 0,2.85714 0,5.71429 0,11.42857 0,17.14286 0,0.95238 0.673435,2.18371 0,2.85714 -0.673435,0.67344 -2.183708,-0.67343 -2.857143,0 -0.129491,0.12949 0,12.93858 0,14.28572 0,0.95238 0.761905,2.28571 0,2.85714 -3.407341,2.55551 -7.619047,3.80952 -11.428571,5.71429 z"
       id="path3835"
       inkscape:connector-curvature="0" />
    <rect
       style="fill:#0000ff"
       id="rect3837"
       width="62.857143"
       height="365.71429"
       x="385.71429"
       y="612.36218" />
    <path
       style="fill:#803300;fill-rule:evenodd;stroke:#000000;stroke-width:1px;stroke-linecap:butt;stroke-linejoin:miter;stroke-opacity:1"
       d="m 302.85714,603.79075 c 10.47619,0 20.95238,0 31.42857,0 1.90477,0 3.8664,-0.46197 5.71429,0 2.066,0.51651 3.69398,2.18371 5.71429,2.85715 1.70363,0.56787 14.37466,0 17.14285,0 0.95238,0 1.95364,-0.30117 2.85715,0 2.0203,0.67343 3.64828,2.34064 5.71428,2.85714 1.84789,0.46197 3.84651,-0.37355 5.71429,0 2.95321,0.59064 5.61822,2.2665 8.57143,2.85714 1.86777,0.37356 3.80952,0 5.71428,0 2.85714,0 5.71429,0 8.57143,0 2.85714,0 5.79959,-0.69296 8.57143,0 1.30665,0.32667 1.57939,2.43123 2.85714,2.85715 1.80702,0.60233 3.80953,0 5.71429,0 1.90476,0 3.80952,0 5.71428,0 7.61905,0 15.2381,0 22.85715,0 18.09523,0 36.19047,0 54.28571,0 9.197,0 -4.87745,0.67343 5.71429,-2.85715 2.06756,-0.68919 10.48674,0.94183 11.42857,0 3.80952,-3.80952 -4.76191,-2.85714 2.85714,-2.85714 1.90476,0 3.80952,0 5.71429,0 0.95238,0 2.85714,-0.95238 2.85714,0 0,0.95238 -2.85714,0.95238 -2.85714,0 0,-1.34687 1.65246,-2.2548 2.85714,-2.85714 1.13283,-0.56642 7.98732,0.5841 8.57143,0 1.34687,-1.34687 -1.34687,-4.36742 0,-5.71429 0.67343,-0.67343 2.1837,0.67344 2.85714,0 0.28571,-0.28571 0.28571,-8.28571 0,-8.57143 -0.67344,-0.67343 -2.18371,0.67344 -2.85714,0 -0.12949,-0.12949 0,-12.93857 0,-14.28571 0,-6.66667 0,-13.33334 0,-20 0,-0.95238 0.67343,-2.18371 0,-2.85714 -0.67344,-0.67344 -2.18371,0.67343 -2.85715,0 -0.0919,-0.0919 0,-7.8785 0,-8.57143 0,-0.69294 0.0919,-8.47955 0,-8.57143 -0.67343,-0.67344 -2.1837,0.67343 -2.85714,0 -0.12949,-0.12949 0,-12.93858 0,-14.28572 0,-0.95238 0.67344,-2.1837 0,-2.85714 -0.67343,-0.67343 -2.18371,0.67344 -2.85714,0 -1.42857,-1.42857 1.42857,-7.14286 0,-8.57143 -0.67344,-0.67343 -2.18371,0.67344 -2.85714,0 -1.34687,-1.34687 1.34687,-4.36741 0,-5.71428 -0.67344,-0.67344 -2.18371,0.67343 -2.85715,0 -0.67343,-0.67344 0.67344,-2.18371 0,-2.85715 -0.67343,-0.67343 -2.1837,0.67344 -2.85714,0 -0.67344,-0.67343 0.67344,-2.1837 0,-2.85714 -0.67344,-0.67343 -2.18371,0.67344 -2.85714,0 -1.34687,-1.34687 1.34687,-4.36741 0,-5.71428 -0.67344,-0.67344 -2.18371,0.67343 -2.85715,0 -0.67343,-0.67344 0.67344,-2.18371 0,-2.85715 -0.67343,-0.67343 -2.1837,0.67344 -2.85714,0 -0.67343,-0.67343 0.67344,-2.18371 0,-2.85714 -0.67343,-0.67344 -2.18371,0.67343 -2.85714,0 -5.91153,-5.91153 9.0336,0.23109 -2.85714,-5.71429 -0.85184,-0.42591 -2.18371,0.67344 -2.85715,0 -0.67343,-0.67343 0.67344,-2.1837 0,-2.85714 -1.34687,-1.34687 -4.36741,1.34687 -5.71428,0 -0.67344,-0.67343 0.67343,-2.18371 0,-2.85714 -0.67344,-0.67344 -2.18371,0.67343 -2.85715,0 -0.67343,-0.67344 0.42592,-2.00531 0,-2.85714 -5.94537,-11.89075 0.19725,3.05438 -5.71428,-2.85715 -0.67344,-0.67343 0.67343,-2.18371 0,-2.85714 -0.67344,-0.67344 -2.18371,0.67343 -2.85714,0 -0.67344,-0.67344 0.67343,-2.18371 0,-2.85714 -0.67344,-0.67344 -2.18371,0.67343 -2.85715,0 -5.91153,-5.91153 9.0336,0.23108 -2.85714,-5.71429 -0.85184,-0.42592 -2.00531,0.42592 -2.85714,0 -1.20468,-0.60234 -1.65247,-2.2548 -2.85715,-2.85714 -0.85183,-0.42592 -2.1837,0.67343 -2.85714,0 -0.67343,-0.67344 0,-1.90476 0,-2.85714 -0.95238,0 -2.18371,0.67343 -2.85714,0 -0.67344,-0.67344 0.67343,-2.18371 0,-2.85715 -0.67344,-0.67343 -2.00531,0.42592 -2.85714,0 -1.20468,-0.60234 -1.65247,-2.2548 -2.85715,-2.85714 -0.85183,-0.42592 -2.1837,0.67343 -2.85714,0 -0.67344,-0.67344 0.67344,-2.18371 0,-2.85714 -0.67344,-0.67344 -2.18371,0.67343 -2.85714,0 -0.67344,-0.67344 0.67343,-2.18371 0,-2.85715 -1.92,-1.92 -3.79429,1.92 -5.71429,0 -0.67343,-0.67343 0.67344,-2.1837 0,-2.85714 -0.67343,-0.67343 -2.18371,0.67344 -2.85714,0 -0.67344,-0.67343 0.67343,-2.18371 0,-2.85714 -0.67344,-0.67344 -2.18371,0.67343 -2.85714,0 -0.67344,-0.67344 0.67343,-2.18371 0,-2.85714 -0.67344,-0.67344 -1.90477,0 -2.85715,0 -0.95238,0 -1.90476,0 -2.85714,0 -2.3001,0 -9.63528,-0.59777 -11.42857,0 -16.18768,8.09383 4.25918,-1.0648 -11.42857,2.85714 -2.06601,0.5165 -3.69398,2.18371 -5.71429,2.85714 -5.6921,1.89737 0.91541,-3.16228 -8.57143,0 -1.27775,0.42592 -1.65246,2.25481 -2.85714,2.85714 -1.13283,0.56642 -7.98732,-0.5841 -8.57143,0 -0.67343,0.67344 0.67344,2.18371 0,2.85715 -0.67343,0.67343 -2.18371,-0.67344 -2.85714,0 -0.67344,0.67343 0.67343,2.1837 0,2.85714 -0.67344,0.67343 -2.18371,-0.67344 -2.85714,0 -0.67344,0.67343 0.67343,2.18371 0,2.85714 -0.67344,0.67344 -2.18371,-0.67343 -2.85715,0 -0.67343,0.67344 0.67344,2.18371 0,2.85715 -0.67343,0.67343 -2.1837,-0.67344 -2.85714,0 -0.67344,0.67343 0.67344,2.1837 0,2.85714 -0.67344,0.67343 -2.18371,-0.67344 -2.85714,0 -1.34687,1.34687 1.34687,4.36741 0,5.71428 -0.67344,0.67344 -2.18371,-0.67343 -2.85715,0 -0.67343,0.67344 0.42592,2.00531 0,2.85715 -0.60233,1.20467 -2.2548,1.65246 -2.85714,2.85714 -0.42592,0.85184 0.42592,2.00531 0,2.85714 -0.60234,1.20468 -2.2548,1.65247 -2.85714,2.85715 -0.42592,0.85183 0.42592,2.0053 0,2.85714 -0.60234,1.20468 -2.25481,1.65246 -2.85714,2.85714 -0.77499,1.54997 0.78177,10.6468 0,11.42857 -0.67344,0.67344 -2.18371,-0.67343 -2.85715,0 -1.34687,1.34687 0.85184,4.01062 0,5.71429 -0.60234,1.20468 -2.2548,1.65246 -2.85714,2.85714 -0.85184,1.70367 1.34687,4.36742 0,5.71429 -0.67344,0.67343 -2.18371,-0.67344 -2.85714,0 -0.67344,0.67343 0,1.90476 0,2.85714 0,1.34714 0.12949,14.15622 0,14.28571 -0.67344,0.67344 -2.18371,-0.67343 -2.85715,0 -1.42857,1.42858 1.42858,7.14286 0,8.57143 -0.67343,0.67344 -2.1837,-0.67343 -2.85714,0 -1.42857,1.42857 1.42857,7.14286 0,8.57143 -0.67343,0.67344 -2.18371,-0.67343 -2.85714,0 -1.42857,1.42857 1.42857,7.14286 0,8.57143 -0.67344,0.67343 -2.43123,-0.85184 -2.85714,0 -0.85184,1.70367 0,3.80952 0,5.71429 0,0.95238 0.67343,2.1837 0,2.85714 -0.67344,0.67343 -2.18371,-0.67344 -2.85715,0 -1.34687,1.34687 1.34687,4.36741 0,5.71428 -0.67343,0.67344 -2.1837,-0.67343 -2.85714,0 -0.68752,0.68752 0.68752,10.74106 0,11.42858 -0.67344,0.67343 -2.18371,-0.67344 -2.85714,0 -0.88471,0.8847 0.8847,13.401 0,14.28571 -0.67344,0.67343 -2.18371,-0.67344 -2.85715,0 -0.0919,0.0919 0,7.87849 0,8.57143 0,0.95238 -0.67343,2.18371 0,2.85714 0.67344,0.67344 2.18371,-0.67343 2.85715,0 0.67343,0.67344 0.67343,2.18371 0,2.85714 -0.67344,0.67344 -2.18371,-0.67343 -2.85715,0 -3.80952,3.80953 4.76191,2.85715 -2.85714,2.85715"
       id="path3839"
       inkscape:connector-curvature="0" />
    <rect
       style="fill:#008080"
       id="rect3841"
       width="48.57143"
       height="282.85715"
       x="588.57141"
       y="680.93359" />
    <path
       style="fill:#008000;fill-rule:evenodd;stroke:#000000;stroke-width:1px;stroke-linecap:butt;stroke-linejoin:miter;stroke-opacity:1"
       d="m 557.14286,683.79075 c 6.66666,0 13.33333,0 20,0 0.95238,0 1.90476,0 2.85714,0 0.95238,0 2.00531,-0.42591 2.85714,0 1.20468,0.60234 1.65247,2.25481 2.85715,2.85715 0.59338,0.29669 19.50452,0 20,0 12.38095,0 24.7619,0 37.14285,0 6.70051,0 -1.34687,-0.67344 5.71429,2.85714 1.03324,0.51662 12.29846,0 14.28571,0 9.52381,0 19.04762,0 28.57143,0 2.85714,0 5.71429,0 8.57143,0 0.95238,0 2.85714,-0.95238 2.85714,0 0,0.95238 -3.80952,0 -2.85714,0 1.90476,0 4.01061,0.85184 5.71429,0 0.85183,-0.42592 -0.67344,-2.18371 0,-2.85714 0.67343,-0.67344 2.1837,0.67343 2.85714,0 0,-7.61905 -0.95238,0.95238 2.85714,-2.85715 0.67344,-0.67343 0,-1.90476 0,-2.85714 0,-5.71428 0,-11.42857 0,-17.14286 0,-0.95238 0,-1.90476 0,-2.85714 0,-0.95238 -0.67343,-2.18371 0,-2.85714 0.67344,-0.67344 2.18371,0.67343 2.85714,0 0.67344,-0.67344 0,-1.90476 0,-2.85714 0,-6.66667 0,-13.33334 0,-20 0,-5.71429 0,-11.42858 0,-17.14286 0,-0.95238 0.67344,-2.18371 0,-2.85714 -0.67343,-0.67344 -2.1837,0.67343 -2.85714,0 -5.91153,-5.91153 9.0336,0.23108 -2.85714,-5.71429 -0.85184,-0.42592 -2.18371,0.67343 -2.85714,0 -5.91153,-5.91153 9.0336,0.23109 -2.85715,-5.71429 -0.85183,-0.42591 -2.1837,0.67344 -2.85714,0 -0.67344,-0.67343 0.67344,-2.1837 0,-2.85714 -1.90099,-1.90099 -3.8133,1.90099 -5.71429,0 -0.67343,-0.67343 0.67344,-2.18371 0,-2.85714 -1.34687,-1.34687 -4.36741,1.34687 -5.71428,0 -0.67344,-0.67344 0.67343,-2.18371 0,-2.85714 -0.67344,-0.67344 -2.18371,0.67343 -2.85714,0 -0.67344,-0.67344 0.67343,-2.18371 0,-2.85715 -1.34687,-1.34687 -4.36742,1.34687 -5.71429,0 -0.67344,-0.67343 0.67344,-2.18371 0,-2.85714 -1.34687,-1.34687 -4.36742,1.34687 -5.71429,0 -0.67343,-0.67344 0.67344,-2.18371 0,-2.85714 -0.67343,-0.67344 -1.90476,0 -2.85714,0 -0.95238,0 -1.90476,0 -2.85714,0 -9.52381,0 -19.04762,0 -28.57143,0 -8.57143,0 -17.14286,0 -25.71429,0 -0.95238,0 -2.1837,-0.67344 -2.85714,0 -0.67343,0.67343 0.67344,2.1837 0,2.85714 -1.42857,1.42857 -7.14286,-1.42857 -8.57143,0 -0.67343,0.67343 0.67344,2.18371 0,2.85714 -0.67343,0.67344 -2.1837,-0.67343 -2.85714,0 -0.67344,0.67344 0.67344,2.18371 0,2.85715 -0.67344,0.67343 -2.18371,-0.67344 -2.85714,0 -1.34687,1.34687 1.34687,4.36741 0,5.71428 -0.67344,0.67344 -2.18371,-0.67343 -2.85715,0 -0.67343,0.67344 0.42592,2.00531 0,2.85714 -1.20467,2.40936 -4.5096,3.30494 -5.71428,5.71429 -0.42592,0.85184 0.42592,2.00531 0,2.85714 -0.60234,1.20468 -2.25481,1.65247 -2.85714,2.85715 -0.42592,0.85183 0.42591,2.0053 0,2.85714 -0.60234,1.20468 -2.25481,1.65246 -2.85715,2.85714 -0.42591,0.85184 0.30117,1.95364 0,2.85714 -0.67343,2.02031 -2.1837,3.69398 -2.85714,5.71429 -0.30117,0.90351 0.67344,2.18371 0,2.85714 -0.67344,0.67344 -2.18371,-0.67343 -2.85714,0 -0.68752,0.68752 0.68751,10.74106 0,11.42857 -0.67344,0.67344 -2.18371,-0.67343 -2.85715,0 -0.67343,0.67344 0.67344,2.18371 0,2.85715 -0.67343,0.67343 -2.1837,-0.67344 -2.85714,0 -1.34687,1.34687 1.34687,4.36741 0,5.71428 -0.67343,0.67344 -2.18371,-0.67343 -2.85714,0 -1.34687,1.34687 1.34687,4.36742 0,5.71429 -0.67344,0.67343 -2.18371,-0.67344 -2.85714,0 -0.68407,0.68406 0.6495,11.42857 0,11.42857 -0.95239,0 0,-3.80952 0,-2.85714 0,3.80952 0,7.61904 0,11.42857 0,0.95238 0.95238,2.85714 0,2.85714 -0.95239,0 0,-1.90476 0,-2.85714 -2.85715,1.90476 -5.71429,3.80952 -8.57143,5.71428 z"
       id="path3843"
       inkscape:connector-curvature="0" />
  </g>
</svg>
