<?xml version="1.0" encoding="UTF-8" standalone="no"?>
<!-- Created with Inkscape (http://www.inkscape.org/) -->

<svg
   xmlns:dc="http://purl.org/dc/elements/1.1/"
   xmlns:cc="http://creativecommons.org/ns#"
   xmlns:rdf="http://www.w3.org/1999/02/22-rdf-syntax-ns#"
   xmlns:svg="http://www.w3.org/2000/svg"
   xmlns="http://www.w3.org/2000/svg"
   xmlns:sodipodi="http://sodipodi.sourceforge.net/DTD/sodipodi-0.dtd"
   xmlns:inkscape="http://www.inkscape.org/namespaces/inkscape"
   width="119.85208mm"
   height="166.67561mm"
   viewBox="0 0 424.67273 590.58288"
   id="svg3899"
   version="1.1"
   inkscape:version="0.91 r13725"
   sodipodi:docname="17-mushroom.svg">
  <defs
     id="defs3901" />
  <sodipodi:namedview
     id="base"
     pagecolor="#ffffff"
     bordercolor="#666666"
     borderopacity="1.0"
     inkscape:pageopacity="0.0"
     inkscape:pageshadow="2"
     inkscape:zoom="0.35"
     inkscape:cx="290.30412"
     inkscape:cy="181.21426"
     inkscape:document-units="px"
     inkscape:current-layer="layer1"
     showgrid="false"
     fit-margin-top="0"
     fit-margin-left="0"
     fit-margin-right="0"
     fit-margin-bottom="0"
     inkscape:window-width="1311"
     inkscape:window-height="744"
     inkscape:window-x="55"
     inkscape:window-y="24"
     inkscape:window-maximized="1" />
  <metadata
     id="metadata3904">
    <rdf:RDF>
      <cc:Work
         rdf:about="">
        <dc:format>image/svg+xml</dc:format>
        <dc:type
           rdf:resource="http://purl.org/dc/dcmitype/StillImage" />
        <dc:title></dc:title>
      </cc:Work>
    </rdf:RDF>
  </metadata>
  <g
     inkscape:label="Layer 1"
     inkscape:groupmode="layer"
     id="layer1"
     transform="translate(-84.695881,-122.99356)">
    <path
       style="fill:#ff0000;fill-rule:evenodd;stroke:#000000;stroke-width:1px;stroke-linecap:butt;stroke-linejoin:miter;stroke-opacity:1"
       d="M 85.714285,340.93361 C 82.161402,336.74031 97.884814,328.02112 100,323.79075 c 0.42591,-0.85183 -0.425916,-2.00531 0,-2.85714 1.71428,-3.42857 6.85714,-5.14286 8.57142,-8.57143 1.97051,-3.94102 -3.46015,-2.55564 2.85715,-5.71429 1.70367,-0.85183 4.36741,1.34687 5.71428,0 0.67344,-0.67343 -0.67343,-2.1837 0,-2.85714 0.67344,-0.67343 1.90476,0 2.85715,0 0.95238,0 1.90476,0 2.85714,0 9.52381,0 19.04762,0 28.57143,0 13.33333,0 26.66666,0 40,0 2.80675,0 15.25315,-0.6299 17.14285,0 2.02031,0.67344 3.64829,2.34064 5.71429,2.85714 2.77184,0.69296 5.71429,0 8.57143,0 7.61905,0 15.23809,0 22.85714,0 20.95238,0 41.90476,0 62.85714,0 6.66667,0 13.33334,0 20,0 1.28674,0 7.70191,-0.43476 8.57143,0 1.20468,0.60234 1.65247,2.25481 2.85715,2.85715 0.85183,0.42591 1.90476,0 2.85714,0 1.90476,0 3.86639,-0.46198 5.71428,0 2.06601,0.5165 3.62606,2.43949 5.71429,2.85714 2.80166,0.56033 5.75316,-0.46971 8.57143,0 2.97071,0.49512 5.60071,2.36202 8.57143,2.85714 5.63653,0.93943 11.486,-0.80812 17.14285,0 3.88731,0.55533 7.54127,2.30182 11.42858,2.85715 2.82842,0.40406 5.75316,-0.46972 8.57142,0 2.97072,0.49511 5.61822,2.2665 8.57143,2.85714 1.86778,0.37355 3.8664,-0.46197 5.71429,0 2.066,0.5165 3.69398,2.18371 5.71428,2.85714 2.01225,0.67075 10.66183,-0.76675 11.42858,0 0.67343,0.67344 -0.67344,2.18371 0,2.85714 0.0919,0.0919 7.87849,0 8.57142,0 7.61905,0 -0.95238,-0.95238 2.85715,2.85715 1.42857,1.42857 7.14285,-1.42857 8.57143,0 0.67343,0.67343 -0.67344,2.1837 0,2.85714 0.67343,0.67343 1.90476,0 2.85714,0 0,0.95238 -0.42592,2.00531 0,2.85714 1.63774,3.27548 5.96146,3.97431 8.57143,5.71429 3.2967,2.1978 5.27472,6.37362 8.57143,8.57143 1.77192,1.18128 3.94236,1.67586 5.71428,2.85714 1.21104,0.80736 7.98036,7.38929 8.57143,8.57143 0.42592,0.85183 -0.67344,2.18371 0,2.85714 0.67344,0.67344 2.18371,0.67344 2.85714,0 0.67344,-0.67343 -0.67343,-2.18371 0,-2.85714 0.67344,-0.67344 2.18371,0.67343 2.85715,0 1.34687,-1.34687 -1.34687,-4.36742 0,-5.71429 0.67343,-0.67343 2.1837,0.67344 2.85714,0 1.34687,-1.34687 -1.34687,-4.36741 0,-5.71428 0.67343,-0.67344 2.18371,0.67343 2.85714,0 0.67344,-0.67344 0,-1.90477 0,-2.85715 0,-5.71428 0,-11.42857 0,-17.14285 0,-0.95238 -0.67343,-2.18371 0,-2.85715 0.67344,-0.67343 2.18371,0.67344 2.85714,0 0.67344,-0.67343 0,-1.90476 0,-2.85714 0,-0.95238 0,-1.90476 0,-2.85714 0,-13.33334 0,-26.66667 0,-40 0,-7.61905 0,-15.2381 0,-22.85714 0,-0.95239 0,-1.90477 0,-2.85715 0,-0.95238 0.67344,-2.18371 0,-2.85714 -0.67343,-0.67344 -2.1837,0.67343 -2.85714,0 -0.67343,-0.67344 0,-1.90476 0,-2.85714 0,-1.34714 0.12949,-14.15623 0,-14.28572 -0.67343,-0.67343 -2.18371,0.67344 -2.85714,0 -0.68752,-0.68751 0.68752,-10.74105 0,-11.42857 -0.67344,-0.67343 -2.18371,0.67344 -2.85714,0 -0.68752,-0.68752 0.68751,-10.74105 0,-11.42857 -0.67344,-0.67344 -2.18371,0.67343 -2.85715,0 -1.90099,-1.90099 1.90099,-3.8133 0,-5.71429 -0.67343,-0.67343 -2.1837,0.67344 -2.85714,0 -0.67344,-0.67343 0.67344,-2.1837 0,-2.85714 -0.67344,-0.67343 -2.18371,0.67344 -2.85714,0 -0.67344,-0.67343 0.42591,-2.00531 0,-2.85714 -0.60234,-1.20468 -2.25481,-1.65247 -2.85715,-2.85714 -0.85183,-1.70368 1.34687,-4.36742 0,-5.71429 -7.61904,0 0.95239,0.95238 -2.85714,-2.85714 -1.34687,-1.34687 -4.36741,1.34687 -5.71428,0 -1.34687,-1.34687 1.34687,-4.36742 0,-5.71429 -0.58411,-0.5841 -7.4386,0.56642 -8.57143,0 -2.40936,-1.20468 -3.15878,-4.86245 -5.71429,-5.71428 -1.80701,-0.60234 -3.86639,0.46197 -5.71428,0 -5.17126,1.72208 -5.31379,-4.62841 -8.57143,-5.71429 -1.80702,-0.60234 -3.90727,0.60234 -5.71429,0 -1.27775,-0.42592 -1.57939,-2.43123 -2.85714,-2.85714 -1.80702,-0.60234 -3.90727,0.60234 -5.71429,0 -1.27775,-0.42592 -1.65246,-2.25481 -2.85714,-2.85715 -0.85184,-0.42591 -2.00531,0.42592 -2.85714,0 -1.20468,-0.60233 -1.65247,-2.2548 -2.85715,-2.85714 -1.70367,-0.85183 -4.01061,0.85184 -5.71428,0 -1.20468,-0.60234 -1.65247,-2.2548 -2.85714,-2.85714 -1.70368,-0.85184 -4.01062,0.85183 -5.71429,0 -1.20468,-0.60234 -1.65247,-2.25481 -2.85714,-2.85714 -1.13284,-0.56642 -7.98733,0.5841 -8.57143,0 -0.67344,-0.67344 0.67343,-2.18371 0,-2.85715 -1.34687,-1.34687 -4.36742,1.34687 -5.71429,0 -0.67343,-0.67343 0.67344,-2.18371 0,-2.85714 -1.34687,-1.34687 -4.36741,1.34687 -5.71428,0 -0.67344,-0.67344 0.67343,-2.18371 0,-2.85714 -1.34687,-1.34687 -4.36742,1.34687 -5.71429,0 -0.67343,-0.67344 0.67344,-2.18371 0,-2.85715 -0.84538,-0.84537 -9.65882,0.88488 -11.42857,0 -1.20468,-0.60233 -1.65247,-2.2548 -2.85714,-2.85714 -1.70367,-0.85183 -4.01062,0.85184 -5.71429,0 -1.20468,-0.60234 -1.65246,-2.2548 -2.85714,-2.85714 -1.70367,-0.85184 -4.01062,0.85183 -5.71429,0 -1.20467,-0.60234 -1.65246,-2.25481 -2.85714,-2.85714 -1.13283,-0.56642 -7.98732,0.5841 -8.57143,0 -0.67343,-0.67344 0.85184,-2.43123 0,-2.85715 -1.65918,-0.82959 -15.45864,0.84211 -17.14286,0 -1.20467,-0.60234 -1.65246,-2.2548 -2.85714,-2.85714 -1.70367,-0.85184 -4.01061,0.85184 -5.71428,0 -1.20468,-0.60234 -1.57939,-2.43123 -2.85715,-2.85714 -1.80701,-0.60234 -3.80952,0 -5.71428,0 -0.95238,0 -2.00531,0.42591 -2.85715,0 -1.20467,-0.60234 -1.65246,-2.25481 -2.85714,-2.85715 -1.70367,-0.85183 -4.01061,0.85184 -5.71428,0 -1.20468,-0.60233 -1.65247,-2.2548 -2.85715,-2.85714 -0.73871,-0.36936 -15.11771,0 -17.14285,0 -12.38096,0 -24.76191,0 -37.14286,0 -5.71429,0 -11.42857,0 -17.14286,0 -0.95238,0 -2.18371,-0.67343 -2.85714,0 -0.67344,0.67344 0.67343,2.18371 0,2.85714 -1.42857,1.42858 -7.14286,-1.42857 -8.57143,0 -0.67344,0.67344 0.67344,2.18371 0,2.85715 -1.42857,1.42857 -7.14286,-1.42857 -8.57143,0 -0.67343,0.67343 0.67344,2.1837 0,2.85714 -1.34687,1.34687 -4.36741,-1.34687 -5.71428,0 -0.67344,0.67343 0.67343,2.18371 0,2.85714 -1.34687,1.34687 -4.36742,-1.34687 -5.71429,0 -0.67344,0.67344 0.67344,2.18371 0,2.85715 -0.67344,0.67343 -2.00531,-0.42592 -2.85714,0 -1.20468,0.60233 -1.65247,2.2548 -2.85715,2.85714 -0.85183,0.42592 -2.1837,-0.67344 -2.85714,0 -0.67343,0.67343 0.67344,2.18371 0,2.85714 -1.34687,1.34687 -4.36741,-1.34687 -5.71428,0 -0.67344,0.67344 0.67343,2.18371 0,2.85714 -0.67344,0.67344 -2.00531,-0.42591 -2.85715,0 -2.40935,1.20468 -3.30493,4.50961 -5.71428,5.71429 -0.85184,0.42592 -2.18371,-0.67344 -2.85715,0 -0.67343,0.67343 0.67344,2.18371 0,2.85714 -0.67343,0.67344 -2.0053,-0.42592 -2.85714,0 -1.20468,0.60234 -1.73648,2.11004 -2.85714,2.85715 -1.77193,1.18128 -3.94236,1.67586 -5.71429,2.85714 -2.24132,1.49422 -3.47296,4.22007 -5.71428,5.71428 -1.77193,1.18129 -3.69398,2.18371 -5.71429,2.85715 -0.90351,0.30117 -2.18371,-0.67344 -2.85714,0 -1.50585,1.50584 -1.3513,4.20844 -2.85714,5.71428 -0.67344,0.67344 -2.00531,-0.42592 -2.85715,0 -11.89074,5.94537 3.05439,-0.19724 -2.85714,5.71429 -0.67344,0.67343 -1.90476,0 -2.85714,0 0,0.95238 0.42591,2.00531 0,2.85714 -5.94537,11.89075 0.19724,-3.05439 -5.71429,2.85714 -0.67343,0.67344 0.67344,2.18371 0,2.85715 -0.67343,0.67343 -2.18371,-0.67344 -2.85714,0 -0.67344,0.67343 0.67343,2.1837 0,2.85714 -0.67344,0.67343 -2.18371,-0.67344 -2.85714,0 -1.34687,1.34687 0.85183,4.01061 0,5.71429 -5.94538,11.89074 0.19724,-3.05439 -5.71429,2.85714 -0.68752,0.68752 0.68752,10.74105 0,11.42857 -0.67344,0.67343 -2.18371,-0.67344 -2.85714,0 -0.67344,0.67343 0,1.90476 0,2.85714 0,0.95238 0,1.90476 0,2.85715 0,12.38095 0,24.7619 0,37.14285 0,1.04925 0.11497,11.3136 0,11.42857 -0.67344,0.67344 -2.18371,-0.67343 -2.85715,0 -0.67343,0.67344 0.67344,2.18371 0,2.85715 -0.67343,0.67343 -2.1837,-0.67344 -2.85714,0 -1.34687,1.34687 0.85184,4.01061 0,5.71428 -0.60234,1.20468 -2.2548,1.65247 -2.85714,2.85715 -0.42592,0.85183 0.67343,2.1837 0,2.85714 -0.67344,0.67343 -2.18371,-0.67344 -2.85714,0 -0.673436,0.67343 0,1.90476 0,2.85714 0,0.95238 0,1.90476 0,2.85714 0,9.52381 0,19.04762 0,28.57143 0,0.95238 0,1.90476 0,2.85715 0,0.95238 -0.673436,2.1837 0,2.85714 0.67343,0.67343 1.90476,0 2.85714,0"
       id="path3907"
       inkscape:connector-curvature="0" />
    <path
       style="fill:none;fill-rule:evenodd;stroke:#000000;stroke-width:1px;stroke-linecap:butt;stroke-linejoin:miter;stroke-opacity:1"
       d="m 240,300.93361 c -0.95238,3.80952 -2.21159,7.55523 -2.85714,11.42857 -0.31314,1.87885 0,3.80953 0,5.71429 0,4.7619 0,9.52381 0,14.28571 0,12.38095 0,24.76191 0,37.14286 0,16.19048 0,32.38095 0,48.57143 0,0.69293 0.0919,8.47954 0,8.57143 -0.67344,0.67343 -2.18371,-0.67344 -2.85715,0 -0.67343,0.67343 0,1.90476 0,2.85714 0,4.7619 0,9.52381 0,14.28571 0,0.95238 0.67344,2.18371 0,2.85715 -0.67343,0.67343 -2.1837,-0.67344 -2.85714,0 -0.8847,0.8847 0.88471,13.40101 0,14.28571 -0.67343,0.67344 -2.18371,-0.67343 -2.85714,0 -1.42857,1.42857 1.42857,7.14286 0,8.57143 -0.67344,0.67343 -2.18371,-0.67344 -2.85714,0 -0.67344,0.67343 0.67343,2.18371 0,2.85714 -0.67344,0.67344 -2.18371,-0.67343 -2.85715,0 -0.003,0.003 0.004,8.55848 0,8.57143 -0.42591,1.27775 -2.2548,1.65247 -2.85714,2.85714 -0.56642,1.13284 0.5841,7.98733 0,8.57143 -0.67344,0.67344 -2.18371,-0.67343 -2.85714,0 -0.68752,0.68752 0.68751,10.74106 0,11.42857 -0.67344,0.67344 -2.18371,-0.67343 -2.85715,0 -1.90099,1.90099 1.90099,3.8133 0,5.71429 -0.67343,0.67343 -2.1837,-0.67344 -2.85714,0 -0.67343,0.67343 0,1.90476 0,2.85714 0,5.71429 0,11.42857 0,17.14286 0,0.95238 0,1.90476 0,2.85714 0,0.95238 0.67344,2.18371 0,2.85715 -0.67343,0.67343 -2.18371,-0.67344 -2.85714,0 -0.67344,0.67343 0,1.90476 0,2.85714 0,7.61905 0,15.23809 0,22.85714 0,16.19048 0,32.38095 0,48.57143 0,4.7619 0,9.52381 0,14.28571 0,0.95238 0.67343,2.18371 0,2.85715 -0.67344,0.67343 -2.18371,-0.67344 -2.85714,0 -0.67344,0.67343 0,1.90476 0,2.85714 -0.95239,0 -2.18371,-0.67344 -2.85715,0 -0.67343,0.67343 0.67344,2.18371 0,2.85714 -0.67343,0.67344 -2.1837,-0.67343 -2.85714,0 -0.67344,0.67344 0.67344,2.18371 0,2.85715 -0.67344,0.67343 -2.18371,-0.67344 -2.85714,0 -0.11498,0.11497 0,10.37932 0,11.42857 0,5.71428 0,11.42857 0,17.14285 0,0.95238 -0.67344,2.18371 0,2.85715 0.67343,0.67343 2.1837,-0.67344 2.85714,0 0.67344,0.67343 0,1.90476 0,2.85714 0.95238,0 2.18371,-0.67344 2.85714,0 1.86408,1.86408 -1.86407,3.85021 0,5.71429 0.67344,0.67343 2.18371,-0.67344 2.85715,0 0.67343,0.67343 -0.67344,2.1837 0,2.85714 0.67343,0.67343 2.1837,-0.67344 2.85714,0 1.34687,1.34687 -1.34687,4.36741 0,5.71428 0.67343,0.67344 2.18371,-0.67343 2.85714,0 0.67344,0.67344 -0.67343,2.18371 0,2.85715 0.67344,0.67343 2.18371,-0.67344 2.85714,0 3.92157,3.92157 -5.04201,2.85714 -5.71428,2.85714"
       id="path3909"
       inkscape:connector-curvature="0" />
    <path
       style="fill:none;fill-rule:evenodd;stroke:#000000;stroke-width:1px;stroke-linecap:butt;stroke-linejoin:miter;stroke-opacity:1"
       d="m 308.57143,303.79075 c 0,39.04762 0,78.09524 0,117.14286 0,12.38095 0,24.76191 0,37.14286 0,0.95238 0,1.90476 0,2.85714 0,0.95238 -0.67344,2.18371 0,2.85714 0.67343,0.67344 2.18371,-0.67343 2.85714,0 0.68752,0.68752 -0.68752,10.74106 0,11.42858 0.67344,0.67343 2.43123,-0.85184 2.85714,0 0.85184,1.70367 -0.60233,3.90727 0,5.71428 0.42592,1.27775 2.25481,1.65247 2.85715,2.85714 1.5133,3.02661 -1.5133,2.68769 0,5.71429 0.60234,1.20468 2.2548,1.65247 2.85714,2.85714 0.85184,1.70367 -1.34687,4.36742 0,5.71429 0.67344,0.67343 2.18371,-0.67344 2.85714,0 1.34687,1.34687 -1.34687,4.36741 0,5.71428 0.67344,0.67344 2.18371,-0.67343 2.85715,0 0.67343,0.67344 -0.67344,2.18371 0,2.85715 0.67343,0.67343 2.1837,-0.67344 2.85714,0 1.42857,1.42857 -1.42857,7.14285 0,8.57143 0.67343,0.67343 2.18371,-0.67344 2.85714,0 0.67344,0.67343 -0.42592,2.0053 0,2.85714 0.60234,1.20468 2.25481,1.65246 2.85714,2.85714 0.85184,1.70367 -1.34687,4.36742 0,5.71429 0.67344,0.67343 2.18371,-0.67344 2.85715,0 0.67343,0.67343 0,1.90476 0,2.85714 0.95238,0 2.1837,-0.67344 2.85714,0 1.42857,1.42857 -1.42857,7.14286 0,8.57143 0.67344,0.67343 2.18371,-0.67344 2.85714,0 0.67344,0.67343 0,1.90476 0,2.85714 0,0.95238 0,1.90476 0,2.85714 0,8.57143 0,17.14286 0,25.71429 0,19.04762 0,38.09524 0,57.14286 0,0.69293 -0.0919,8.47954 0,8.57143 0.67344,0.67343 2.18371,-0.67344 2.85715,0 1.42857,1.42857 -1.42858,7.14285 0,8.57142 1.34687,1.34687 4.36741,-1.34687 5.71428,0 1.42857,1.42858 -1.42857,7.14286 0,8.57143 0.67344,0.67344 2.18371,-0.67343 2.85714,0 1.34687,1.34687 -1.34687,4.36742 0,5.71429 0.67344,0.67343 2.18371,-0.67344 2.85715,0 0.67343,0.67343 0,1.90476 0,2.85714 0,0.69293 0.0919,8.47954 0,8.57143 -0.67344,0.67343 -2.18371,-0.67344 -2.85715,0 -1.90099,1.90099 1.90099,3.8133 0,5.71429 -0.67343,0.67343 -2.1837,-0.67344 -2.85714,0 -0.67343,0.67343 0.67344,2.1837 0,2.85714 -0.67343,0.67343 -2.18371,-0.67344 -2.85714,0 -0.67344,0.67343 0.67343,2.18371 0,2.85714 -0.67344,0.67344 -2.18371,-0.67343 -2.85714,0 -1.88236,1.88235 1.88235,3.83193 0,5.71429 -0.67344,0.67343 -2.18371,-0.67344 -2.85715,0 -1.34687,1.34687 1.90476,5.71428 0,5.71428 -0.95238,0 0,-3.80952 0,-2.85714 0,1.90476 0,3.80952 0,5.71429 0,0.95238 -0.67343,2.1837 0,2.85714 0.67344,0.67343 2.18371,-0.67344 2.85715,0 0.67343,0.67343 -0.67344,2.18371 0,2.85714 0.67343,0.67344 2.85714,-0.95238 2.85714,0 0,0.95238 -3.80953,0 -2.85714,0 1.90476,0 3.80952,0 5.71428,0 7.91198,0 -2.19769,2.85714 5.71429,2.85714 0.95238,0 3.80952,0 2.85714,0 -1.90476,0 -7.61905,0 -5.71429,0 2.85715,0 5.71429,0 8.57143,0 0.95238,0 -1.90476,0 -2.85714,0 -3.80952,0 -7.61905,0 -11.42857,0 -4.76191,0 -9.52381,0 -14.28572,0 -0.95238,0 -2.1837,-0.67343 -2.85714,0 -0.67343,0.67344 0.67344,2.18371 0,2.85715 -0.67343,0.67343 -2.18371,-0.67344 -2.85714,0 -0.67344,0.67343 0.67343,2.1837 0,2.85714 -0.67344,0.67343 -1.90476,0 -2.85714,0 -0.95239,0 -1.90477,0 -2.85715,0"
       id="path3911"
       inkscape:connector-curvature="0" />
    <path
       style="fill:#aa4400;fill-rule:evenodd;stroke:#000000;stroke-width:1px;stroke-linecap:butt;stroke-linejoin:miter;stroke-opacity:1"
       d="m 208.57143,689.50504 c 5.71428,0 11.42857,0 17.14286,0 0.95238,0 2.1837,-0.67344 2.85714,0 3.80952,3.80952 -4.76191,2.85714 2.85714,2.85714 1.04925,0 11.3136,-0.11497 11.42857,0 0.67344,0.67344 -0.67343,2.18371 0,2.85715 0.67344,0.67343 2.00531,-0.42592 2.85715,0 2.40935,1.20467 3.30493,4.5096 5.71428,5.71428 1.70367,0.85184 4.01062,-0.85183 5.71429,0 1.20467,0.60234 1.65246,2.25481 2.85714,2.85714 1.70367,0.85184 4.36742,-1.34687 5.71429,0 0.67343,0.67344 -0.67344,2.18371 0,2.85715 0.67343,0.67343 2.0053,-0.42592 2.85714,0 1.20468,0.60234 1.65246,2.2548 2.85714,2.85714 1.80249,0.90124 12.48323,-0.90124 14.28572,0 1.20467,0.60234 1.57939,2.43122 2.85714,2.85714 2.71052,0.90351 5.71428,0 8.57143,0 6.66666,0 13.33333,0 20,0 3.80952,0 7.61904,0 11.42857,0 0.95238,0 2.85714,-0.95238 2.85714,0 0,0.95238 -2.85714,0.95238 -2.85714,0 0,-1.34687 1.65246,-2.2548 2.85714,-2.85714 1.70367,-0.85184 4.36742,1.34687 5.71429,0 0.67343,-0.67344 -0.67344,-2.18371 0,-2.85714 0.67343,-0.67344 2.85714,-0.95238 2.85714,0 0,0.95238 -2.85714,0.95238 -2.85714,0 0,-2.12959 5.71428,-4.98673 5.71428,-2.85715 0,0.95238 -2.85714,0.95238 -2.85714,0 0,-1.34687 1.90476,-1.90476 2.85714,-2.85714"
       id="path3913"
       inkscape:connector-curvature="0" />
    <path
       style="fill:#aa4400"
       d="m 283.27286,694.95432 c -37.07353,-3.35206 -55.51583,-5.82809 -65.81067,-8.83563 -2.57437,-0.75209 -8.03865,-6.44169 -12.14286,-12.64354 -9.25393,-13.98366 -10.26872,-33.68743 -2.11501,-41.06643 4.76929,-4.31614 5.49695,-10.77112 6.73307,-59.72854 1.1608,-45.97413 2.40655,-58.13785 7.66984,-74.8894 3.45617,-11 7.48313,-22.20919 8.94879,-24.90932 6.75021,-12.43557 9.53843,-37.09988 11.07271,-97.94783 l 1.65698,-65.71428 33.57143,-0.80496 33.57143,-0.80496 0,77.22215 c 0,86.30798 1.04767,92.4356 22.4885,131.53062 l 10.1851,18.57143 1.52034,53.68053 c 0.92963,32.82353 2.69348,54.47073 4.5397,55.71427 1.66065,1.11857 4.71655,6.2294 6.7909,11.35737 3.48024,8.60349 3.19188,10.16003 -3.73365,20.15358 -4.12784,5.95648 -7.50517,13.65371 -7.50517,17.10497 0,7.33143 1.01919,7.29577 -57.44143,2.00997 z"
       id="path3915"
       inkscape:connector-curvature="0" />
    <ellipse
       style="fill:#ffff00"
       id="path3917"
       cx="230"
       cy="156.6479"
       rx="27.142857"
       ry="7.1428571" />
    <ellipse
       style="fill:#ffff00"
       id="path3919"
       cx="384.28571"
       cy="180.93361"
       rx="24.285715"
       ry="11.428572" />
    <ellipse
       style="fill:#ffff00"
       id="path3921"
       cx="172.85715"
       cy="242.36218"
       rx="18.571428"
       ry="12.857142" />
    <ellipse
       style="fill:#ffff00"
       id="path3923"
       cx="295.71429"
       cy="229.50504"
       rx="12.857142"
       ry="17.142857" />
    <ellipse
       style="fill:#ffff00"
       id="path3928"
       cx="478.57144"
       cy="273.79074"
       rx="7.1428571"
       ry="27.142857" />
    <circle
       style="fill:#ffff00"
       id="path3930"
       cx="384.28571"
       cy="253.79076"
       r="15.714286" />
  </g>
</svg>
