<?xml version="1.0" encoding="UTF-8" standalone="no"?>
<!-- Created with Inkscape (http://www.inkscape.org/) -->

<svg
   xmlns:dc="http://purl.org/dc/elements/1.1/"
   xmlns:cc="http://creativecommons.org/ns#"
   xmlns:rdf="http://www.w3.org/1999/02/22-rdf-syntax-ns#"
   xmlns:svg="http://www.w3.org/2000/svg"
   xmlns="http://www.w3.org/2000/svg"
   xmlns:sodipodi="http://sodipodi.sourceforge.net/DTD/sodipodi-0.dtd"
   xmlns:inkscape="http://www.inkscape.org/namespaces/inkscape"
   width="157.46307mm"
   height="153.20636mm"
   viewBox="0 0 557.94003 542.85718"
   id="svg3375"
   version="1.1"
   inkscape:version="0.91 r13725"
   sodipodi:docname="18-house-with-tree.svg">
  <defs
     id="defs3377" />
  <sodipodi:namedview
     id="base"
     pagecolor="#ffffff"
     bordercolor="#666666"
     borderopacity="1.0"
     inkscape:pageopacity="0.0"
     inkscape:pageshadow="2"
     inkscape:zoom="0.35"
     inkscape:cx="317.85714"
     inkscape:cy="462.85713"
     inkscape:document-units="px"
     inkscape:current-layer="layer1"
     showgrid="false"
     fit-margin-top="0"
     fit-margin-left="0"
     fit-margin-right="0"
     fit-margin-bottom="0"
     inkscape:window-width="1311"
     inkscape:window-height="744"
     inkscape:window-x="55"
     inkscape:window-y="24"
     inkscape:window-maximized="1" />
  <metadata
     id="metadata3380">
    <rdf:RDF>
      <cc:Work
         rdf:about="">
        <dc:format>image/svg+xml</dc:format>
        <dc:type
           rdf:resource="http://purl.org/dc/dcmitype/StillImage" />
        <dc:title></dc:title>
      </cc:Work>
    </rdf:RDF>
  </metadata>
  <g
     inkscape:label="Layer 1"
     inkscape:groupmode="layer"
     id="layer1"
     transform="translate(-57.14286,-452.36217)">
    <rect
       style="fill:#aa4400"
       id="rect3383"
       width="28.571428"
       height="377.14285"
       x="137.14285"
       y="606.64789" />
    <ellipse
       style="fill:#00ff00"
       id="path3385"
       cx="154.28572"
       cy="540.93359"
       rx="97.14286"
       ry="88.571426" />
    <rect
       style="fill:#916f6f"
       id="rect3387"
       width="254.28572"
       height="274.28571"
       x="294.28571"
       y="720.93359" />
    <path
       style="fill:#ff0000;fill-rule:evenodd;stroke:#000000;stroke-width:1px;stroke-linecap:butt;stroke-linejoin:miter;stroke-opacity:1"
       d="m 274.28571,720.93361 c 34.28572,0 68.57143,0 102.85715,0 6.66666,0 13.33333,0 20,0 1.87745,0 6.95943,-0.53733 8.57143,0 9.32656,3.10886 2.39497,3.7325 14.28571,5.71429 2.81827,0.46971 5.71429,0 8.57143,0 3.80952,0 7.61905,0 11.42857,0 8.57143,0 17.14286,0 25.71429,0 33.33333,0 66.66666,0 100,0 1.34713,0 14.15622,-0.12949 14.28571,0 0.67344,0.67343 -0.67344,2.1837 0,2.85714 0.67344,0.67343 2.18371,-0.67344 2.85714,0 0.67344,0.67343 -0.67343,2.18371 0,2.85714 0.67344,0.67344 1.90476,0 2.85715,0 0.95238,0 1.90476,0 2.85714,0 7.61905,0 15.23809,0 22.85714,0 0.95238,0 2.18371,0.67344 2.85714,0 0.67344,-0.67343 0,-1.90476 0,-2.85714 0,-0.95238 0,-1.90476 0,-2.85714 0,-0.95238 0,-1.90477 0,-2.85715 0,-0.95238 0.42592,-2.0053 0,-2.85714 -0.60233,-1.20468 -1.90476,-1.90476 -2.85714,-2.85714 -1.90476,-1.90476 -4.22007,-3.47296 -5.71428,-5.71429 -0.52829,-0.79243 0.67343,-2.18371 0,-2.85714 -14.60109,-14.60108 3.98495,11.97994 -11.42858,-8.57143 -1.27775,-1.70367 -1.57939,-4.01061 -2.85714,-5.71428 -1.61624,-2.155 -4.09804,-3.5593 -5.71428,-5.71429 -1.27776,-1.70367 -1.3513,-4.20844 -2.85715,-5.71429 -2.4281,-2.4281 -6.14332,-3.28618 -8.57143,-5.71428 -1.50584,-1.50585 -1.57939,-4.01062 -2.85714,-5.71429 -3.23249,-4.30998 -8.65673,-6.80884 -11.42857,-11.42857 -1.5495,-2.5825 -1.51027,-5.87769 -2.85714,-8.57143 -0.60234,-1.20467 -2.11004,-1.73648 -2.85715,-2.85714 -3.17188,-4.75782 -5.26126,-12.72931 -8.57142,-17.14286 -1.61625,-2.15499 -4.09805,-3.55929 -5.71429,-5.71428 -1.27775,-1.70367 -1.67586,-3.94236 -2.85714,-5.71429 -0.74711,-1.12066 -2.11004,-1.73648 -2.85715,-2.85714 -1.18128,-1.77193 -1.57939,-4.01062 -2.85714,-5.71429 -2.42436,-3.23249 -6.3301,-5.20944 -8.57143,-8.57143 -1.18128,-1.77192 -1.35129,-4.20844 -2.85714,-5.71428 -1.50585,-1.50585 -3.94236,-1.67586 -5.71429,-2.85714 -1.12066,-0.74711 -1.90476,-1.90477 -2.85714,-2.85715 -2.85714,-2.85714 -5.71428,-5.71428 -8.57143,-8.57143 -1.90476,-1.90476 -3.47296,-4.22006 -5.71428,-5.71428 -1.77193,-1.18128 -3.94236,-1.67586 -5.71429,-2.85714 -1.12066,-0.74711 -1.65246,-2.25481 -2.85714,-2.85715 -0.85184,-0.42592 -2.00531,0.42592 -2.85714,0 -2.18254,-1.09127 -6.63672,-7.92652 -8.57143,-8.57143 -13.00653,0 -0.16341,1.34687 -8.57143,-2.85714 -0.85184,-0.42592 -2.18371,0.67344 -2.85714,0 -0.67344,-0.67343 0.85183,-2.43122 0,-2.85714 -1.70368,-0.85184 -4.01062,0.85183 -5.71429,0 -0.85184,-0.42592 0.67344,-2.18371 0,-2.85714 -0.67344,-0.67344 -2.18371,0.67343 -2.85714,0 -1.34687,-1.34687 1.34687,-4.36742 0,-5.71429 -7.61905,0 0.95238,0.95238 -2.85715,-2.85714 -0.67343,-0.67344 -2.1837,0.67343 -2.85714,0 -1.90099,-1.90099 1.90099,-3.8133 0,-5.71429 -0.67343,-0.67343 -2.18371,0.67344 -2.85714,0 -3.84,-3.84 3.84,-1.87428 0,-5.71428 -0.67344,-0.67344 -2.18371,0.67343 -2.85714,0 -1.42858,-1.42858 1.42857,-7.14286 0,-8.57143 -0.67344,-0.67344 -2.18371,0.67343 -2.85715,0 -1.34687,-1.34687 1.34687,-4.36742 0,-5.71429 -0.67343,-0.67343 -2.1837,0.67344 -2.85714,0 -0.67344,-0.67343 0.67344,-2.18371 0,-2.85714 -0.67344,-0.67344 -2.18371,0.67343 -2.85714,0 -0.67344,-0.67344 0.67343,-2.18371 0,-2.85714 -0.67344,-0.67344 -2.18371,0.67343 -2.85715,0 -0.67343,-0.67344 0.67344,-2.18371 0,-2.85715 -0.67343,-0.67343 -1.90476,0 -2.85714,0 -0.69293,0 -8.47954,-0.0919 -8.57143,0 -1.34687,1.34687 1.05657,4.12943 0,5.71429 -1.49422,2.24133 -3.80952,3.80952 -5.71428,5.71428 -3.80953,3.80953 -7.61905,7.61905 -11.42857,11.42858 -0.95239,0.95238 -1.90477,1.90476 -2.85715,2.85714 -0.95238,0.95238 -2.2548,1.65246 -2.85714,2.85714 -0.42592,0.85184 0.42592,2.00531 0,2.85714 -0.60234,1.20468 -1.90476,1.90477 -2.85714,2.85715 -1.90476,1.90476 -4.09804,3.55929 -5.71429,5.71428 -1.27775,1.70367 -1.67586,3.94236 -2.85714,5.71429 -0.74711,1.12066 -2.11004,1.73648 -2.85714,2.85714 -1.18129,1.77193 -1.3513,4.20844 -2.85715,5.71429 -1.50584,1.50584 -4.20844,1.35129 -5.71428,2.85714 -0.18309,0.18308 -5.35949,10.89637 -5.71429,11.42857 -1.49422,2.24133 -4.22007,3.47296 -5.71428,5.71429 -1.18129,1.77192 -1.67586,3.94236 -2.85715,5.71428 -1.49422,2.24133 -4.22006,3.47296 -5.71428,5.71429 -1.18129,1.77192 -2.18371,3.69398 -2.85715,5.71428 -0.30117,0.90351 0.67344,2.18371 0,2.85715 -0.67343,0.67343 -2.1837,-0.67344 -2.85714,0 -0.67343,0.67343 0.42592,2.0053 0,2.85714 -0.60234,1.20468 -1.90476,1.90476 -2.85714,2.85714 -0.95238,0.95238 -1.90476,1.90476 -2.85714,2.85715 -3.80953,3.80952 -7.61905,7.61904 -11.42858,11.42857 -0.95238,0.95238 -2.2548,1.65246 -2.85714,2.85714 -0.42592,0.85184 0,1.90476 0,2.85714 -0.95238,0.95238 -2.2548,1.65247 -2.85714,2.85715 -0.42592,0.85183 0.67343,2.1837 0,2.85714 -0.67344,0.67343 -2.18371,-0.67344 -2.85714,0 -0.67344,0.67343 0,1.90476 0,2.85714 -0.95239,0 -2.18371,-0.67343 -2.85715,0 -0.67343,0.67344 0.42592,2.00531 0,2.85714 -0.60234,1.20468 -2.2548,1.65247 -2.85714,2.85715 -0.85184,1.70367 0.85184,4.01061 0,5.71428 -0.60234,1.20468 -2.2548,1.65247 -2.85714,2.85715 -1.97051,3.94102 3.46015,2.55563 -2.85715,5.71428 -0.85183,0.42592 -2.1837,-0.67343 -2.85714,0 -1.42857,1.42857 1.42857,7.14286 0,8.57143 -3.80952,3.80952 -2.85714,-4.76191 -2.85714,2.85714 0,0.95238 0,1.90476 0,2.85715 0,0.95238 0.67343,2.1837 0,2.85714 -0.67344,0.67343 -2.18371,-0.67344 -2.85714,0 -1.34687,1.34687 1.34687,4.36741 0,5.71428 -0.67344,0.67344 -2.18371,-0.67343 -2.85715,0 -1.34687,1.34687 1.34687,4.36742 0,5.71429 -0.67343,0.67343 -1.90476,0 -2.85714,0 0,0.95238 0.67344,2.18371 0,2.85714 -0.67344,0.67344 -2.18371,-0.67343 -2.85714,0 -1.34687,1.34687 1.34687,4.36742 0,5.71429 -0.67344,0.67343 -2.18371,-0.67344 -2.85715,0 -1.42857,1.42857 1.42858,7.14286 0,8.57143 -2.8185,2.8185 -5.71428,-5.85451 -5.71428,2.85714 0,0.69293 -0.0919,8.47954 0,8.57143 0.0919,0.0919 7.87849,0 8.57143,0 10.79365,0 -12.69842,0 5.71428,0 0.95238,0 2.85715,-0.95238 2.85715,0 0,0.95238 -3.80953,0 -2.85715,0 2.85715,0 5.71429,0 8.57143,0 0.95238,0 1.90476,0 2.85714,0 0.95239,0 2.18371,-0.67344 2.85715,0 0.67343,0.67343 -0.67344,2.18371 0,2.85714 0.68406,0.68406 11.42857,-0.6495 11.42857,0 0,0.95238 -2.85714,-0.95238 -2.85714,0 0,1.34687 2.2548,1.65247 2.85714,2.85714 2.24989,4.49979 -3.70468,2.85715 -5.71429,2.85715"
       id="path3389"
       inkscape:connector-curvature="0" />
    <rect
       style="fill:#000080"
       id="rect3391"
       width="62.857143"
       height="54.285713"
       x="380"
       y="818.07648" />
    <rect
       style="fill:#2b0000"
       id="rect3393"
       width="51.42857"
       height="142.85715"
       x="320"
       y="852.36218" />
  </g>
</svg>
